<?xml version="1.0" standalone="no"?>
<!DOCTYPE svg PUBLIC "-//W3C//DTD SVG 20010904//EN"
 "http://www.w3.org/TR/2001/REC-SVG-20010904/DTD/svg10.dtd">
<svg version="1.0" xmlns="http://www.w3.org/2000/svg"
 width="234.000000pt" height="98.000000pt" viewBox="0 0 234.000000 98.000000"
 preserveAspectRatio="xMidYMid meet">

<g transform="translate(0.000000,98.000000) scale(0.100000,-0.100000)"
fill="#000000" stroke="none">
<path fill="#ffffff" d="M37 964 c34 -15 34 -14 51 -127 12 -81 40 -137 95 -195 65 -67 109
-87 197 -86 64 0 88 5 163 37 49 21 100 36 115 35 22 -3 27 2 33 30 4 18 15
42 24 53 40 43 207 66 252 34 12 -8 23 -25 25 -38 3 -19 9 -22 48 -23 25 0 81
-4 125 -8 95 -10 141 0 208 45 54 35 93 95 103 155 3 23 9 46 13 52 9 15 376
28 484 18 81 -8 90 -16 65 -56 -27 -43 35 -80 68 -41 15 17 19 18 32 5 33 -33
89 7 64 46 -20 33 -15 50 17 50 16 0 31 -6 35 -15 8 -22 21 -19 58 15 l32 30
-1169 -1 c-1017 -1 -1166 -2 -1138 -15z m2097 -20 c21 -8 20 -20 -2 -44 -18
-20 -19 -20 -32 6 -12 22 -12 27 0 34 18 12 15 11 34 4z"/>
</g>
</svg>
