<?xml version="1.0" encoding="iso-8859-1"?>
<!-- Generator: Adobe Illustrator 19.0.0, SVG Export Plug-In . SVG Version: 6.00 Build 0)  -->
<svg version="1.1" id="Layer_1" xmlns="http://www.w3.org/2000/svg" xmlns:xlink="http://www.w3.org/1999/xlink" x="0px" y="0px"
	 viewBox="0 0 512.001 512.001" style="enable-background:new 0 0 512.001 512.001;" xml:space="preserve">
<path style="fill:#F7B239;" d="M442.589,16.304c-10.864-10.876-23.421-15.797-37.44-16.272
	c-15.224-0.524-30.583,5.359-41.277,16.272c-0.497,0.508-0.932,1.054-1.332,1.619l-11.23-11.23l-7.751,7.751l20.207,20.206
	c0.038,0.038,0.068,0.08,0.106,0.118l3.958,3.946c6.626,6.638,17.551,7.174,24.785,1.194c2.058-1.693,3.751-3.459,6.297-4.458
	c2.399-0.938,5.042-1.206,7.588-0.804c5.298,0.84,9.817,4.689,11.498,9.792c1.815,5.542,0.073,11.802-4.36,15.59L274.658,178.767
	l-29.353,25.078L87.64,338.551c-14.762,12.606-25.662,29.377-30.9,48.097c-4.957,17.697-4.811,36.709,0.292,54.37
	c5.176,17.953,15.48,34.298,29.584,46.587c18.549,16.162,43.043,25.029,67.658,24.359c24.493-0.658,48.292-10.645,65.904-27.696
	c2.265-2.192,4.433-4.506,6.48-6.906l3.057-3.593c22.557-26.478,59.132-36.246,91.883-24.554v1.047
	c0,9.086,7.369,16.442,16.442,16.442h2.107c9.074,0,16.43-7.356,16.43-16.442V300.466c0-9.086-7.356-16.442-16.43-16.442h-2.107
	c-9.074,0-16.442,7.356-16.442,16.442v1.047c-7.186,2.022-14.311,4.312-21.326,6.894c-7.003,2.57-13.921,5.432-20.705,8.55
	c-13.507,6.212-26.539,13.495-38.902,21.753c-12.131,8.099-23.641,17.124-34.383,26.99c-11.156,10.243-21.412,21.387-30.826,33.238
	c-2.923,3.678-7.417,5.603-11.875,5.128c-0.426-0.037-0.853-0.11-1.279-0.207c-0.146-0.024-0.292-0.061-0.438-0.097
	c-0.621-0.146-1.242-0.353-1.839-0.609c-0.158-0.061-0.329-0.134-0.487-0.207c-0.146-0.061-0.292-0.134-0.438-0.219
	c-0.28-0.146-0.548-0.292-0.816-0.451c-0.012,0-0.012,0-0.024-0.012c-0.256-0.158-0.512-0.329-0.755-0.499
	c-0.244-0.183-0.487-0.365-0.731-0.56c-0.281-0.222-0.544-0.481-0.81-0.734c-2.625-2.565-4.079-6.169-3.986-9.831
	c0.011-0.315,0.026-0.63,0.058-0.943c0.018-0.188,0.049-0.375,0.076-0.561c0.065-0.428,0.134-0.855,0.241-1.279
	c0.097-0.402,0.219-0.816,0.365-1.218c0.037-0.11,0.085-0.207,0.122-0.317c0.037-0.097,0.073-0.195,0.11-0.292
	c0.024-0.061,0.049-0.122,0.085-0.183c0.073-0.183,0.158-0.365,0.256-0.548c0.085-0.183,0.171-0.365,0.28-0.536
	c0.097-0.183,0.195-0.353,0.304-0.524c0.207-0.353,0.438-0.694,0.694-1.023c0.231-0.317,0.487-0.621,0.767-0.926
	c0-0.012,0.012-0.024,0.024-0.037c0.134-0.146,0.28-0.292,0.414-0.426l185.263-185.263l24.298-24.286l78.254-78.254
	c0.207-0.219,0.414-0.451,0.609-0.694c0.451-0.487,0.877-0.974,1.303-1.462c0.061-0.061,0.122-0.134,0.171-0.207
	c1.303-1.559,2.57-3.167,3.69-4.86c0.122-0.171,0.244-0.341,0.353-0.524c1.559-2.387,2.96-4.872,4.141-7.466
	c1.108-2.412,2.314-5.067,2.838-7.673c0.134-0.426,0.244-0.853,0.365-1.291c0.073-0.304,0.158-0.597,0.219-0.901
	c0.292-1.157,0.512-2.314,0.743-3.483c0.012-0.037,0.012-0.085,0.024-0.122v-0.012C461.078,48.056,455.926,29.641,442.589,16.304z"
	/>
<g>
	<path style="opacity:0.25;fill:#4D4D4D;enable-background:new    ;" d="M340.147,424.076h-2.107
		c-9.074,0-16.442-7.356-16.442-16.442v19.658c-35.309-11.692-75.708-1.924-100.019,24.554l-3.301,3.593
		c-20.693,22.52-50.497,34.639-80.897,34.639c-15.31,0-30.766-3.069-45.284-9.427c-8.721-3.812-16.552-8.526-23.458-13.921
		c9.488,14.859,23.239,27.477,40.972,35.844c13.471,6.358,27.806,9.427,42.007,9.427c28.196,0,55.843-12.119,75.038-34.639
		l3.057-3.593c22.557-26.478,59.132-36.246,91.883-24.554v1.047c0,9.086,7.369,16.442,16.442,16.442h2.107
		c9.074,0,16.43-7.356,16.43-16.442v-42.629C356.577,416.72,349.221,424.076,340.147,424.076z"/>
	<path style="opacity:0.25;fill:#4D4D4D;enable-background:new    ;" d="M458.021,65.461c-0.231,1.169-0.451,2.326-0.743,3.483
		c-0.061,0.304-0.146,0.597-0.219,0.901c-0.122,0.438-0.231,0.865-0.365,1.291c-0.524,2.606-1.73,5.262-2.838,7.673
		c-1.181,2.594-2.582,5.079-4.141,7.466c-0.11,0.183-0.231,0.353-0.353,0.524c-1.121,1.693-2.387,3.301-3.69,4.86
		c-0.049,0.073-0.11,0.146-0.171,0.207c-0.426,0.487-0.853,0.974-1.303,1.462c-0.195,0.244-0.402,0.475-0.609,0.694l-78.254,78.254
		l-24.298,24.286L155.931,381.667c-0.414,0.122-0.585,0.317-0.572,0.585c-0.012,0.012-0.024,0.024-0.024,0.037
		c-0.28,0.305-0.536,0.609-0.767,0.926c-0.256,0.329-0.487,0.67-0.694,1.023c-0.11,0.171-0.207,0.341-0.304,0.524
		c-0.097,0.183-0.195,0.353-0.28,0.536c-0.097,0.183-0.183,0.365-0.256,0.548c-0.073,0.158-0.134,0.317-0.195,0.475
		c-0.037,0.11-0.085,0.207-0.122,0.317c-0.146,0.402-0.268,0.804-0.365,1.218c-0.268,1.06-0.402,2.131-0.402,3.215
		c0,3.276,1.218,6.553,3.666,9.086c0.365,0.378,0.755,0.731,1.157,1.047c0.231,0.207,0.475,0.39,0.731,0.56
		c0.244,0.183,0.499,0.341,0.755,0.499c0.012,0.012,0.012,0.012,0.024,0.012c0.268,0.171,0.548,0.317,0.816,0.451
		c0.146,0.085,0.292,0.158,0.438,0.219c0.158,0.073,0.317,0.146,0.487,0.207c0.597,0.256,1.218,0.463,1.839,0.609
		c0.146,0.037,0.292,0.073,0.438,0.097c0.426,0.097,0.853,0.171,1.279,0.207c2.448,0.28,4.957-0.134,7.198-1.23
		c-15.907,11.254-28.33,2.071-32.544-12.301c-3.897-13.337,0.499-27.721,10.681-37.172l192.669-178.723l26.198-24.286
		L458.021,65.461z"/>
</g>
<g>
	
		<rect x="345.854" y="169.453" transform="matrix(-0.7071 -0.7071 0.7071 -0.7071 505.73 561.7831)" style="fill:#F7B239;" width="46.72" height="13.397"/>
	
		<rect x="321.552" y="193.739" transform="matrix(-0.7071 -0.7071 0.7071 -0.7071 447.0707 586.0578)" style="fill:#F7B239;" width="46.72" height="13.397"/>
	
		<rect x="248.682" y="169.45" transform="matrix(-0.7071 -0.7071 0.7071 -0.7071 339.8499 493.0674)" style="fill:#F7B239;" width="46.72" height="13.397"/>
	
		<rect x="221.469" y="196.659" transform="matrix(-0.7071 -0.7071 0.7071 -0.7071 274.1544 520.2738)" style="fill:#F7B239;" width="46.72" height="13.397"/>
</g>
<g>
	<path style="fill:#808080;" d="M234.135,264c-0.585,0-1.194-0.061-1.778-0.183c-0.585-0.11-1.157-0.292-1.705-0.512
		c-0.56-0.231-1.084-0.512-1.583-0.84c-0.499-0.341-0.962-0.719-1.388-1.145c-1.693-1.693-2.667-4.044-2.667-6.455
		c0-0.597,0.049-1.194,0.171-1.778c0.122-0.585,0.292-1.169,0.524-1.717c0.231-0.548,0.512-1.084,0.84-1.571
		c0.329-0.499,0.719-0.974,1.133-1.388c0.426-0.426,0.889-0.804,1.388-1.145c0.499-0.329,1.023-0.609,1.583-0.84
		c0.548-0.219,1.121-0.402,1.705-0.512c2.972-0.597,6.126,0.378,8.246,2.497c0.414,0.414,0.804,0.889,1.133,1.388
		c0.329,0.487,0.609,1.023,0.84,1.571c0.231,0.56,0.402,1.133,0.524,1.717c0.11,0.585,0.171,1.181,0.171,1.778
		c0,2.412-0.974,4.762-2.667,6.455C238.898,263.026,236.546,264,234.135,264z"/>
	<path style="fill:#808080;" d="M210.823,287.324c-0.597,0-1.206-0.061-1.79-0.183c-0.585-0.11-1.157-0.292-1.705-0.524
		c-0.56-0.219-1.084-0.499-1.583-0.828c-0.499-0.341-0.962-0.719-1.388-1.145c-1.693-1.693-2.667-4.044-2.667-6.455
		c0-0.597,0.061-1.194,0.171-1.79c0.122-0.572,0.292-1.157,0.524-1.705c0.231-0.548,0.512-1.084,0.84-1.571
		c0.329-0.499,0.719-0.974,1.133-1.388c0.426-0.426,0.889-0.804,1.388-1.145c0.499-0.329,1.023-0.609,1.583-0.84
		c0.548-0.219,1.121-0.402,1.705-0.512c2.972-0.609,6.126,0.378,8.246,2.497c0.426,0.414,0.804,0.889,1.133,1.388
		c0.329,0.487,0.609,1.023,0.84,1.571c0.231,0.548,0.402,1.133,0.524,1.705c0.122,0.597,0.183,1.194,0.183,1.79
		c0,2.399-0.974,4.762-2.68,6.455C215.574,286.35,213.224,287.324,210.823,287.324z"/>
	<path style="fill:#808080;" d="M188.949,309.186c-0.597,0-1.194-0.049-1.79-0.171c-0.572-0.122-1.157-0.292-1.705-0.524
		s-1.084-0.512-1.571-0.84c-0.499-0.329-0.974-0.719-1.388-1.133c-1.705-1.705-2.68-4.056-2.68-6.455
		c0-2.412,0.974-4.762,2.68-6.467c0.414-0.414,0.889-0.804,1.388-1.133c0.487-0.329,1.023-0.609,1.571-0.84s1.133-0.402,1.705-0.524
		c1.181-0.231,2.399-0.231,3.581,0c0.572,0.122,1.157,0.292,1.705,0.524c0.548,0.231,1.084,0.512,1.571,0.84
		c0.499,0.329,0.974,0.719,1.388,1.133c0.426,0.426,0.804,0.889,1.145,1.388c0.329,0.499,0.609,1.023,0.84,1.583
		c0.219,0.548,0.402,1.121,0.512,1.705c0.122,0.585,0.183,1.194,0.183,1.79c0,0.585-0.061,1.194-0.183,1.778
		c-0.11,0.585-0.292,1.157-0.512,1.705c-0.231,0.56-0.512,1.084-0.84,1.583c-0.341,0.499-0.719,0.962-1.145,1.388
		c-0.414,0.414-0.889,0.804-1.388,1.133c-0.487,0.329-1.023,0.609-1.571,0.84s-1.133,0.402-1.705,0.524
		C190.142,309.138,189.547,309.186,188.949,309.186z"/>
</g>
<g>
	<path style="fill:#F7B239;" d="M379.605,210.388c-2.337,0-4.676-0.892-6.459-2.676c-3.567-3.567-3.567-9.351,0-12.918
		l15.833-15.833c3.567-3.567,9.351-3.567,12.918,0c3.567,3.567,3.567,9.351,0,12.918l-15.833,15.833
		C384.281,209.496,381.942,210.388,379.605,210.388z"/>
	<path style="fill:#F7B239;" d="M218.266,202.918c-2.337,0-4.676-0.892-6.459-2.676c-3.567-3.567-3.567-9.351,0-12.918
		l15.833-15.833c3.567-3.567,9.351-3.567,12.918,0c3.567,3.567,3.567,9.351,0,12.918l-15.833,15.833
		C222.942,202.026,220.605,202.918,218.266,202.918z"/>
</g>
<g>
</g>
<g>
</g>
<g>
</g>
<g>
</g>
<g>
</g>
<g>
</g>
<g>
</g>
<g>
</g>
<g>
</g>
<g>
</g>
<g>
</g>
<g>
</g>
<g>
</g>
<g>
</g>
<g>
</g>
</svg>
