<svg xmlns="http://www.w3.org/2000/svg" width="1440" height="900"><path d="M748,475L739,397L652,411Z" fill="#9fd3ff" stroke="#9fd3ff" stroke-width="1.51"/><path d="M652,411L648,509L748,475Z" fill="#9fd4ff" stroke="#9fd4ff" stroke-width="1.51"/><path d="M652,411L576,486L648,509Z" fill="#9fd5ff" stroke="#9fd5ff" stroke-width="1.51"/><path d="M653,309L580,415L652,411Z" fill="#9fd7ff" stroke="#9fd7ff" stroke-width="1.51"/><path d="M580,415L576,486L652,411Z" fill="#9fd5ff" stroke="#9fd5ff" stroke-width="1.51"/><path d="M739,397L653,309L652,411Z" fill="#9fd6ff" stroke="#9fd6ff" stroke-width="1.51"/><path d="M882,388L789,332L739,397Z" fill="#9fd8ff" stroke="#9fd8ff" stroke-width="1.51"/><path d="M789,332L653,309L739,397Z" fill="#a0d6ff" stroke="#a0d6ff" stroke-width="1.51"/><path d="M648,509L777,605L748,475Z" fill="#9fd5ff" stroke="#9fd5ff" stroke-width="1.51"/><path d="M748,475L882,388L739,397Z" fill="#9fd6ff" stroke="#9fd6ff" stroke-width="1.51"/><path d="M643,619L777,605L648,509Z" fill="#a0d8ff" stroke="#a0d8ff" stroke-width="1.51"/><path d="M777,605L865,525L748,475Z" fill="#9fd8ff" stroke="#9fd8ff" stroke-width="1.51"/><path d="M563,614L643,619L648,509Z" fill="#a0dbff" stroke="#a0dbff" stroke-width="1.51"/><path d="M865,525L882,388L748,475Z" fill="#9fd5ff" stroke="#9fd5ff" stroke-width="1.51"/><path d="M580,415L494,470L576,486Z" fill="#a0d7ff" stroke="#a0d7ff" stroke-width="1.51"/><path d="M576,486L563,614L648,509Z" fill="#9fd9ff" stroke="#9fd9ff" stroke-width="1.51"/><path d="M474,386L494,470L580,415Z" fill="#a0d8ff" stroke="#a0d8ff" stroke-width="1.51"/><path d="M653,309L554,281L580,415Z" fill="#a0daff" stroke="#a0daff" stroke-width="1.51"/><path d="M589,174L554,281L653,309Z" fill="#a0deff" stroke="#a0deff" stroke-width="1.51"/><path d="M458,591L563,614L576,486Z" fill="#a0dcff" stroke="#a0dcff" stroke-width="1.51"/><path d="M789,332L775,225L653,309Z" fill="#a0d9ff" stroke="#a0d9ff" stroke-width="1.51"/><path d="M897,310L775,225L789,332Z" fill="#a0dcff" stroke="#a0dcff" stroke-width="1.51"/><path d="M554,281L474,386L580,415Z" fill="#a0dbff" stroke="#a0dbff" stroke-width="1.51"/><path d="M882,388L897,310L789,332Z" fill="#a0daff" stroke="#a0daff" stroke-width="1.51"/><path d="M988,374L897,310L882,388Z" fill="#a0dbff" stroke="#a0dbff" stroke-width="1.51"/><path d="M865,525L939,494L882,388Z" fill="#a0d8ff" stroke="#a0d8ff" stroke-width="1.51"/><path d="M777,605L881,604L865,525Z" fill="#a0dbff" stroke="#a0dbff" stroke-width="1.51"/><path d="M865,679L881,604L777,605Z" fill="#a0ddff" stroke="#a0ddff" stroke-width="1.51"/><path d="M881,604L939,494L865,525Z" fill="#a0dbff" stroke="#a0dbff" stroke-width="1.51"/><path d="M643,619L656,694L777,605Z" fill="#a0dbff" stroke="#a0dbff" stroke-width="1.51"/><path d="M593,688L656,694L643,619Z" fill="#a0deff" stroke="#a0deff" stroke-width="1.51"/><path d="M775,225L690,178L653,309Z" fill="#a0dcff" stroke="#a0dcff" stroke-width="1.51"/><path d="M554,281L498,273L474,386Z" fill="#a0deff" stroke="#a0deff" stroke-width="1.51"/><path d="M589,174L498,273L554,281Z" fill="#a0e0ff" stroke="#a0e0ff" stroke-width="1.51"/><path d="M563,614L593,688L643,619Z" fill="#a0deff" stroke="#a0deff" stroke-width="1.51"/><path d="M473,722L593,688L563,614Z" fill="#a0e1ff" stroke="#a0e1ff" stroke-width="1.51"/><path d="M494,470L458,591L576,486Z" fill="#a0dbff" stroke="#a0dbff" stroke-width="1.51"/><path d="M365,502L458,591L494,470Z" fill="#a0ddff" stroke="#a0ddff" stroke-width="1.51"/><path d="M782,721L865,679L777,605Z" fill="#a0deff" stroke="#a0deff" stroke-width="1.51"/><path d="M881,604L958,622L939,494Z" fill="#a0ddff" stroke="#a0ddff" stroke-width="1.51"/><path d="M690,178L589,174L653,309Z" fill="#a0deff" stroke="#a0deff" stroke-width="1.51"/><path d="M656,694L782,721L777,605Z" fill="#a0dcff" stroke="#a0dcff" stroke-width="1.51"/><path d="M693,804L782,721L656,694Z" fill="#a0dfff" stroke="#a0dfff" stroke-width="1.51"/><path d="M939,494L988,374L882,388Z" fill="#a0d9ff" stroke="#a0d9ff" stroke-width="1.51"/><path d="M1042,390L988,374L939,494Z" fill="#a0dbff" stroke="#a0dbff" stroke-width="1.51"/><path d="M897,310L880,170L775,225Z" fill="#a0dfff" stroke="#a0dfff" stroke-width="1.51"/><path d="M775,225L745,88L690,178Z" fill="#a0dfff" stroke="#a0dfff" stroke-width="1.51"/><path d="M988,374L963,302L897,310Z" fill="#a0deff" stroke="#a0deff" stroke-width="1.51"/><path d="M865,679L958,622L881,604Z" fill="#a0dfff" stroke="#a0dfff" stroke-width="1.51"/><path d="M474,386L385,388L494,470Z" fill="#a0dbff" stroke="#a0dbff" stroke-width="1.51"/><path d="M385,277L385,388L474,386Z" fill="#a0dfff" stroke="#a0dfff" stroke-width="1.51"/><path d="M385,277L474,386L498,273Z" fill="#a0dfff" stroke="#a0dfff" stroke-width="1.51"/><path d="M969,222L880,170L897,310Z" fill="#a0e1ff" stroke="#a0e1ff" stroke-width="1.51"/><path d="M690,178L644,95L589,174Z" fill="#a0e1ff" stroke="#a0e1ff" stroke-width="1.51"/><path d="M385,388L365,502L494,470Z" fill="#a0daff" stroke="#a0daff" stroke-width="1.51"/><path d="M988,374L1070,283L963,302Z" fill="#a0e0ff" stroke="#a0e0ff" stroke-width="1.51"/><path d="M963,302L969,222L897,310Z" fill="#a0dfff" stroke="#a0dfff" stroke-width="1.51"/><path d="M1097,467L1042,390L939,494Z" fill="#a0daff" stroke="#a0daff" stroke-width="1.51"/><path d="M1070,283L969,222L963,302Z" fill="#a0e2ff" stroke="#a0e2ff" stroke-width="1.51"/><path d="M589,174L481,172L498,273Z" fill="#a0e2ff" stroke="#a0e2ff" stroke-width="1.51"/><path d="M572,92L481,172L589,174Z" fill="#a0e4ff" stroke="#a0e4ff" stroke-width="1.51"/><path d="M745,88L644,95L690,178Z" fill="#a0e1ff" stroke="#a0e1ff" stroke-width="1.51"/><path d="M880,170L745,88L775,225Z" fill="#a0e1ff" stroke="#a0e1ff" stroke-width="1.51"/><path d="M892,117L745,88L880,170Z" fill="#a0e4ff" stroke="#a0e4ff" stroke-width="1.51"/><path d="M481,172L385,277L498,273Z" fill="#a0e3ff" stroke="#a0e3ff" stroke-width="1.51"/><path d="M385,388L278,411L365,502Z" fill="#a0ddff" stroke="#a0ddff" stroke-width="1.51"/><path d="M549,813L693,804L656,694Z" fill="#a0e2ff" stroke="#a0e2ff" stroke-width="1.51"/><path d="M458,591L473,722L563,614Z" fill="#a0e0ff" stroke="#a0e0ff" stroke-width="1.51"/><path d="M370,719L473,722L458,591Z" fill="#a0e4ff" stroke="#a0e4ff" stroke-width="1.51"/><path d="M549,813L656,694L593,688Z" fill="#a0e2ff" stroke="#a0e2ff" stroke-width="1.51"/><path d="M782,721L869,835L865,679Z" fill="#a0e2ff" stroke="#a0e2ff" stroke-width="1.51"/><path d="M865,679L974,708L958,622Z" fill="#a0e1ff" stroke="#a0e1ff" stroke-width="1.51"/><path d="M672,16L572,92L644,95Z" fill="#9fe5ff" stroke="#9fe5ff" stroke-width="1.51"/><path d="M644,95L572,92L589,174Z" fill="#a0e4ff" stroke="#a0e4ff" stroke-width="1.51"/><path d="M365,502L364,601L458,591Z" fill="#a0e0ff" stroke="#a0e0ff" stroke-width="1.51"/><path d="M950,99L892,117L880,170Z" fill="#a0e5ff" stroke="#a0e5ff" stroke-width="1.51"/><path d="M693,804L758,816L782,721Z" fill="#a0e1ff" stroke="#a0e1ff" stroke-width="1.51"/><path d="M1083,582L1097,467L939,494Z" fill="#a0deff" stroke="#a0deff" stroke-width="1.51"/><path d="M869,835L974,708L865,679Z" fill="#a0e4ff" stroke="#a0e4ff" stroke-width="1.51"/><path d="M1083,582L939,494L958,622Z" fill="#a0deff" stroke="#a0deff" stroke-width="1.51"/><path d="M1042,390L1070,283L988,374Z" fill="#a0dfff" stroke="#a0dfff" stroke-width="1.51"/><path d="M969,222L950,99L880,170Z" fill="#a0e4ff" stroke="#a0e4ff" stroke-width="1.51"/><path d="M1152,368L1070,283L1042,390Z" fill="#a0e0ff" stroke="#a0e0ff" stroke-width="1.51"/><path d="M473,722L549,813L593,688Z" fill="#a0e4ff" stroke="#a0e4ff" stroke-width="1.51"/><path d="M692,925L782,911L758,816Z" fill="#a0e6ff" stroke="#a0e6ff" stroke-width="1.51"/><path d="M494,821L549,813L473,722Z" fill="#a0e7ff" stroke="#a0e7ff" stroke-width="1.51"/><path d="M1064,712L1083,582L958,622Z" fill="#a0e3ff" stroke="#a0e3ff" stroke-width="1.51"/><path d="M1070,283L1045,213L969,222Z" fill="#a0e4ff" stroke="#a0e4ff" stroke-width="1.51"/><path d="M838,-25L747,-10L745,88Z" fill="#a0e6ff" stroke="#a0e6ff" stroke-width="1.51"/><path d="M1045,213L950,99L969,222Z" fill="#a0e5ff" stroke="#a0e5ff" stroke-width="1.51"/><path d="M385,277L278,411L385,388Z" fill="#a0e0ff" stroke="#a0e0ff" stroke-width="1.51"/><path d="M365,502L274,570L364,601Z" fill="#a0e1ff" stroke="#a0e1ff" stroke-width="1.51"/><path d="M481,172L335,228L385,277Z" fill="#a0e5ff" stroke="#a0e5ff" stroke-width="1.51"/><path d="M371,69L335,228L481,172Z" fill="#a0e8ff" stroke="#a0e8ff" stroke-width="1.51"/><path d="M233,297L278,411L385,277Z" fill="#a0e3ff" stroke="#a0e3ff" stroke-width="1.51"/><path d="M745,88L672,16L644,95Z" fill="#9fe4ff" stroke="#9fe4ff" stroke-width="1.51"/><path d="M572,92L444,68L481,172Z" fill="#a0e7ff" stroke="#a0e7ff" stroke-width="1.51"/><path d="M747,-10L672,16L745,88Z" fill="#a0e4ff" stroke="#a0e4ff" stroke-width="1.51"/><path d="M758,816L869,835L782,721Z" fill="#a0e3ff" stroke="#a0e3ff" stroke-width="1.51"/><path d="M974,708L1064,712L958,622Z" fill="#a0e3ff" stroke="#a0e3ff" stroke-width="1.51"/><path d="M782,911L869,835L758,816Z" fill="#9fe6ff" stroke="#9fe6ff" stroke-width="1.51"/><path d="M364,601L370,719L458,591Z" fill="#a0e3ff" stroke="#a0e3ff" stroke-width="1.51"/><path d="M296,708L370,719L364,601Z" fill="#a0e6ff" stroke="#a0e6ff" stroke-width="1.51"/><path d="M692,925L758,816L693,804Z" fill="#a0e3ff" stroke="#a0e3ff" stroke-width="1.51"/><path d="M345,784L494,821L473,722Z" fill="#a0e8ff" stroke="#a0e8ff" stroke-width="1.51"/><path d="M240,470L274,570L365,502Z" fill="#a0e1ff" stroke="#a0e1ff" stroke-width="1.51"/><path d="M973,811L1064,712L974,708Z" fill="#a0e7ff" stroke="#a0e7ff" stroke-width="1.51"/><path d="M550,-2L444,68L572,92Z" fill="#a0e9ff" stroke="#a0e9ff" stroke-width="1.51"/><path d="M838,-25L745,88L892,117Z" fill="#9fe6ff" stroke="#9fe6ff" stroke-width="1.51"/><path d="M672,16L550,-2L572,92Z" fill="#9fe8ff" stroke="#9fe8ff" stroke-width="1.51"/><path d="M1097,467L1152,368L1042,390Z" fill="#a0deff" stroke="#a0deff" stroke-width="1.51"/><path d="M1070,283L1144,214L1045,213Z" fill="#a0e5ff" stroke="#a0e5ff" stroke-width="1.51"/><path d="M1158,497L1152,368L1097,467Z" fill="#a0deff" stroke="#a0deff" stroke-width="1.51"/><path d="M1158,497L1097,467L1083,582Z" fill="#a0e0ff" stroke="#a0e0ff" stroke-width="1.51"/><path d="M869,835L973,811L974,708Z" fill="#a0e7ff" stroke="#a0e7ff" stroke-width="1.51"/><path d="M1205,573L1158,497L1083,582Z" fill="#a0e2ff" stroke="#a0e2ff" stroke-width="1.51"/><path d="M157,385L240,470L278,411Z" fill="#a0e0ff" stroke="#a0e0ff" stroke-width="1.51"/><path d="M278,411L240,470L365,502Z" fill="#a0deff" stroke="#a0deff" stroke-width="1.51"/><path d="M637,-95L550,-2L672,16Z" fill="#a0e9ff" stroke="#a0e9ff" stroke-width="1.51"/><path d="M335,228L233,297L385,277Z" fill="#a0e5ff" stroke="#a0e5ff" stroke-width="1.51"/><path d="M371,69L290,212L335,228Z" fill="#a0e9ff" stroke="#a0e9ff" stroke-width="1.51"/><path d="M692,925L693,804L581,912Z" fill="#a0e7ff" stroke="#a0e7ff" stroke-width="1.51"/><path d="M869,835L970,929L973,811Z" fill="#a0eaff" stroke="#a0eaff" stroke-width="1.51"/><path d="M1152,368L1167,315L1070,283Z" fill="#a0e3ff" stroke="#a0e3ff" stroke-width="1.51"/><path d="M1045,213L1098,113L950,99Z" fill="#a0e8ff" stroke="#a0e8ff" stroke-width="1.51"/><path d="M1263,382L1167,315L1152,368Z" fill="#a0e3ff" stroke="#a0e3ff" stroke-width="1.51"/><path d="M581,912L693,804L549,813Z" fill="#9fe6ff" stroke="#9fe6ff" stroke-width="1.51"/><path d="M747,-10L637,-95L672,16Z" fill="#a0e7ff" stroke="#a0e7ff" stroke-width="1.51"/><path d="M950,99L838,-25L892,117Z" fill="#a0e8ff" stroke="#a0e8ff" stroke-width="1.51"/><path d="M1000,2L838,-25L950,99Z" fill="#a0ebff" stroke="#a0ebff" stroke-width="1.51"/><path d="M370,719L345,784L473,722Z" fill="#a0e8ff" stroke="#a0e8ff" stroke-width="1.51"/><path d="M274,570L296,708L364,601Z" fill="#a0e5ff" stroke="#a0e5ff" stroke-width="1.51"/><path d="M137,621L296,708L274,570Z" fill="#a0e7ff" stroke="#a0e7ff" stroke-width="1.51"/><path d="M491,901L549,813L494,821Z" fill="#a0e9ff" stroke="#a0e9ff" stroke-width="1.51"/><path d="M491,901L581,912L549,813Z" fill="#a0eaff" stroke="#a0eaff" stroke-width="1.51"/><path d="M290,212L233,297L335,228Z" fill="#a0e7ff" stroke="#a0e7ff" stroke-width="1.51"/><path d="M296,708L345,784L370,719Z" fill="#a0e9ff" stroke="#a0e9ff" stroke-width="1.51"/><path d="M1167,315L1144,214L1070,283Z" fill="#a0e5ff" stroke="#a0e5ff" stroke-width="1.51"/><path d="M444,68L371,69L481,172Z" fill="#a0e9ff" stroke="#a0e9ff" stroke-width="1.51"/><path d="M290,212L185,278L233,297Z" fill="#a0e8ff" stroke="#a0e8ff" stroke-width="1.51"/><path d="M445,11L371,69L444,68Z" fill="#a0ecff" stroke="#a0ecff" stroke-width="1.51"/><path d="M550,-2L445,11L444,68Z" fill="#a0ebff" stroke="#a0ebff" stroke-width="1.51"/><path d="M381,912L491,901L494,821Z" fill="#a0ecff" stroke="#a0ecff" stroke-width="1.51"/><path d="M782,911L875,924L869,835Z" fill="#9fe9ff" stroke="#9fe9ff" stroke-width="1.51"/><path d="M1171,673L1083,582L1064,712Z" fill="#a0e5ff" stroke="#a0e5ff" stroke-width="1.51"/><path d="M877,982L875,924L782,911Z" fill="#9fe9ff" stroke="#9fe9ff" stroke-width="1.51"/><path d="M1144,214L1098,113L1045,213Z" fill="#a0e8ff" stroke="#a0e8ff" stroke-width="1.51"/><path d="M1158,497L1263,382L1152,368Z" fill="#a0e0ff" stroke="#a0e0ff" stroke-width="1.51"/><path d="M1171,673L1205,573L1083,582Z" fill="#a0e5ff" stroke="#a0e5ff" stroke-width="1.51"/><path d="M1068,814L1064,712L973,811Z" fill="#a0e9ff" stroke="#a0e9ff" stroke-width="1.51"/><path d="M1066,909L1068,814L973,811Z" fill="#a0ecff" stroke="#a0ecff" stroke-width="1.51"/><path d="M1180,824L1171,673L1064,712Z" fill="#a0eaff" stroke="#a0eaff" stroke-width="1.51"/><path d="M1098,113L1000,2L950,99Z" fill="#a0ebff" stroke="#a0ebff" stroke-width="1.51"/><path d="M737,-126L637,-95L747,-10Z" fill="#a0e6ff" stroke="#a0e6ff" stroke-width="1.51"/><path d="M550,-2L465,-115L445,11Z" fill="#a0ecff" stroke="#a0ecff" stroke-width="1.51"/><path d="M737,-126L747,-10L838,-25Z" fill="#a0e7ff" stroke="#a0e7ff" stroke-width="1.51"/><path d="M233,297L157,385L278,411Z" fill="#a0e4ff" stroke="#a0e4ff" stroke-width="1.51"/><path d="M240,470L148,506L274,570Z" fill="#a0e3ff" stroke="#a0e3ff" stroke-width="1.51"/><path d="M172,205L185,278L290,212Z" fill="#a0e9ff" stroke="#a0e9ff" stroke-width="1.51"/><path d="M185,278L157,385L233,297Z" fill="#a0e6ff" stroke="#a0e6ff" stroke-width="1.51"/><path d="M637,-95L586,-97L550,-2Z" fill="#9fe9ff" stroke="#9fe9ff" stroke-width="1.51"/><path d="M692,925L786,1014L782,911Z" fill="#a0e7ff" stroke="#a0e7ff" stroke-width="1.51"/><path d="M581,912L674,997L692,925Z" fill="#a0e8ff" stroke="#a0e8ff" stroke-width="1.51"/><path d="M565,1012L674,997L581,912Z" fill="#a0e9ff" stroke="#a0e9ff" stroke-width="1.51"/><path d="M942,980L970,929L875,924Z" fill="#a0ecff" stroke="#a0ecff" stroke-width="1.51"/><path d="M875,924L970,929L869,835Z" fill="#a0ebff" stroke="#a0ebff" stroke-width="1.51"/><path d="M157,385L148,506L240,470Z" fill="#a0e1ff" stroke="#a0e1ff" stroke-width="1.51"/><path d="M247,877L381,912L345,784Z" fill="#a0efff" stroke="#a0efff" stroke-width="1.51"/><path d="M1205,573L1276,474L1158,497Z" fill="#a0e2ff" stroke="#a0e2ff" stroke-width="1.51"/><path d="M1167,315L1306,223L1144,214Z" fill="#a0e8ff" stroke="#a0e8ff" stroke-width="1.51"/><path d="M1171,673L1241,586L1205,573Z" fill="#a0e6ff" stroke="#a0e6ff" stroke-width="1.51"/><path d="M1301,708L1241,586L1171,673Z" fill="#a0e9ff" stroke="#a0e9ff" stroke-width="1.51"/><path d="M371,69L233,108L290,212Z" fill="#a0ebff" stroke="#a0ebff" stroke-width="1.51"/><path d="M445,11L358,-7L371,69Z" fill="#a0eeff" stroke="#a0eeff" stroke-width="1.51"/><path d="M465,-115L358,-7L445,11Z" fill="#a0eeff" stroke="#a0eeff" stroke-width="1.51"/><path d="M1276,474L1263,382L1158,497Z" fill="#a0e0ff" stroke="#a0e0ff" stroke-width="1.51"/><path d="M1144,214L1189,74L1098,113Z" fill="#a0ebff" stroke="#a0ebff" stroke-width="1.51"/><path d="M860,-114L737,-126L838,-25Z" fill="#a0e8ff" stroke="#a0e8ff" stroke-width="1.51"/><path d="M637,-95L737,-126L586,-97Z" fill="#a0e8ff" stroke="#a0e8ff" stroke-width="1.51"/><path d="M786,1014L877,982L782,911Z" fill="#a0e8ff" stroke="#a0e8ff" stroke-width="1.51"/><path d="M491,901L565,1012L581,912Z" fill="#a0ebff" stroke="#a0ebff" stroke-width="1.51"/><path d="M345,784L381,912L494,821Z" fill="#a0ecff" stroke="#a0ecff" stroke-width="1.51"/><path d="M246,784L345,784L296,708Z" fill="#a0ebff" stroke="#a0ebff" stroke-width="1.51"/><path d="M136,676L246,784L296,708Z" fill="#a0ebff" stroke="#a0ebff" stroke-width="1.51"/><path d="M254,0L233,108L371,69Z" fill="#a0efff" stroke="#a0efff" stroke-width="1.51"/><path d="M1241,586L1276,474L1205,573Z" fill="#a0e4ff" stroke="#a0e4ff" stroke-width="1.51"/><path d="M954,-100L860,-114L838,-25Z" fill="#9feaff" stroke="#9feaff" stroke-width="1.51"/><path d="M674,997L786,1014L692,925Z" fill="#a0e6ff" stroke="#a0e6ff" stroke-width="1.51"/><path d="M233,108L172,205L290,212Z" fill="#a0ebff" stroke="#a0ebff" stroke-width="1.51"/><path d="M185,278L65,325L157,385Z" fill="#a0e7ff" stroke="#a0e7ff" stroke-width="1.51"/><path d="M1000,2L954,-100L838,-25Z" fill="#a0ecff" stroke="#a0ecff" stroke-width="1.51"/><path d="M1098,113L1047,-32L1000,2Z" fill="#a0eeff" stroke="#a0eeff" stroke-width="1.51"/><path d="M1155,-8L1047,-32L1098,113Z" fill="#a0efff" stroke="#a0efff" stroke-width="1.51"/><path d="M697,1116L791,1107L786,1014Z" fill="#a0e7ff" stroke="#a0e7ff" stroke-width="1.51"/><path d="M458,982L565,1012L491,901Z" fill="#a0ecff" stroke="#a0ecff" stroke-width="1.51"/><path d="M867,1093L942,980L877,982Z" fill="#a0ebff" stroke="#a0ebff" stroke-width="1.51"/><path d="M877,982L942,980L875,924Z" fill="#a0ebff" stroke="#a0ebff" stroke-width="1.51"/><path d="M970,929L1066,909L973,811Z" fill="#a0edff" stroke="#a0edff" stroke-width="1.51"/><path d="M148,506L137,621L274,570Z" fill="#a0e6ff" stroke="#a0e6ff" stroke-width="1.51"/><path d="M55,594L137,621L148,506Z" fill="#a0e8ff" stroke="#a0e8ff" stroke-width="1.51"/><path d="M92,468L148,506L157,385Z" fill="#9fe2ff" stroke="#9fe2ff" stroke-width="1.51"/><path d="M1088,977L1066,909L970,929Z" fill="#a0efff" stroke="#a0efff" stroke-width="1.51"/><path d="M1068,814L1180,824L1064,712Z" fill="#a0ebff" stroke="#a0ebff" stroke-width="1.51"/><path d="M381,912L458,982L491,901Z" fill="#a0edff" stroke="#a0edff" stroke-width="1.51"/><path d="M1047,-32L954,-100L1000,2Z" fill="#a0eeff" stroke="#a0eeff" stroke-width="1.51"/><path d="M358,-7L254,0L371,69Z" fill="#a0f0ff" stroke="#a0f0ff" stroke-width="1.51"/><path d="M586,-97L465,-115L550,-2Z" fill="#a0ebff" stroke="#a0ebff" stroke-width="1.51"/><path d="M737,-126L465,-115L586,-97Z" fill="#9fe9ff" stroke="#9fe9ff" stroke-width="1.51"/><path d="M38,424L92,468L157,385Z" fill="#9fe4ff" stroke="#9fe4ff" stroke-width="1.51"/><path d="M1284,105L1189,74L1144,214Z" fill="#a0edff" stroke="#a0edff" stroke-width="1.51"/><path d="M55,594L136,676L137,621Z" fill="#a0ebff" stroke="#a0ebff" stroke-width="1.51"/><path d="M137,621L136,676L296,708Z" fill="#a0eaff" stroke="#a0eaff" stroke-width="1.51"/><path d="M1066,909L1180,824L1068,814Z" fill="#a0eeff" stroke="#a0eeff" stroke-width="1.51"/><path d="M1358,525L1351,405L1276,474Z" fill="#9fe4ff" stroke="#9fe4ff" stroke-width="1.51"/><path d="M1263,382L1300,297L1167,315Z" fill="#a0e6ff" stroke="#a0e6ff" stroke-width="1.51"/><path d="M1351,405L1300,297L1263,382Z" fill="#9fe6ff" stroke="#9fe6ff" stroke-width="1.51"/><path d="M279,-89L254,0L358,-7Z" fill="#a0f1ff" stroke="#a0f1ff" stroke-width="1.51"/><path d="M233,108L148,128L172,205Z" fill="#a0eeff" stroke="#a0eeff" stroke-width="1.51"/><path d="M159,815L247,877L246,784Z" fill="#a0f0ff" stroke="#a0f0ff" stroke-width="1.51"/><path d="M246,784L247,877L345,784Z" fill="#a0eeff" stroke="#a0eeff" stroke-width="1.51"/><path d="M381,912L353,975L458,982Z" fill="#a0efff" stroke="#a0efff" stroke-width="1.51"/><path d="M95,74L148,128L138,6Z" fill="#9ff3ff" stroke="#9ff3ff" stroke-width="1.51"/><path d="M172,205L65,325L185,278Z" fill="#a0eaff" stroke="#a0eaff" stroke-width="1.51"/><path d="M247,877L353,975L381,912Z" fill="#a0f1ff" stroke="#a0f1ff" stroke-width="1.51"/><path d="M596,1128L674,997L565,1012Z" fill="#a0e9ff" stroke="#a0e9ff" stroke-width="1.51"/><path d="M1189,74L1155,-8L1098,113Z" fill="#a0efff" stroke="#a0efff" stroke-width="1.51"/><path d="M1047,-32L1098,-83L954,-100Z" fill="#a0eeff" stroke="#a0eeff" stroke-width="1.51"/><path d="M1280,8L1155,-8L1189,74Z" fill="#a0f2ff" stroke="#a0f2ff" stroke-width="1.51"/><path d="M1180,824L1249,772L1171,673Z" fill="#a0edff" stroke="#a0edff" stroke-width="1.51"/><path d="M1276,474L1351,405L1263,382Z" fill="#9fe3ff" stroke="#9fe3ff" stroke-width="1.51"/><path d="M1300,297L1306,223L1167,315Z" fill="#a0e8ff" stroke="#a0e8ff" stroke-width="1.51"/><path d="M56,165L65,325L172,205Z" fill="#a0edff" stroke="#a0edff" stroke-width="1.51"/><path d="M1300,297L1358,289L1306,223Z" fill="#a0eaff" stroke="#a0eaff" stroke-width="1.51"/><path d="M1358,525L1276,474L1241,586Z" fill="#9fe5ff" stroke="#9fe5ff" stroke-width="1.51"/><path d="M1249,772L1301,708L1171,673Z" fill="#a0ecff" stroke="#a0ecff" stroke-width="1.51"/><path d="M1363,784L1371,682L1301,708Z" fill="#a0efff" stroke="#a0efff" stroke-width="1.51"/><path d="M1180,824L1191,879L1249,772Z" fill="#a0f0ff" stroke="#a0f0ff" stroke-width="1.51"/><path d="M1066,909L1191,879L1180,824Z" fill="#a0f0ff" stroke="#a0f0ff" stroke-width="1.51"/><path d="M1088,977L1191,879L1066,909Z" fill="#a0f1ff" stroke="#a0f1ff" stroke-width="1.51"/><path d="M1155,-8L1098,-83L1047,-32Z" fill="#a0f0ff" stroke="#a0f0ff" stroke-width="1.51"/><path d="M954,-100L1268,-129L860,-114Z" fill="#a0eeff" stroke="#a0eeff" stroke-width="1.51"/><path d="M465,-115L380,-134L358,-7Z" fill="#a0efff" stroke="#a0efff" stroke-width="1.51"/><path d="M737,-126L380,-134L465,-115Z" fill="#a0ebff" stroke="#a0ebff" stroke-width="1.51"/><path d="M247,877L283,1004L353,975Z" fill="#a0f2ff" stroke="#a0f2ff" stroke-width="1.51"/><path d="M136,676L159,815L246,784Z" fill="#a0eeff" stroke="#a0eeff" stroke-width="1.51"/><path d="M62,733L159,815L136,676Z" fill="#a0efff" stroke="#a0efff" stroke-width="1.51"/><path d="M942,980L1088,977L970,929Z" fill="#a0eeff" stroke="#a0eeff" stroke-width="1.51"/><path d="M1005,1084L1088,977L942,980Z" fill="#a0eeff" stroke="#a0eeff" stroke-width="1.51"/><path d="M1363,570L1358,525L1241,586Z" fill="#a0e7ff" stroke="#a0e7ff" stroke-width="1.51"/><path d="M65,325L38,424L157,385Z" fill="#9fe6ff" stroke="#9fe6ff" stroke-width="1.51"/><path d="M92,468L55,594L148,506Z" fill="#9fe6ff" stroke="#9fe6ff" stroke-width="1.51"/><path d="M-5,584L55,594L92,468Z" fill="#9fe9ff" stroke="#9fe9ff" stroke-width="1.51"/><path d="M786,1014L867,1093L877,982Z" fill="#9fe9ff" stroke="#9fe9ff" stroke-width="1.51"/><path d="M697,1116L786,1014L674,997Z" fill="#a0e6ff" stroke="#a0e6ff" stroke-width="1.51"/><path d="M697,1116L674,997L596,1128Z" fill="#a0e8ff" stroke="#a0e8ff" stroke-width="1.51"/><path d="M1155,-8L1172,-78L1098,-83Z" fill="#a0f1ff" stroke="#a0f1ff" stroke-width="1.51"/><path d="M1306,223L1284,105L1144,214Z" fill="#a0ecff" stroke="#a0ecff" stroke-width="1.51"/><path d="M1374,115L1284,105L1306,223Z" fill="#a0f0ff" stroke="#a0f0ff" stroke-width="1.51"/><path d="M791,1107L867,1093L786,1014Z" fill="#a0e8ff" stroke="#a0e8ff" stroke-width="1.51"/><path d="M1351,405L1358,289L1300,297Z" fill="#a0e8ff" stroke="#a0e8ff" stroke-width="1.51"/><path d="M1456,309L1358,289L1351,405Z" fill="#a0e9ff" stroke="#a0e9ff" stroke-width="1.51"/><path d="M1358,525L1471,420L1351,405Z" fill="#a0e4ff" stroke="#a0e4ff" stroke-width="1.51"/><path d="M1301,708L1363,570L1241,586Z" fill="#a0e9ff" stroke="#a0e9ff" stroke-width="1.51"/><path d="M596,1128L565,1012L488,1135Z" fill="#a0eaff" stroke="#a0eaff" stroke-width="1.51"/><path d="M380,-134L279,-89L358,-7Z" fill="#a0f0ff" stroke="#a0f0ff" stroke-width="1.51"/><path d="M95,74L56,165L148,128Z" fill="#a0f1ff" stroke="#a0f1ff" stroke-width="1.51"/><path d="M1358,289L1355,225L1306,223Z" fill="#a0ecff" stroke="#a0ecff" stroke-width="1.51"/><path d="M697,1116L1050,1127L791,1107Z" fill="#9fe9ff" stroke="#9fe9ff" stroke-width="1.51"/><path d="M488,1135L565,1012L458,982Z" fill="#a0ecff" stroke="#a0ecff" stroke-width="1.51"/><path d="M1098,-83L1268,-129L954,-100Z" fill="#a0f0ff" stroke="#a0f0ff" stroke-width="1.51"/><path d="M1280,8L1172,-78L1155,-8Z" fill="#a0f3ff" stroke="#a0f3ff" stroke-width="1.51"/><path d="M345,1103L488,1135L458,982Z" fill="#a0eeff" stroke="#a0eeff" stroke-width="1.51"/><path d="M174,982L283,1004L247,877Z" fill="#a0f3ff" stroke="#a0f3ff" stroke-width="1.51"/><path d="M148,128L56,165L172,205Z" fill="#a0efff" stroke="#a0efff" stroke-width="1.51"/><path d="M65,325L-48,422L38,424Z" fill="#a0e8ff" stroke="#a0e8ff" stroke-width="1.51"/><path d="M148,128L233,108L138,6Z" fill="#a0f2ff" stroke="#a0f2ff" stroke-width="1.51"/><path d="M159,815L170,916L247,877Z" fill="#a0f3ff" stroke="#a0f3ff" stroke-width="1.51"/><path d="M55,594L62,733L136,676Z" fill="#a0edff" stroke="#a0edff" stroke-width="1.51"/><path d="M-38,681L62,733L55,594Z" fill="#a0efff" stroke="#a0efff" stroke-width="1.51"/><path d="M138,6L233,108L254,0Z" fill="#a0f2ff" stroke="#a0f2ff" stroke-width="1.51"/><path d="M1182,1027L1256,917L1191,879Z" fill="#a0f3ff" stroke="#a0f3ff" stroke-width="1.51"/><path d="M867,1093L1005,1084L942,980Z" fill="#a0ecff" stroke="#a0ecff" stroke-width="1.51"/><path d="M1050,1127L1005,1084L867,1093Z" fill="#a0edff" stroke="#a0edff" stroke-width="1.51"/><path d="M1050,1127L867,1093L791,1107Z" fill="#a0ebff" stroke="#a0ebff" stroke-width="1.51"/><path d="M1301,708L1371,682L1363,570Z" fill="#a0ecff" stroke="#a0ecff" stroke-width="1.51"/><path d="M1456,309L1355,225L1358,289Z" fill="#a0ecff" stroke="#a0ecff" stroke-width="1.51"/><path d="M1363,784L1301,708L1249,772Z" fill="#a0efff" stroke="#a0efff" stroke-width="1.51"/><path d="M1256,917L1249,772L1191,879Z" fill="#a0f2ff" stroke="#a0f2ff" stroke-width="1.51"/><path d="M180,-125L138,6L254,0Z" fill="#a0f4ff" stroke="#a0f4ff" stroke-width="1.51"/><path d="M56,897L170,916L159,815Z" fill="#9ff5ff" stroke="#9ff5ff" stroke-width="1.51"/><path d="M-64,492L-5,584L92,468Z" fill="#a0e9ff" stroke="#a0e9ff" stroke-width="1.51"/><path d="M-64,492L92,468L38,424Z" fill="#a0e6ff" stroke="#a0e6ff" stroke-width="1.51"/><path d="M1284,105L1280,8L1189,74Z" fill="#a0f1ff" stroke="#a0f1ff" stroke-width="1.51"/><path d="M1374,115L1280,8L1284,105Z" fill="#9ff3ff" stroke="#9ff3ff" stroke-width="1.51"/><path d="M345,1103L458,982L353,975Z" fill="#a0efff" stroke="#a0efff" stroke-width="1.51"/><path d="M1182,1027L1191,879L1088,977Z" fill="#a0f2ff" stroke="#a0f2ff" stroke-width="1.51"/><path d="M1256,917L1363,784L1249,772Z" fill="#9ff2ff" stroke="#9ff2ff" stroke-width="1.51"/><path d="M62,733L64,828L159,815Z" fill="#a0f2ff" stroke="#a0f2ff" stroke-width="1.51"/><path d="M-34,794L64,828L62,733Z" fill="#a0f4ff" stroke="#a0f4ff" stroke-width="1.51"/><path d="M1446,579L1358,525L1363,570Z" fill="#a0e9ff" stroke="#a0e9ff" stroke-width="1.51"/><path d="M1480,194L1374,115L1355,225Z" fill="#a0f1ff" stroke="#a0f1ff" stroke-width="1.51"/><path d="M1355,225L1374,115L1306,223Z" fill="#a0efff" stroke="#a0efff" stroke-width="1.51"/><path d="M-57,282L-48,422L65,325Z" fill="#a0eaff" stroke="#a0eaff" stroke-width="1.51"/><path d="M283,1004L345,1103L353,975Z" fill="#a0f1ff" stroke="#a0f1ff" stroke-width="1.51"/><path d="M279,1128L345,1103L283,1004Z" fill="#a0f1ff" stroke="#a0f1ff" stroke-width="1.51"/><path d="M174,982L247,877L170,916Z" fill="#a0f4ff" stroke="#a0f4ff" stroke-width="1.51"/><path d="M56,165L-57,282L65,325Z" fill="#a0eeff" stroke="#a0eeff" stroke-width="1.51"/><path d="M95,74L-4,121L56,165Z" fill="#a0f3ff" stroke="#a0f3ff" stroke-width="1.51"/><path d="M138,6L76,18L95,74Z" fill="#9ff5ff" stroke="#9ff5ff" stroke-width="1.51"/><path d="M64,-121L76,18L138,6Z" fill="#9ff7ff" stroke="#9ff7ff" stroke-width="1.51"/><path d="M56,897L174,982L170,916Z" fill="#9ff6ff" stroke="#9ff6ff" stroke-width="1.51"/><path d="M1371,682L1446,579L1363,570Z" fill="#a0ebff" stroke="#a0ebff" stroke-width="1.51"/><path d="M1469,679L1446,579L1371,682Z" fill="#a0eeff" stroke="#a0eeff" stroke-width="1.51"/><path d="M1176,1073L1182,1027L1088,977Z" fill="#a0f2ff" stroke="#a0f2ff" stroke-width="1.51"/><path d="M1256,917L1376,903L1363,784Z" fill="#9ff5ff" stroke="#9ff5ff" stroke-width="1.51"/><path d="M1471,420L1456,309L1351,405Z" fill="#9fe8ff" stroke="#9fe8ff" stroke-width="1.51"/><path d="M-5,584L-38,681L55,594Z" fill="#a0edff" stroke="#a0edff" stroke-width="1.51"/><path d="M-48,422L-64,492L38,424Z" fill="#a0e6ff" stroke="#a0e6ff" stroke-width="1.51"/><path d="M279,-89L180,-125L254,0Z" fill="#a0f3ff" stroke="#a0f3ff" stroke-width="1.51"/><path d="M380,-134L180,-125L279,-89Z" fill="#a0f2ff" stroke="#a0f2ff" stroke-width="1.51"/><path d="M1005,1084L1050,1127L1088,977Z" fill="#a0efff" stroke="#a0efff" stroke-width="1.51"/><path d="M596,1128L1050,1127L697,1116Z" fill="#a0e7ff" stroke="#a0e7ff" stroke-width="1.51"/><path d="M488,1135L1050,1127L596,1128Z" fill="#a0e6ff" stroke="#a0e6ff" stroke-width="1.51"/><path d="M1485,514L1471,420L1358,525Z" fill="#a0e7ff" stroke="#a0e7ff" stroke-width="1.51"/><path d="M76,18L-4,121L95,74Z" fill="#9ff5ff" stroke="#9ff5ff" stroke-width="1.51"/><path d="M-48,422L-130,485L-64,492Z" fill="#a0e6ff" stroke="#a0e6ff" stroke-width="1.51"/><path d="M-68,171L-4,121L-149,82Z" fill="#a0f4ff" stroke="#a0f4ff" stroke-width="1.51"/><path d="M-68,171L-57,282L56,165Z" fill="#a0f1ff" stroke="#a0f1ff" stroke-width="1.51"/><path d="M-113,596L-38,681L-5,584Z" fill="#a0edff" stroke="#a0edff" stroke-width="1.51"/><path d="M1446,579L1485,514L1358,525Z" fill="#9fe9ff" stroke="#9fe9ff" stroke-width="1.51"/><path d="M1597,279L1480,194L1456,309Z" fill="#a0eeff" stroke="#a0eeff" stroke-width="1.51"/><path d="M1572,577L1485,514L1446,579Z" fill="#a0eaff" stroke="#a0eaff" stroke-width="1.51"/><path d="M64,828L56,897L159,815Z" fill="#9ff5ff" stroke="#9ff5ff" stroke-width="1.51"/><path d="M-14,895L56,897L64,828Z" fill="#9ff8ff" stroke="#9ff8ff" stroke-width="1.51"/><path d="M1050,1127L1176,1073L1088,977Z" fill="#a0f0ff" stroke="#a0f0ff" stroke-width="1.51"/><path d="M1342,974L1376,903L1256,917Z" fill="#9ff7ff" stroke="#9ff7ff" stroke-width="1.51"/><path d="M1172,-78L1268,-129L1098,-83Z" fill="#a0f2ff" stroke="#a0f2ff" stroke-width="1.51"/><path d="M860,-114L1268,-129L737,-126Z" fill="#a0ecff" stroke="#a0ecff" stroke-width="1.51"/><path d="M737,-126L1457,-136L380,-134Z" fill="#9feaff" stroke="#9feaff" stroke-width="1.51"/><path d="M1280,8L1268,-129L1172,-78Z" fill="#a0f4ff" stroke="#a0f4ff" stroke-width="1.51"/><path d="M1358,-105L1268,-129L1280,8Z" fill="#9ff6ff" stroke="#9ff6ff" stroke-width="1.51"/><path d="M1481,793L1469,679L1363,784Z" fill="#a0f3ff" stroke="#a0f3ff" stroke-width="1.51"/><path d="M1363,784L1469,679L1371,682Z" fill="#a0f1ff" stroke="#a0f1ff" stroke-width="1.51"/><path d="M157,1128L279,1128L283,1004Z" fill="#a0f3ff" stroke="#a0f3ff" stroke-width="1.51"/><path d="M345,1103L279,1128L488,1135Z" fill="#a0efff" stroke="#a0efff" stroke-width="1.51"/><path d="M157,1128L283,1004L174,982Z" fill="#a0f4ff" stroke="#a0f4ff" stroke-width="1.51"/><path d="M1374,115L1384,-4L1280,8Z" fill="#9ff5ff" stroke="#9ff5ff" stroke-width="1.51"/><path d="M1465,-7L1384,-4L1374,115Z" fill="#9ff7ff" stroke="#9ff7ff" stroke-width="1.51"/><path d="M-4,121L-68,171L56,165Z" fill="#a0f3ff" stroke="#a0f3ff" stroke-width="1.51"/><path d="M-57,282L-111,324L-48,422Z" fill="#a0ebff" stroke="#a0ebff" stroke-width="1.51"/><path d="M-56,-37L-4,121L76,18Z" fill="#9ff8ff" stroke="#9ff8ff" stroke-width="1.51"/><path d="M-147,794L-34,794L-38,681Z" fill="#a0f3ff" stroke="#a0f3ff" stroke-width="1.51"/><path d="M-38,681L-34,794L62,733Z" fill="#a0f2ff" stroke="#a0f2ff" stroke-width="1.51"/><path d="M1456,309L1480,194L1355,225Z" fill="#a0eeff" stroke="#a0eeff" stroke-width="1.51"/><path d="M1558,394L1456,309L1471,420Z" fill="#9fe9ff" stroke="#9fe9ff" stroke-width="1.51"/><path d="M1305,1001L1256,917L1182,1027Z" fill="#a0f4ff" stroke="#a0f4ff" stroke-width="1.51"/><path d="M-163,186L-111,324L-57,282Z" fill="#a0eeff" stroke="#a0eeff" stroke-width="1.51"/><path d="M-64,492L-113,596L-5,584Z" fill="#a0ebff" stroke="#a0ebff" stroke-width="1.51"/><path d="M1287,1124L1305,1001L1182,1027Z" fill="#a0f5ff" stroke="#a0f5ff" stroke-width="1.51"/><path d="M-130,485L-113,596L-64,492Z" fill="#9fe9ff" stroke="#9fe9ff" stroke-width="1.51"/><path d="M-148,420L-130,485L-48,422Z" fill="#a0e6ff" stroke="#a0e6ff" stroke-width="1.51"/><path d="M1305,1001L1342,974L1256,917Z" fill="#9ff6ff" stroke="#9ff6ff" stroke-width="1.51"/><path d="M-34,794L-14,895L64,828Z" fill="#9ff7ff" stroke="#9ff7ff" stroke-width="1.51"/><path d="M56,897L41,1010L174,982Z" fill="#9ff7ff" stroke="#9ff7ff" stroke-width="1.51"/><path d="M-105,873L-14,895L-34,794Z" fill="#9ff8ff" stroke="#9ff8ff" stroke-width="1.51"/><path d="M-111,324L-148,420L-48,422Z" fill="#a0e8ff" stroke="#a0e8ff" stroke-width="1.51"/><path d="M-130,485L-164,687L-113,596Z" fill="#a0ecff" stroke="#a0ecff" stroke-width="1.51"/><path d="M-163,186L-148,420L-111,324Z" fill="#a0ecff" stroke="#a0ecff" stroke-width="1.51"/><path d="M380,-134L64,-121L180,-125Z" fill="#a0f4ff" stroke="#a0f4ff" stroke-width="1.51"/><path d="M180,-125L64,-121L138,6Z" fill="#9ff6ff" stroke="#9ff6ff" stroke-width="1.51"/><path d="M1384,-4L1358,-105L1280,8Z" fill="#9ff7ff" stroke="#9ff7ff" stroke-width="1.51"/><path d="M1465,-7L1358,-105L1384,-4Z" fill="#9ff9ff" stroke="#9ff9ff" stroke-width="1.51"/><path d="M1502,899L1481,793L1376,903Z" fill="#9ff8ff" stroke="#9ff8ff" stroke-width="1.51"/><path d="M1376,903L1481,793L1363,784Z" fill="#9ff5ff" stroke="#9ff5ff" stroke-width="1.51"/><path d="M1572,577L1558,468L1485,514Z" fill="#a0e9ff" stroke="#a0e9ff" stroke-width="1.51"/><path d="M1485,514L1558,468L1471,420Z" fill="#a0e7ff" stroke="#a0e7ff" stroke-width="1.51"/><path d="M1572,577L1446,579L1469,679Z" fill="#a0edff" stroke="#a0edff" stroke-width="1.51"/><path d="M1558,468L1558,394L1471,420Z" fill="#a0e7ff" stroke="#a0e7ff" stroke-width="1.51"/><path d="M-14,895L41,1010L56,897Z" fill="#9ff9ff" stroke="#9ff9ff" stroke-width="1.51"/><path d="M279,1128L157,1128L488,1135Z" fill="#a0f1ff" stroke="#a0f1ff" stroke-width="1.51"/><path d="M41,1010L157,1128L174,982Z" fill="#9ff6ff" stroke="#9ff6ff" stroke-width="1.51"/><path d="M1582,191L1508,89L1480,194Z" fill="#a0f3ff" stroke="#a0f3ff" stroke-width="1.51"/><path d="M1480,194L1508,89L1374,115Z" fill="#a0f4ff" stroke="#a0f4ff" stroke-width="1.51"/><path d="M1671,327L1597,279L1558,394Z" fill="#a0ebff" stroke="#a0ebff" stroke-width="1.51"/><path d="M1574,684L1572,577L1469,679Z" fill="#a0eeff" stroke="#a0eeff" stroke-width="1.51"/><path d="M1508,89L1465,-7L1374,115Z" fill="#9ff7ff" stroke="#9ff7ff" stroke-width="1.51"/><path d="M-45,-80L-56,-37L76,18Z" fill="#9ffaff" stroke="#9ffaff" stroke-width="1.51"/><path d="M-68,171L-163,186L-57,282Z" fill="#a0f0ff" stroke="#a0f0ff" stroke-width="1.51"/><path d="M-113,596L-164,687L-38,681Z" fill="#a0efff" stroke="#a0efff" stroke-width="1.51"/><path d="M-14,895L-68,1017L41,1010Z" fill="#9ffaff" stroke="#9ffaff" stroke-width="1.51"/><path d="M-148,420L-164,687L-130,485Z" fill="#9fe9ff" stroke="#9fe9ff" stroke-width="1.51"/><path d="M1176,1073L1287,1124L1182,1027Z" fill="#a0f3ff" stroke="#a0f3ff" stroke-width="1.51"/><path d="M1305,1001L1375,1091L1342,974Z" fill="#9ff7ff" stroke="#9ff7ff" stroke-width="1.51"/><path d="M1451,1022L1502,899L1376,903Z" fill="#9ffaff" stroke="#9ffaff" stroke-width="1.51"/><path d="M1050,1127L1287,1124L1176,1073Z" fill="#a0f2ff" stroke="#a0f2ff" stroke-width="1.51"/><path d="M1673,1127L1287,1124L1050,1127Z" fill="#9ff7ff" stroke="#9ff7ff" stroke-width="1.51"/><path d="M-148,420L-163,186L-164,687Z" fill="#a0e7ff" stroke="#a0e7ff" stroke-width="1.51"/><path d="M-149,82L-163,186L-68,171Z" fill="#a0f3ff" stroke="#a0f3ff" stroke-width="1.51"/><path d="M1592,814L1574,684L1481,793Z" fill="#a0f4ff" stroke="#a0f4ff" stroke-width="1.51"/><path d="M1481,793L1574,684L1469,679Z" fill="#a0f2ff" stroke="#a0f2ff" stroke-width="1.51"/><path d="M1558,394L1597,279L1456,309Z" fill="#a0ebff" stroke="#a0ebff" stroke-width="1.51"/><path d="M1508,89L1553,16L1465,-7Z" fill="#9ff8ff" stroke="#9ff8ff" stroke-width="1.51"/><path d="M1699,430L1558,394L1558,468Z" fill="#a0e7ff" stroke="#a0e7ff" stroke-width="1.51"/><path d="M1649,513L1558,468L1572,577Z" fill="#a0e9ff" stroke="#a0e9ff" stroke-width="1.51"/><path d="M-56,-37L-149,82L-4,121Z" fill="#9ff7ff" stroke="#9ff7ff" stroke-width="1.51"/><path d="M64,-121L-45,-80L76,18Z" fill="#9ff9ff" stroke="#9ff9ff" stroke-width="1.51"/><path d="M41,1010L36,1092L157,1128Z" fill="#9ff8ff" stroke="#9ff8ff" stroke-width="1.51"/><path d="M-147,794L-105,873L-34,794Z" fill="#9ff6ff" stroke="#9ff6ff" stroke-width="1.51"/><path d="M1597,279L1582,191L1480,194Z" fill="#a0f0ff" stroke="#a0f0ff" stroke-width="1.51"/><path d="M-164,687L-147,794L-38,681Z" fill="#a0f2ff" stroke="#a0f2ff" stroke-width="1.51"/><path d="M1451,1022L1376,903L1342,974Z" fill="#9ff8ff" stroke="#9ff8ff" stroke-width="1.51"/><path d="M-162,-31L-149,82L-56,-37Z" fill="#9ffaff" stroke="#9ffaff" stroke-width="1.51"/><path d="M1582,191L1556,72L1508,89Z" fill="#a0f5ff" stroke="#a0f5ff" stroke-width="1.51"/><path d="M1465,-7L1457,-136L1358,-105Z" fill="#9ff9ff" stroke="#9ff9ff" stroke-width="1.51"/><path d="M-32,1078L36,1092L41,1010Z" fill="#9ff9ff" stroke="#9ff9ff" stroke-width="1.51"/><path d="M1287,1124L1375,1091L1305,1001Z" fill="#9ff6ff" stroke="#9ff6ff" stroke-width="1.51"/><path d="M1375,1091L1451,1022L1342,974Z" fill="#9ff8ff" stroke="#9ff8ff" stroke-width="1.51"/><path d="M1704,622L1649,513L1572,577Z" fill="#a0ebff" stroke="#a0ebff" stroke-width="1.51"/><path d="M1597,279L1667,176L1582,191Z" fill="#a0f0ff" stroke="#a0f0ff" stroke-width="1.51"/><path d="M1704,622L1572,577L1574,684Z" fill="#a0eeff" stroke="#a0eeff" stroke-width="1.51"/><path d="M1555,-101L1457,-136L1465,-7Z" fill="#9ffaff" stroke="#9ffaff" stroke-width="1.51"/><path d="M1358,-105L1457,-136L1268,-129Z" fill="#9ff8ff" stroke="#9ff8ff" stroke-width="1.51"/><path d="M1268,-129L1457,-136L737,-126Z" fill="#a0f2ff" stroke="#a0f2ff" stroke-width="1.51"/><path d="M1556,72L1553,16L1508,89Z" fill="#9ff7ff" stroke="#9ff7ff" stroke-width="1.51"/><path d="M1661,98L1553,16L1556,72Z" fill="#9ff7ff" stroke="#9ff7ff" stroke-width="1.51"/><path d="M1661,98L1556,72L1582,191Z" fill="#a0f4ff" stroke="#a0f4ff" stroke-width="1.51"/><path d="M-105,873L-68,1017L-14,895Z" fill="#9ffaff" stroke="#9ffaff" stroke-width="1.51"/><path d="M-135,1021L-68,1017L-105,873Z" fill="#9ffaff" stroke="#9ffaff" stroke-width="1.51"/><path d="M1502,899L1592,814L1481,793Z" fill="#9ff7ff" stroke="#9ff7ff" stroke-width="1.51"/><path d="M1577,894L1592,814L1502,899Z" fill="#9ff8ff" stroke="#9ff8ff" stroke-width="1.51"/><path d="M-68,1017L-32,1078L41,1010Z" fill="#9ffaff" stroke="#9ffaff" stroke-width="1.51"/><path d="M36,1092L-151,1131L157,1128Z" fill="#9ff9ff" stroke="#9ff9ff" stroke-width="1.51"/><path d="M1699,430L1671,327L1558,394Z" fill="#a0e9ff" stroke="#a0e9ff" stroke-width="1.51"/><path d="M-45,-80L-117,-96L-56,-37Z" fill="#9ffaff" stroke="#9ffaff" stroke-width="1.51"/><path d="M64,-121L-117,-96L-45,-80Z" fill="#9ffaff" stroke="#9ffaff" stroke-width="1.51"/><path d="M-117,-96L-162,-31L-56,-37Z" fill="#9ffaff" stroke="#9ffaff" stroke-width="1.51"/><path d="M-149,82L-162,-31L-163,186Z" fill="#9ff6ff" stroke="#9ff6ff" stroke-width="1.51"/><path d="M1598,1020L1577,894L1502,899Z" fill="#9ffaff" stroke="#9ffaff" stroke-width="1.51"/><path d="M1704,622L1699,430L1649,513Z" fill="#a0e9ff" stroke="#a0e9ff" stroke-width="1.51"/><path d="M1657,788L1574,684L1592,814Z" fill="#a0f4ff" stroke="#a0f4ff" stroke-width="1.51"/><path d="M1649,513L1699,430L1558,468Z" fill="#a0e7ff" stroke="#a0e7ff" stroke-width="1.51"/><path d="M1699,430L1667,176L1671,327Z" fill="#a0ecff" stroke="#a0ecff" stroke-width="1.51"/><path d="M1671,327L1667,176L1597,279Z" fill="#a0eeff" stroke="#a0eeff" stroke-width="1.51"/><path d="M1553,16L1555,-101L1465,-7Z" fill="#9ffaff" stroke="#9ffaff" stroke-width="1.51"/><path d="M1651,-82L1555,-101L1553,16Z" fill="#9ffaff" stroke="#9ffaff" stroke-width="1.51"/><path d="M1683,890L1657,788L1592,814Z" fill="#9ff7ff" stroke="#9ff7ff" stroke-width="1.51"/><path d="M-68,1017L-135,1021L-32,1078Z" fill="#9ffaff" stroke="#9ffaff" stroke-width="1.51"/><path d="M-147,794L-135,1021L-105,873Z" fill="#9ffaff" stroke="#9ffaff" stroke-width="1.51"/><path d="M-151,1131L-135,1021L-147,794Z" fill="#9ffaff" stroke="#9ffaff" stroke-width="1.51"/><path d="M1695,675L1704,622L1574,684Z" fill="#a0efff" stroke="#a0efff" stroke-width="1.51"/><path d="M1686,-16L1661,98L1667,176Z" fill="#9ff6ff" stroke="#9ff6ff" stroke-width="1.51"/><path d="M1667,176L1661,98L1582,191Z" fill="#a0f3ff" stroke="#a0f3ff" stroke-width="1.51"/><path d="M1657,788L1695,675L1574,684Z" fill="#a0f2ff" stroke="#a0f2ff" stroke-width="1.51"/><path d="M1287,1124L1502,1096L1375,1091Z" fill="#9ff8ff" stroke="#9ff8ff" stroke-width="1.51"/><path d="M1375,1091L1502,1096L1451,1022Z" fill="#9ffaff" stroke="#9ffaff" stroke-width="1.51"/><path d="M1451,1022L1598,1020L1502,899Z" fill="#9ffaff" stroke="#9ffaff" stroke-width="1.51"/><path d="M1577,894L1683,890L1592,814Z" fill="#9ff8ff" stroke="#9ff8ff" stroke-width="1.51"/><path d="M1502,1096L1598,1020L1451,1022Z" fill="#9ffaff" stroke="#9ffaff" stroke-width="1.51"/><path d="M1657,788L1683,890L1695,675Z" fill="#a0f5ff" stroke="#a0f5ff" stroke-width="1.51"/><path d="M1598,1020L1683,890L1577,894Z" fill="#9ffaff" stroke="#9ffaff" stroke-width="1.51"/><path d="M1695,675L1683,890L1704,622Z" fill="#a0f2ff" stroke="#a0f2ff" stroke-width="1.51"/><path d="M1686,-16L1651,-82L1553,16Z" fill="#9ffaff" stroke="#9ffaff" stroke-width="1.51"/><path d="M1555,-101L1651,-82L1457,-136Z" fill="#9ffaff" stroke="#9ffaff" stroke-width="1.51"/><path d="M1686,-16L1553,16L1661,98Z" fill="#9ff8ff" stroke="#9ff8ff" stroke-width="1.51"/><path d="M1699,430L1686,-16L1667,176Z" fill="#a0f1ff" stroke="#a0f1ff" stroke-width="1.51"/><path d="M1598,1020L1693,1015L1683,890Z" fill="#9ffaff" stroke="#9ffaff" stroke-width="1.51"/><path d="M1502,1096L1585,1075L1598,1020Z" fill="#9ffaff" stroke="#9ffaff" stroke-width="1.51"/><path d="M-135,1021L-151,1131L-32,1078Z" fill="#9ffaff" stroke="#9ffaff" stroke-width="1.51"/><path d="M-32,1078L-151,1131L36,1092Z" fill="#9ffaff" stroke="#9ffaff" stroke-width="1.51"/><path d="M157,1128L-151,1131L488,1135Z" fill="#a0f5ff" stroke="#a0f5ff" stroke-width="1.51"/><path d="M-164,687L-151,1131L-147,794Z" fill="#9ff8ff" stroke="#9ff8ff" stroke-width="1.51"/><path d="M1585,1075L1693,1015L1598,1020Z" fill="#9ffaff" stroke="#9ffaff" stroke-width="1.51"/><path d="M1683,890L1693,1015L1704,622Z" fill="#9ff7ff" stroke="#9ff7ff" stroke-width="1.51"/><path d="M1585,1075L1673,1127L1693,1015Z" fill="#9ffaff" stroke="#9ffaff" stroke-width="1.51"/><path d="M1502,1096L1673,1127L1585,1075Z" fill="#9ffaff" stroke="#9ffaff" stroke-width="1.51"/><path d="M1287,1124L1673,1127L1502,1096Z" fill="#9ffaff" stroke="#9ffaff" stroke-width="1.51"/><path d="M488,1135L1673,1127L1050,1127Z" fill="#a0efff" stroke="#a0efff" stroke-width="1.51"/></svg>