<?xml version="1.0" encoding="iso-8859-1"?>
<!-- Generator: Adobe Illustrator 19.0.0, SVG Export Plug-In . SVG Version: 6.00 Build 0)  -->
<svg version="1.1" id="Layer_1" xmlns="http://www.w3.org/2000/svg" xmlns:xlink="http://www.w3.org/1999/xlink" x="0px" y="0px"
	 viewBox="0 0 512 512" style="enable-background:new 0 0 512 512;" xml:space="preserve">
<path style="fill:#72331E;" d="M266.887,199.096c0-12.757,10.176-23.131,22.852-23.465v-18.197c0-2.464-1.998-4.462-4.462-4.462
	H65.261c-2.464,0-4.462,1.998-4.462,4.462v159.278h228.941v-94.151C277.063,222.226,266.887,211.854,266.887,199.096z"/>
<g>
	<path style="fill:#893D23;" d="M192.041,210.103h-90.57c-4.343,0-7.862-3.52-7.862-7.862c0-4.342,3.519-7.862,7.862-7.862h90.57
		c4.343,0,7.862,3.52,7.862,7.862C199.903,206.583,196.383,210.103,192.041,210.103z"/>
	<path style="fill:#893D23;" d="M246.969,265.032H156.4c-4.343,0-7.862-3.52-7.862-7.862c0-4.342,3.519-7.862,7.862-7.862h90.569
		c4.343,0,7.862,3.52,7.862,7.862C254.831,261.512,251.312,265.032,246.969,265.032z"/>
</g>
<circle style="fill:#FFE164;" cx="440.376" cy="250.221" r="54.476"/>
<path style="opacity:0.1;fill:#272727;enable-background:new    ;" d="M214.011,275.698c-26.809,16.07-55.405,28.89-84.232,41.013
	h159.961v-94.151c-2.77-0.073-5.418-0.626-7.869-1.577C262.53,242.732,239.025,260.704,214.011,275.698z"/>
<path style="opacity:0.1;fill:#FF9422;enable-background:new    ;" d="M425.875,197.707c-23.046,6.349-39.979,27.447-39.979,52.511
	c0,29.261,23.071,53.126,52.015,54.414c9.042-11.974,14.801-26.439,15.875-41.417C455.546,238.628,444.613,213.611,425.875,197.707z
	"/>
<circle style="fill:#FFF08C;" cx="374.063" cy="250.221" r="54.476"/>
<path style="fill:#D4F8F5;" d="M9.21,304.389h493.582c8.187,0,12.288,9.899,6.498,15.688l-34.185,34.185
	c-3.052,3.052-7.191,4.766-11.507,4.766H45.69c-4.587,0-8.96-1.934-12.044-5.329c-7.051-7.761-20.478-22.484-31.136-33.83
	C-3.002,314.001,1.159,304.389,9.21,304.389z"/>
<g>
</g>
<g>
</g>
<g>
</g>
<g>
</g>
<g>
</g>
<g>
</g>
<g>
</g>
<g>
</g>
<g>
</g>
<g>
</g>
<g>
</g>
<g>
</g>
<g>
</g>
<g>
</g>
<g>
</g>
</svg>
