<?xml version="1.0" encoding="UTF-8" standalone="no"?>
<!-- Created with Inkscape (http://www.inkscape.org/) -->

<svg
   xmlns:dc="http://purl.org/dc/elements/1.1/"
   xmlns:cc="http://creativecommons.org/ns#"
   xmlns:rdf="http://www.w3.org/1999/02/22-rdf-syntax-ns#"
   xmlns:svg="http://www.w3.org/2000/svg"
   xmlns="http://www.w3.org/2000/svg"
   xmlns:sodipodi="http://sodipodi.sourceforge.net/DTD/sodipodi-0.dtd"
   xmlns:inkscape="http://www.inkscape.org/namespaces/inkscape"
   width="28.156794mm"
   height="61.501385mm"
   viewBox="0 0 28.156793 61.501385"
   version="1.1"
   id="svg8"
   inkscape:version="0.92.2 (5c3e80d, 2017-08-06)"
   sodipodi:docname="cello.svg">
  <defs
     id="defs2" />
  <sodipodi:namedview
     id="base"
     pagecolor="#ffffff"
     bordercolor="#666666"
     borderopacity="1.0"
     inkscape:pageopacity="0.0"
     inkscape:pageshadow="2"
     inkscape:zoom="2.8"
     inkscape:cx="-66.92363"
     inkscape:cy="105.01285"
     inkscape:document-units="mm"
     inkscape:current-layer="layer1"
     showgrid="false"
     showguides="false"
     inkscape:window-width="1920"
     inkscape:window-height="986"
     inkscape:window-x="-11"
     inkscape:window-y="-11"
     inkscape:window-maximized="1" />
  <metadata
     id="metadata5">
    <rdf:RDF>
      <cc:Work
         rdf:about="">
        <dc:format>image/svg+xml</dc:format>
        <dc:type
           rdf:resource="http://purl.org/dc/dcmitype/StillImage" />
        <dc:title></dc:title>
      </cc:Work>
    </rdf:RDF>
  </metadata>
  <g
     inkscape:label="Layer 1"
     inkscape:groupmode="layer"
     id="layer1"
     transform="translate(-37.663745,-234.76746)">
    <g
       id="g3825"
       transform="translate(-11.626224,-0.53453906)">
      <path
         style="fill:#e3af94;stroke-width:0.26458335"
         d="m 55.491974,296.24619 c 0.0032,-0.32742 0.344825,-1.92434 0.759198,-3.54871 l 0.753407,-2.9534 -1.883678,-0.93334 c -3.536548,-1.75231 -5.844987,-4.75309 -5.830868,-7.57965 0.0084,-1.67775 0.519266,-2.79812 2.337007,-5.12506 0.867336,-1.1103 1.213308,-1.7956 1.213308,-2.4033 0,-1.13569 0.198464,-1.27186 1.087925,-0.74645 0.687455,0.40609 0.821122,0.40815 1.624492,0.0251 1.794656,-0.85581 3.483232,-4.51956 2.770574,-6.01139 -0.186174,-0.38973 -0.596413,-0.72588 -0.94659,-0.77566 -0.644928,-0.0917 -0.646628,-0.13856 -0.06398,-1.76424 0.156464,-0.43656 0.414898,-1.65302 0.574297,-2.70325 0.371422,-2.44717 1.251654,-3.72054 3.246525,-4.69654 1.106372,-0.5413 1.896011,-0.72161 3.312901,-0.75649 l 1.860296,-0.0458 1.458786,-4.10104 c 0.802332,-2.25557 1.995562,-5.62338 2.651621,-7.48402 l 1.192835,-3.38297 -0.680487,-0.25872 c -0.463947,-0.1764 -0.62983,-0.39073 -0.521298,-0.67356 0.08755,-0.22816 0.159188,-0.4669 0.159188,-0.53053 0,-0.0636 0.297657,-0.041 0.661459,0.0503 0.589511,0.14796 0.661851,0.0837 0.665071,-0.59027 0.002,-0.41596 0.0724,-1.0127 0.15648,-1.32609 0.114386,-0.42637 0.0098,-0.61522 -0.415535,-0.75021 -0.827793,-0.26274 -0.577057,-1.06393 0.328854,-1.05081 0.396186,0.006 0.722161,-0.0538 0.72439,-0.13229 0.0022,-0.0785 0.107406,-0.30588 0.23373,-0.50529 0.190157,-0.30018 0.534906,-0.26099 2.003522,0.22773 1.520272,0.50591 1.754063,0.66593 1.635474,1.11942 -0.09708,0.37123 0.01442,0.56908 0.373677,0.66302 0.331485,0.0867 0.512045,0.36369 0.512045,0.78553 0,0.57763 -0.08499,0.63295 -0.748546,0.48721 -0.690205,-0.15159 -0.77288,-0.0832 -1.060752,0.87764 -0.171712,0.57313 -0.48971,1.11017 -0.706661,1.19342 -0.610227,0.23416 -0.466165,0.94756 0.246028,1.21833 0.468677,0.17819 0.603199,0.3861 0.501485,0.77505 -0.109851,0.42008 -0.29151,0.50104 -0.866275,0.38609 l -0.727275,-0.14546 -1.647249,5.91229 c -0.905987,3.25177 -1.808391,6.47244 -2.005341,7.15706 l -0.358091,1.24476 1.300963,0.93465 c 1.666084,1.19696 2.762693,2.71947 3.164189,4.39309 0.268917,1.12097 0.250146,1.53238 -0.121796,2.66953 -0.241839,0.73938 -0.730738,1.80535 -1.086443,2.36882 -0.355705,0.56348 -0.648559,1.35429 -0.650788,1.75736 -0.0064,1.15988 -0.393856,1.59796 -1.052302,1.18983 -2.14087,-1.32698 -3.927228,5.23728 -1.960464,7.20404 0.22483,0.22483 0.697934,0.40878 1.051342,0.40878 0.751484,0 0.794734,0.26117 0.225531,1.36189 -0.326744,0.63185 -0.377581,1.22742 -0.234817,2.75091 0.115049,1.22775 0.06605,2.42868 -0.13293,3.25813 -0.369182,1.53892 -1.734211,3.26654 -3.152766,3.99023 -2.022748,1.03193 -5.345774,1.29478 -8.249024,0.65249 -0.651169,-0.14405 -0.727419,-0.0219 -1.984375,3.17801 -1.274476,3.24455 -1.710059,3.94575 -1.698267,2.73386 z"
         id="path3837"
         inkscape:connector-curvature="0" />
      <path
         style="fill:#d88a6f;stroke-width:0.26458335"
         d="m 59.984098,290.41372 c -0.07276,-0.0707 -0.644949,-0.19857 -1.271529,-0.28422 -0.62658,-0.0856 -2.089557,-0.65014 -3.251059,-1.25442 -6.475985,-3.36918 -7.82681,-8.01152 -3.713934,-12.76357 0.681259,-0.78714 1.105453,-1.58078 1.225876,-2.29356 0.148644,-0.87982 0.268327,-1.05371 0.620831,-0.90202 1.376021,0.59213 1.899682,0.46421 3.060919,-0.74773 2.106477,-2.19844 2.71196,-6.01836 0.953952,-6.01836 -0.769189,0 -0.832285,-0.35407 -0.262319,-1.47202 0.286328,-0.56162 0.520596,-1.51676 0.520596,-2.12254 0,-3.59465 2.368032,-5.85884 6.451847,-6.16891 l 2.086221,-0.15841 2.596036,-7.27604 c 1.42782,-4.00182 2.602379,-7.41196 2.610133,-7.57808 0.0078,-0.16613 -0.272543,-0.37399 -0.62288,-0.46192 -0.470274,-0.11803 -0.601824,-0.2943 -0.502656,-0.67352 0.111405,-0.42601 0.24558,-0.47134 0.786492,-0.26568 0.89308,0.33955 0.941484,0.32205 0.7529,-0.27213 -0.09079,-0.28604 -0.04884,-0.94102 0.09322,-1.4555 0.239223,-0.86639 0.211041,-0.94727 -0.38193,-1.0961 -0.692106,-0.17371 -0.754722,-0.30668 -0.404608,-0.85923 0.142958,-0.22562 0.436903,-0.29259 0.791001,-0.1802 0.395557,0.12555 0.613554,0.0484 0.731438,-0.25878 0.132575,-0.34549 0.369068,-0.39993 1.123176,-0.25858 1.754388,0.32886 2.65051,0.82863 2.502262,1.39554 -0.09625,0.36804 0.02856,0.55686 0.439036,0.6642 0.869138,0.22729 0.594053,1.13799 -0.311663,1.03181 -0.592304,-0.0694 -0.743628,0.0594 -1.007123,0.85785 -0.170548,0.51677 -0.458964,1.02979 -0.640924,1.14005 -0.694899,0.42109 -0.705778,1.13279 -0.02129,1.39303 0.361022,0.13726 0.656404,0.44599 0.656404,0.68606 0,0.34204 -0.168558,0.40278 -0.778958,0.2807 -0.594742,-0.11894 -0.809646,-0.0486 -0.908718,0.29766 -0.07137,0.2494 -0.992157,3.54152 -2.046198,7.31584 -1.820591,6.51918 -1.891647,6.87646 -1.420755,7.14375 1.118709,0.635 3.146973,2.73136 3.600084,3.72094 0.895377,1.95548 0.592692,3.83089 -1.088256,6.74275 -0.29271,0.50705 -0.532199,1.25659 -0.532199,1.66563 0,0.70016 -0.05186,0.73399 -0.885334,0.57764 -0.642661,-0.12057 -1.006968,-0.0445 -1.329085,0.27766 -0.834574,0.83457 -1.304977,2.10909 -1.413987,3.83109 -0.143938,2.27373 0.4459,3.53499 1.710176,3.65689 0.969318,0.0935 0.987637,0.12554 0.529167,0.92667 -0.192668,0.33667 -0.385953,1.97691 -0.463021,3.92924 -0.126558,3.20608 -0.167133,3.40086 -0.936292,4.4946 -0.53635,0.76268 -1.321036,1.4077 -2.357139,1.93758 -1.379985,0.70575 -1.865553,0.80482 -4.355375,0.88857 -1.54123,0.0518 -2.861767,0.0364 -2.934527,-0.0342 z"
         id="path3835"
         inkscape:connector-curvature="0" />
      <path
         style="fill:#7d8080;stroke-width:0.26458335"
         d="m 59.210405,290.20597 c -3.59104,-0.63192 -7.816699,-3.60782 -9.174829,-6.46134 -1.10451,-2.32064 -0.766026,-4.26561 1.185787,-6.81366 1.572422,-2.05277 1.883568,-2.6289 1.883568,-3.48769 0,-0.79487 0.07397,-0.81595 0.919404,-0.262 0.581414,0.38096 0.716701,0.37866 1.57095,-0.0267 1.64398,-0.78012 3.208091,-3.72085 3.021623,-5.68104 -0.06986,-0.73433 -0.259102,-1.00732 -0.917097,-1.32291 l -0.829079,-0.39765 0.49835,-0.92192 c 0.274092,-0.50705 0.498349,-1.34864 0.498349,-1.87021 0,-1.38862 0.710887,-3.55109 1.460082,-4.44146 0.952696,-1.13221 2.799064,-1.89737 5.086921,-2.10808 l 1.990588,-0.18334 2.596274,-7.27604 c 1.427951,-4.00182 2.602618,-7.41196 2.610372,-7.57808 0.0078,-0.16613 -0.272543,-0.37399 -0.62288,-0.46192 -0.470274,-0.11803 -0.601824,-0.2943 -0.502656,-0.67352 0.111405,-0.42601 0.24558,-0.47134 0.786492,-0.26568 0.856896,0.32579 0.829734,0.33753 0.803697,-0.34736 -0.01245,-0.32742 0.06817,-0.97786 0.179156,-1.44543 0.181963,-0.7666 0.134947,-0.86689 -0.478546,-1.02087 -0.728266,-0.18278 -0.797214,-0.31319 -0.452746,-0.85633 0.142667,-0.22496 0.465352,-0.28437 0.92199,-0.16976 0.542187,0.13608 0.702506,0.0792 0.702506,-0.24924 0,-0.5211 -0.07314,-0.52167 1.856078,0.0147 1.357406,0.37739 1.583506,0.5285 1.583506,1.05833 0,0.37865 0.156958,0.61808 0.405177,0.61808 0.458203,0 0.78453,0.63171 0.534943,1.03555 -0.105413,0.17057 -0.39496,0.17976 -0.800883,0.0254 -0.57149,-0.21727 -0.666195,-0.14957 -0.936522,0.66953 -0.165407,0.50119 -0.451415,1.00147 -0.635575,1.11173 -0.18416,0.11026 -0.403917,0.4749 -0.488349,0.81031 -0.119882,0.47624 -0.0132,0.66319 0.486973,0.85335 0.352267,0.13393 0.640486,0.43994 0.640486,0.68001 0,0.34204 -0.168559,0.40278 -0.778959,0.2807 -0.594742,-0.11894 -0.809646,-0.0486 -0.908718,0.29766 -0.07137,0.2494 -0.990662,3.53621 -2.042875,7.30403 l -1.913116,6.85057 0.768805,0.55776 c 1.704153,1.23634 2.505442,2.11669 3.178246,3.49185 0.906546,1.85292 0.78151,3.21648 -0.524151,5.71604 -0.524828,1.00474 -0.954232,2.17957 -0.954232,2.61073 0,0.76118 -0.02954,0.77921 -1.017648,0.6212 -0.891747,-0.1426 -1.088038,-0.0732 -1.586603,0.56058 -0.800398,1.01754 -1.171105,2.62102 -1.049063,4.53766 0.12115,1.90262 0.680018,2.73115 1.842237,2.73115 0.880271,0 0.89896,0.06 0.302171,0.97087 -0.35741,0.54547 -0.437481,1.20047 -0.387252,3.16782 0.07786,3.04949 -0.245554,4.3259 -1.427581,5.63426 -1.375241,1.52223 -3.202791,2.21371 -6.06897,2.29629 -1.309687,0.0377 -3.027068,-0.045 -3.816401,-0.18394 z"
         id="path3833"
         inkscape:connector-curvature="0" />
      <path
         style="fill:#cb572e;stroke-width:0.26458335"
         d="m 59.023585,290.11127 c -3.935945,-0.89144 -7.604976,-3.49173 -8.98337,-6.36664 -1.110311,-2.31577 -0.772785,-4.26284 1.181148,-6.81366 1.572422,-2.05277 1.883568,-2.6289 1.883568,-3.48769 0,-0.79487 0.07397,-0.81595 0.919404,-0.262 0.581414,0.38096 0.716701,0.37866 1.57095,-0.0267 1.64398,-0.78012 3.208091,-3.72085 3.021623,-5.68104 -0.06986,-0.73433 -0.259102,-1.00732 -0.917097,-1.32291 l -0.829079,-0.39765 0.49835,-0.92192 c 0.274092,-0.50705 0.498349,-1.34864 0.498349,-1.87021 0,-1.38862 0.710887,-3.55109 1.460082,-4.44146 0.992609,-1.17965 2.851276,-1.93179 5.165784,-2.09043 l 2.010077,-0.13777 2.627341,-7.41828 c 1.445038,-4.08005 2.662292,-7.50311 2.705011,-7.6068 0.04272,-0.10369 -0.225173,-0.26453 -0.595313,-0.35743 -0.37014,-0.0929 -0.672982,-0.3547 -0.672982,-0.58177 0,-0.31784 0.176442,-0.3741 0.7667,-0.24446 0.675938,0.14846 0.76457,0.0961 0.748712,-0.442 -0.0099,-0.33571 0.07506,-1.05688 0.188788,-1.60258 0.187255,-0.89852 0.154041,-0.99219 -0.351837,-0.99219 -0.379867,0 -0.558613,-0.1672 -0.558613,-0.52255 0,-0.4395 0.126152,-0.49732 0.79375,-0.3638 0.621432,0.12429 0.79375,0.0654 0.79375,-0.2712 0,-0.526 -0.07441,-0.52642 1.856078,0.0103 1.340253,0.37262 1.583506,0.53246 1.583506,1.0405 0,0.37324 0.205636,0.66552 0.543732,0.77282 0.754197,0.23938 0.477456,0.80528 -0.350396,0.71652 -0.565653,-0.0607 -0.727781,0.0807 -0.984279,0.85786 -0.168895,0.51175 -0.467265,1.02068 -0.663045,1.13094 -0.195779,0.11026 -0.434069,0.51271 -0.529532,0.89433 -0.148649,0.59423 -0.073,0.71909 0.526896,0.86965 0.905396,0.22724 0.710261,0.81775 -0.270229,0.81775 h -0.754501 l -1.929863,6.87916 c -1.061425,3.78355 -1.931417,7.05777 -1.933315,7.27605 -0.0019,0.21828 0.641086,0.89464 1.428855,1.50302 3.119764,2.40936 3.731195,5.09889 1.939114,8.52966 -0.545703,1.0447 -0.992187,2.25223 -0.992187,2.68339 0,0.76118 -0.02954,0.77921 -1.017648,0.6212 -0.891747,-0.1426 -1.088038,-0.0732 -1.586603,0.56058 -0.800398,1.01754 -1.171105,2.62102 -1.049063,4.53766 0.12115,1.90262 0.680018,2.73115 1.842237,2.73115 0.880271,0 0.89896,0.06 0.302171,0.97087 -0.35741,0.54547 -0.437481,1.20047 -0.387252,3.16782 0.03483,1.36409 -0.06648,2.9622 -0.225122,3.55136 -0.390563,1.45044 -1.825582,2.96708 -3.503327,3.7026 -1.727159,0.75717 -5.363157,0.94336 -7.771323,0.39795 z m 2.940335,-7.19385 c 0.678746,-1.25533 1.136033,-2.37082 1.016193,-2.47887 -0.263982,-0.23799 -3.499716,-1.32413 -3.944749,-1.32413 -0.392748,0 -0.548679,0.6398 -0.776642,3.18663 l -0.17866,1.996 1.282747,0.4261 c 0.705511,0.23435 1.30171,0.43748 1.324887,0.45139 0.02318,0.0139 0.597478,-1.00179 1.276224,-2.25712 z"
         id="path3831"
         inkscape:connector-curvature="0" />
      <path
         style="fill:#a65337;stroke-width:0.26458335"
         d="m 57.971681,289.84062 c -1.740881,-0.5274 -1.72511,-0.47407 -0.879756,-2.97496 0.426528,-1.26184 0.789318,-2.53981 0.806198,-2.83993 0.02249,-0.39984 0.06146,-0.43011 0.145798,-0.11327 0.06507,0.24446 0.62973,0.57651 1.299041,0.7639 0.651164,0.18232 1.24149,0.42461 1.311837,0.53843 0.137381,0.22229 -1.136267,4.50244 -1.423908,4.7851 -0.09506,0.0934 -0.661704,0.0217 -1.25921,-0.15927 z m 0.20211,-8.08036 c 0,-0.36381 0.06005,-0.51263 0.133452,-0.33073 0.0734,0.1819 0.0734,0.47955 0,0.66146 -0.0734,0.1819 -0.133452,0.0331 -0.133452,-0.33073 z m 0.243695,-2.31511 c -0.01403,-0.39995 0.131056,-0.59398 0.442133,-0.59126 0.285599,0.002 0.351493,0.0785 0.171964,0.19844 -0.160081,0.10691 -0.359041,0.37298 -0.442133,0.59126 -0.100948,0.26519 -0.158007,0.19935 -0.171964,-0.19844 z m 7.72609,0.19218 c -0.786267,-0.31512 -0.973577,-1.22679 -0.776672,-3.7802 0.131196,-1.70131 0.08364,-2.22423 -0.234222,-2.57546 -0.570405,-0.6303 -0.214448,-1.311 0.685554,-1.311 1.264177,0 1.596999,0.80184 1.399471,3.3716 -0.124489,1.61956 -0.07445,2.38053 0.188906,2.87261 0.254309,0.47518 0.279549,0.79419 0.08699,1.09946 -0.346281,0.54897 -0.621742,0.61487 -1.350027,0.32299 z m -9.974138,-3.25237 c -0.622998,-0.45555 -0.443705,-1.30978 0.313211,-1.49227 0.394055,-0.095 1.027328,-0.863 1.86402,-2.26056 1.145804,-1.91388 1.353528,-2.125 2.168243,-2.20364 0.620879,-0.0599 1.004313,0.0543 1.233193,0.36728 0.415283,0.56794 0.01426,1.43949 -0.66234,1.43949 -0.304688,0 -0.860064,0.69047 -1.596527,1.98487 -1.39699,2.45536 -2.203362,2.98119 -3.3198,2.16483 z m 7.988415,-7.43273 c -0.978654,-0.32142 -1.842866,-0.64789 -1.920471,-0.7255 -0.151397,-0.15139 3.711699,-11.26136 4.076135,-11.72265 0.119976,-0.15186 1.353671,-3.4908 2.741544,-7.41987 1.387873,-3.92906 2.60068,-7.33741 2.695127,-7.57412 0.1245,-0.31203 -0.01451,-0.47712 -0.505518,-0.60036 -0.372481,-0.0935 -0.677239,-0.3592 -0.677239,-0.59049 0,-0.32298 0.162934,-0.37962 0.702507,-0.2442 0.405603,0.1018 0.776408,0.0567 0.877366,-0.10661 0.121368,-0.19638 0.49327,-0.17064 1.215722,0.0841 0.92733,0.32702 1.033953,0.45417 0.977506,1.16565 -0.05242,0.66073 0.05358,0.82793 0.614108,0.96861 0.887435,0.22274 0.674641,0.81198 -0.293228,0.81198 h -0.754501 l -1.929863,6.87916 c -1.061425,3.78355 -1.927812,7.05777 -1.925304,7.27605 0.0025,0.21828 -0.743641,3.10432 -1.658106,6.41342 -1.243916,4.50125 -1.76262,6.01058 -2.05954,5.99287 -0.218281,-0.013 -1.197592,-0.28666 -2.176245,-0.60807 z m 12.192679,-30.49762 c -0.275613,-0.0722 -0.387003,-0.29592 -0.304482,-0.61148 0.11077,-0.42359 0.225637,-0.45409 0.772189,-0.20507 0.962067,0.43835 0.587121,1.09295 -0.467707,0.81655 z m -4.989351,-1.96641 c 0,-0.39964 0.118491,-0.51201 0.418515,-0.39688 0.230183,0.0883 0.527839,0.1606 0.661458,0.1606 0.133619,0 0.242944,0.1786 0.242944,0.39688 0,0.24694 -0.249884,0.39687 -0.661458,0.39687 -0.496266,0 -0.661459,-0.13922 -0.661459,-0.55747 z"
         id="path3829"
         inkscape:connector-curvature="0" />
      <path
         style="fill:#525151;stroke-width:0.26458335"
         d="m 57.774558,289.78158 c -0.989885,-0.29307 -1.254366,-0.48231 -1.156152,-0.82723 1.250313,-4.39093 1.343758,-4.59548 2.035878,-4.45644 0.367596,0.0738 0.985403,0.25509 1.372906,0.40278 l 0.704551,0.26852 -0.791593,2.46156 c -0.435376,1.35386 -0.811955,2.47714 -0.836843,2.49619 -0.02489,0.019 -0.622823,-0.13637 -1.328747,-0.34538 z m 7.900962,-10.75792 c -0.334252,-0.51013 -0.368284,-1.05203 -0.192148,-3.05964 0.173728,-1.98018 0.144295,-2.47876 -0.156257,-2.64695 -0.502321,-0.28112 -0.29211,-1.18597 0.302103,-1.3004 0.263818,-0.0508 0.723847,0.12642 1.022286,0.39383 0.498864,0.44701 0.529588,0.68755 0.381023,2.98316 -0.130745,2.02025 -0.08534,2.5812 0.237825,2.9383 0.219682,0.24274 0.324281,0.63716 0.232442,0.87649 -0.248477,0.64752 -1.35526,0.53559 -1.827274,-0.18479 z m -9.564492,-2.95195 c -0.221773,-0.57793 0.0986,-1.22791 0.560368,-1.13689 0.254958,0.0503 0.857264,-0.68359 1.671759,-2.03686 1.40395,-2.33264 2.340559,-2.9869 3.13649,-2.19097 0.516766,0.51677 0.295747,1.26368 -0.373936,1.26368 -0.317984,0 -0.832215,0.60894 -1.508179,1.78594 -0.564126,0.98227 -1.20263,1.9943 -1.418898,2.24896 -0.483198,0.56898 -1.857774,0.61295 -2.067604,0.0661 z m 8.304841,-7.1846 c -1.127787,-0.35664 -2.050521,-0.75079 -2.050521,-0.8759 0,-0.1251 1.078917,-3.24423 2.397594,-6.93139 1.318676,-3.68717 3.390921,-9.50191 4.604989,-12.92165 1.214067,-3.41974 2.285376,-6.41137 2.380687,-6.64808 0.125875,-0.31262 -0.01202,-0.47689 -0.503948,-0.60036 -0.372481,-0.0935 -0.677239,-0.33473 -0.677239,-0.5361 0,-0.39613 1.832062,-0.41008 3.2551,-0.0248 0.643724,0.17429 0.720422,0.297 0.581359,0.93016 -0.137561,0.62631 -0.0621,0.754 0.534009,0.90361 0.900628,0.22605 0.700526,0.81618 -0.276748,0.81618 H 73.90639 l -1.940461,7.01146 c -3.901108,14.09585 -5.433962,19.57858 -5.466389,19.55223 -0.01823,-0.0148 -0.955885,-0.31874 -2.083671,-0.67538 z M 76.45441,238.45794 c -0.181901,-0.0734 -0.330729,-0.30212 -0.330729,-0.50827 0,-0.20616 0.148828,-0.37301 0.330729,-0.37078 0.558462,0.007 1.070055,0.44966 0.878179,0.76012 -0.19295,0.3122 -0.347385,0.33311 -0.878179,0.11893 z m -5.093229,-1.95926 c 0,-0.44509 0.110913,-0.51291 0.595313,-0.36401 0.764575,0.23502 0.816368,0.28874 0.606192,0.62882 -0.319749,0.51736 -1.201505,0.32302 -1.201505,-0.26481 z"
         id="path3827"
         inkscape:connector-curvature="0" />
    </g>
  </g>
</svg>
