<?xml version="1.0" standalone="no"?>
<!DOCTYPE svg PUBLIC "-//W3C//DTD SVG 20010904//EN"
 "http://www.w3.org/TR/2001/REC-SVG-20010904/DTD/svg10.dtd">
<svg version="1.0" xmlns="http://www.w3.org/2000/svg"
 width="107.000000pt" height="240.000000pt" viewBox="0 0 107.000000 240.000000"
 preserveAspectRatio="xMidYMid meet">
<metadata>
Created by potrace 1.15, written by Peter Selinger 2001-2017
</metadata>
<g transform="translate(0.000000,240.000000) scale(0.100000,-0.100000)"
fill="#000000" stroke="none">
<path d="M890 2324 c0 -12 -7 -14 -30 -9 -18 4 -30 2 -30 -3 0 -6 -3 -17 -6
-26 -4 -11 2 -17 21 -22 19 -5 24 -11 20 -23 -4 -9 -9 -28 -12 -43 -4 -21 -11
-28 -29 -28 -13 0 -24 -4 -24 -9 0 -5 -3 -16 -6 -24 -3 -10 4 -17 21 -21 19
-5 26 -12 22 -24 -3 -9 -31 -89 -62 -177 -31 -88 -73 -206 -92 -261 l-36 -101
-77 -6 c-156 -10 -249 -102 -250 -246 0 -20 -9 -55 -19 -77 -20 -44 -14 -64
20 -64 69 0 4 -201 -79 -244 -23 -12 -31 -12 -52 0 -39 21 -47 17 -54 -31 -5
-33 -19 -58 -53 -97 -87 -102 -106 -198 -57 -296 43 -87 179 -193 273 -213 20
-4 56 -15 81 -24 67 -25 226 -17 298 15 61 26 114 83 130 139 7 21 12 83 12
137 0 75 4 105 16 122 21 31 11 52 -25 52 -24 0 -34 7 -46 30 -29 57 -12 183
31 231 14 16 26 19 55 14 l36 -6 5 44 c3 25 15 59 27 75 52 73 64 167 32 238
-17 37 -104 134 -120 134 -3 0 -12 4 -20 9 -12 8 -2 55 60 279 l74 269 30 -1
c24 -1 31 4 33 21 3 17 -3 24 -22 29 -26 6 -26 31 0 47 7 4 17 22 24 41 9 28
14 32 35 28 21 -4 25 -1 25 21 0 14 -7 28 -16 31 -9 3 -14 15 -12 27 3 18 -6
24 -57 40 -74 23 -95 24 -95 3z m-430 -1675 l68 -20 -40 -77 c-23 -42 -44 -80
-48 -85 -3 -4 -27 0 -52 9 -44 15 -46 17 -42 47 2 18 6 46 8 62 3 17 5 45 5
64 1 25 5 32 16 27 9 -3 47 -15 85 -27z"/>
</g>
</svg>
