<!DOCTYPE svg PUBLIC "-//W3C//DTD SVG 20010904//EN" "http://www.w3.org/TR/2001/REC-SVG-20010904/DTD/svg10.dtd">
<svg version="1.0" xmlns="http://www.w3.org/2000/svg" width="107px" height="240px" viewBox="0 0 1070 2400" preserveAspectRatio="xMidYMid meet">
<g id="layer1" fill="#a56048" stroke="none">
 <path d="M325 1920 c-4 -6 -3 -16 3 -22 6 -6 12 -6 17 2 4 6 3 16 -3 22 -6 6 -12 6 -17 -2z"/>
 <path d="M1006 211 c-4 -5 -2 -12 3 -15 5 -4 12 -2 15 3 4 5 2 12 -3 15 -5 4 -12 2 -15 -3z"/>
 </g>
<g id="layer2" fill="#828282" stroke="none">
 <path d="M425 1941 c-3 -6 -10 -9 -15 -6 -14 8 -82 -23 -75 -34 6 -10 9 -10 60 10 17 7 33 13 38 13 8 1 11 15 4 22 -3 3 -8 0 -12 -5z"/>
 </g>
<g id="layer3" fill="#807f7f" stroke="none">
 <path d="M373 1937 c-33 -12 -42 -34 -12 -30 33 4 70 23 64 33 -7 12 -11 12 -52 -3z"/>
 <path d="M1 1854 c0 -11 3 -14 6 -6 3 7 2 16 -1 19 -3 4 -6 -2 -5 -13z"/>
 <path d="M495 1831 c-4 -8 -1 -19 8 -28 19 -20 30 -1 13 22 -10 14 -15 15 -21 6z"/>
 <path d="M346 1811 c-4 -5 -2 -12 3 -15 5 -4 12 -2 15 3 4 5 2 12 -3 15 -5 4 -12 2 -15 -3z"/>
 <path d="M465 1761 c-7 -12 12 -24 25 -16 11 7 4 25 -10 25 -5 0 -11 -4 -15 -9z"/>
 </g>
<g id="layer4" fill="#828180" stroke="none">
 <path d="M422 1947 c-10 -12 -8 -17 12 -31 31 -20 42 -5 18 24 -15 19 -19 20 -30 7z"/>
 <path d="M334 1896 c-4 -10 -2 -22 4 -28 8 -8 13 -7 18 6 4 10 2 22 -4 28 -8 8 -13 7 -18 -6z"/>
 <path d="M476 1872 c-9 -15 12 -54 25 -47 12 8 11 18 -4 40 -10 12 -16 14 -21 7z"/>
 <path d="M345 1800 c-4 -6 -3 -16 3 -22 6 -6 12 -6 17 2 4 6 3 16 -3 22 -6 6 -12 6 -17 -2z"/>
 <path d="M495 1771 c-7 -12 12 -24 25 -16 11 7 4 25 -10 25 -5 0 -11 -4 -15 -9z"/>
 <path d="M435 1751 c-7 -12 12 -24 25 -16 11 7 4 25 -10 25 -5 0 -11 -4 -15 -9z"/>
 </g>
<g id="layer5" fill="#7e8182" stroke="none">
 <path d="M438 1924 c-4 -4 8 -35 27 -69 19 -34 35 -64 35 -67 0 -8 -59 -30 -92 -34 -22 -3 -28 0 -28 14 0 10 -3 22 -7 26 -4 4 -6 22 -5 41 4 38 -10 52 -29 29 -11 -13 -11 -21 2 -43 11 -19 13 -31 5 -43 -7 -12 -6 -24 2 -42 12 -27 16 -27 82 1 8 3 20 7 25 8 39 5 86 19 90 25 3 4 -2 14 -11 21 -9 7 -26 33 -39 58 -31 60 -49 84 -57 75z"/>
 </g>
<g id="layer6" fill="#e4b38e" stroke="none">
 <path d="M237 2363 c25 -101 31 -118 43 -115 11 3 11 0 1 -12 -8 -9 -10 -24 -6 -37 4 -13 8 -37 9 -53 2 -33 11 -35 65 -15 22 9 24 12 11 22 -9 7 -35 63 -60 125 -25 64 -50 112 -57 112 -10 0 -11 -8 -6 -27z m80 -210 c-4 -3 -7 0 -7 7 0 7 3 10 7 7 3 -4 3 -10 0 -14z"/>
 </g>
<g id="layer7" fill="#e0b08c" stroke="none">
 <path d="M224 2386 c-8 -22 46 -239 65 -259 23 -24 66 -9 68 23 2 23 -70 215 -89 238 -14 16 -37 15 -44 -2z"/>
 </g>
<g id="layer8" fill="#7f8081" stroke="none">
 <path d="M226 2351 c-4 -5 -2 -12 3 -15 5 -4 12 -2 15 3 4 5 2 12 -3 15 -5 4 -12 2 -15 -3z"/>
 <path d="M346 2161 c-4 -5 -2 -12 3 -15 5 -4 12 -2 15 3 4 5 2 12 -3 15 -5 4 -12 2 -15 -3z"/>
 <path d="M380 1926 c-36 -13 -55 -50 -38 -73 5 -6 11 -41 13 -77 2 -36 6 -66 10 -67 18 -2 65 14 75 26 6 8 25 17 41 20 39 9 45 25 24 65 -9 18 -18 41 -20 53 -5 24 -44 67 -59 66 -6 0 -27 -6 -46 -13z"/>
 <path d="M806 841 c-4 -5 -2 -12 3 -15 5 -4 12 -2 15 3 4 5 2 12 -3 15 -5 4 -12 2 -15 -3z"/>
 </g>
<g id="layer9" fill="#4d4d4d" stroke="none">
 <path d="M345 2144 c-16 -7 -40 -13 -52 -14 -12 0 -24 -3 -26 -7 -5 -10 51 -195 64 -207 9 -10 85 9 105 25 9 7 4 36 -18 107 -17 53 -33 100 -36 103 -4 4 -20 0 -37 -7z"/>
 <path d="M1 1744 c0 -11 3 -14 6 -6 3 7 2 16 -1 19 -3 4 -6 -2 -5 -13z"/>
 <path d="M621 1724 c-20 -25 -21 -35 -15 -111 5 -62 3 -91 -7 -109 -27 -51 24 -83 68 -42 25 22 25 26 20 118 -5 79 -3 98 11 113 21 23 6 51 -30 55 -18 2 -32 -5 -47 -24z"/>
 <path d="M26 1681 c-4 -5 -2 -12 3 -15 5 -4 12 -2 15 3 4 5 2 12 -3 15 -5 4 -12 2 -15 -3z"/>
 <path d="M756 1661 c-4 -5 -2 -12 3 -15 5 -4 12 -2 15 3 4 5 2 12 -3 15 -5 4 -12 2 -15 -3z"/>
 <path d="M255 1610 c-17 -19 -17 -21 0 -40 10 -11 24 -20 31 -20 7 0 27 -25 44 -55 64 -112 105 -139 145 -95 20 23 14 50 -15 57 -11 3 -36 33 -57 67 -20 33 -45 71 -56 84 -25 27 -68 29 -92 2z"/>
 <path d="M126 1531 c-4 -5 -2 -12 3 -15 5 -4 12 -2 15 3 4 5 2 12 -3 15 -5 4 -12 2 -15 -3z"/>
 <path d="M746 1511 c-4 -5 -2 -12 3 -15 5 -4 12 -2 15 3 4 5 2 12 -3 15 -5 4 -12 2 -15 -3z"/>
 <path d="M572 1343 c-41 -14 -76 -31 -78 -38 -3 -7 29 -109 70 -227 42 -118 76 -221 76 -229 0 -7 16 -57 34 -109 19 -52 59 -165 89 -250 30 -85 58 -163 62 -172 5 -13 0 -20 -20 -28 -21 -8 -25 -14 -20 -33 12 -37 21 -41 77 -29 79 16 107 29 117 55 5 14 17 27 25 30 36 14 6 74 -33 64 -16 -4 -26 23 -86 242 -37 135 -74 260 -81 276 -7 17 -38 120 -69 230 -59 212 -70 245 -82 244 -5 0 -41 -12 -81 -26z"/>
 <path d="M891 986 c-7 -8 -8 -17 -3 -20 6 -3 15 1 21 8 7 8 8 17 3 20 -6 3 -15 -1 -21 -8z"/>
 <path d="M476 871 c-4 -5 -2 -12 3 -15 5 -4 12 -2 15 3 4 5 2 12 -3 15 -5 4 -12 2 -15 -3z"/>
 <path d="M846 201 c-4 -5 -2 -12 3 -15 5 -4 12 -2 15 3 4 5 2 12 -3 15 -5 4 -12 2 -15 -3z"/>
 <path d="M1022 198 c-27 -27 -2 -75 32 -62 24 9 22 74 -2 74 -10 0 -23 -5 -30 -12z"/>
 <path d="M826 137 c-14 -10 -15 -17 -6 -41 9 -24 14 -27 38 -21 40 10 47 21 34 50 -13 27 -38 32 -66 12z"/>
 </g>
<g id="layer10" fill="#cc582f" stroke="none">
 <path d="M393 2160 c-13 -5 -23 -12 -23 -16 0 -32 62 -198 102 -272 28 -51 48 -95 47 -96 -13 -11 -142 -47 -147 -41 -4 4 -12 48 -19 99 -11 89 -57 261 -75 281 -16 17 -119 -46 -189 -115 -52 -51 -68 -75 -77 -112 -27 -108 -7 -195 63 -277 28 -33 47 -65 50 -89 11 -61 13 -65 38 -57 64 20 77 18 110 -17 34 -37 67 -115 67 -160 0 -22 -7 -31 -35 -42 -41 -17 -41 -19 -15 -71 11 -22 20 -56 20 -76 0 -146 104 -246 264 -257 49 -3 76 -1 80 7 4 6 -27 108 -69 227 -42 119 -73 220 -68 224 14 13 132 49 136 42 2 -4 30 -101 62 -217 32 -116 62 -216 68 -222 22 -29 142 74 178 152 32 69 19 164 -32 236 -11 16 -24 51 -28 77 l-6 47 -45 0 c-43 0 -46 2 -67 45 -16 30 -23 62 -23 101 0 81 12 109 49 109 43 0 59 24 38 60 -13 21 -17 52 -17 125 0 119 -12 164 -61 219 -58 66 -121 89 -249 93 -58 1 -115 -1 -127 -7z m297 -444 c0 -7 -7 -19 -15 -26 -12 -10 -13 -30 -8 -106 6 -99 -1 -124 -38 -124 -21 0 -27 34 -8 46 8 5 10 34 5 96 -3 55 -2 97 4 109 12 22 60 26 60 5z m-307 -193 c35 -59 55 -83 69 -83 13 0 18 -6 16 -17 -2 -13 -13 -18 -33 -18 -27 0 -35 9 -78 80 -26 44 -55 82 -65 83 -47 10 -37 45 11 40 27 -3 37 -13 80 -85z"/>
 <path d="M915 263 c-27 -9 -56 -17 -64 -19 -16 -5 -8 -62 15 -106 8 -15 14 -39 14 -53 0 -36 22 -40 98 -18 54 16 68 25 70 42 2 12 -1 27 -6 34 -5 7 -13 30 -16 52 -9 46 -31 85 -49 84 -6 0 -34 -8 -62 -16z"/>
 </g>

</svg>