<?xml version="1.0" encoding="iso-8859-1"?>
<!-- Generator: Adobe Illustrator 19.0.0, SVG Export Plug-In . SVG Version: 6.00 Build 0)  -->
<svg version="1.1" id="Layer_1" xmlns="http://www.w3.org/2000/svg" xmlns:xlink="http://www.w3.org/1999/xlink" x="0px" y="0px"
	 viewBox="0 0 511.999 511.999" style="enable-background:new 0 0 511.999 511.999;" xml:space="preserve">
<path style="fill:#DD263D;" d="M171.838,176.61l-42.802,6.706L87.34,176.61l34.982-63.996c3.141-5.746,11.394-5.746,14.533,0
	L171.838,176.61z"/>
<path style="fill:#E44F50;" d="M171.502,511.999H92.951c-3.283,0-5.946-2.662-5.946-5.946V176.61h84.497V511.999z"/>
<rect x="136.629" y="176.611" style="fill:#DD263D;" width="40.237" height="335.386"/>
<rect x="87.005" y="232.688" style="fill:#FBD6DB;" width="84.497" height="206.548"/>
<path style="fill:#EF9325;" d="M256.335,68.306l-41.347,6.706l-43.15-6.706l34.982-63.996c3.141-5.746,11.394-5.746,14.534,0
	L256.335,68.306z"/>
<rect x="171.501" y="68.306" style="fill:#F5BA3D;" width="84.497" height="443.69"/>
<rect x="221.126" y="117.262" style="fill:#EF9325;" width="41.578" height="394.735"/>
<path style="fill:#00AF64;" d="M340.496,118.376l-41.558,6.706l-42.939-6.706l34.982-63.996c3.141-5.746,11.394-5.746,14.534,0
	L340.496,118.376z"/>
<rect x="255.998" y="118.375" style="fill:#49C158;" width="84.497" height="393.622"/>
<rect x="87.005" y="217.035" style="fill:#DD263D;" width="84.497" height="15.648"/>
<rect x="221.126" y="68.304" style="fill:#EF9325;" width="34.872" height="443.69"/>
<rect x="305.623" y="118.375" style="fill:#00AF64;" width="42.249" height="393.622"/>
<rect x="87.005" y="439.236" style="fill:#DD263D;" width="84.497" height="15.648"/>
<g>
	<rect x="136.629" y="217.035" style="fill:#B51622;" width="34.872" height="15.648"/>
	<rect x="136.629" y="439.236" style="fill:#B51622;" width="34.872" height="15.648"/>
</g>
<rect x="136.629" y="232.688" style="fill:#EDC3CE;" width="34.872" height="206.548"/>
<path style="fill:#447BCC;" d="M424.993,95.738l-41.343,5.365l-43.154-5.365l34.982-63.996c3.141-5.746,11.394-5.746,14.534,0
	L424.993,95.738z"/>
<path style="fill:#588EED;" d="M419.047,511.999h-78.551V95.738h84.497v410.315C424.993,509.336,422.331,511.999,419.047,511.999z"
	/>
<path style="fill:#447BCC;" d="M390.179,95.738v410.315c0,3.283-3.141,5.946-7.016,5.946h34.814c3.875,0,7.016-2.662,7.016-5.946
	V95.738H390.179z"/>
<rect x="171.501" y="232.688" style="fill:#F9F9D7;" width="84.497" height="206.548"/>
<g>
	<rect x="171.501" y="217.035" style="fill:#F47D20;" width="84.497" height="15.648"/>
	<rect x="171.501" y="439.236" style="fill:#F47D20;" width="84.497" height="15.648"/>
</g>
<rect x="255.998" y="232.688" style="fill:#E0F7DA;" width="84.497" height="206.548"/>
<g>
	<rect x="255.998" y="217.035" style="fill:#00AF64;" width="84.497" height="15.648"/>
	<rect x="255.998" y="439.236" style="fill:#00AF64;" width="84.497" height="15.648"/>
</g>
<rect x="340.495" y="232.688" style="fill:#D0DDF4;" width="84.497" height="206.548"/>
<g>
	<rect x="340.495" y="217.035" style="fill:#447BCC;" width="84.497" height="15.648"/>
	<rect x="340.495" y="439.236" style="fill:#447BCC;" width="84.497" height="15.648"/>
</g>
<g>
	<rect x="221.126" y="217.035" style="fill:#DD6B1F;" width="34.872" height="15.648"/>
	<rect x="221.126" y="439.236" style="fill:#DD6B1F;" width="34.872" height="15.648"/>
</g>
<rect x="221.126" y="232.688" style="fill:#EFECCA;" width="34.872" height="206.548"/>
<g>
	<rect x="305.623" y="217.035" style="fill:#009652;" width="34.872" height="15.648"/>
	<rect x="305.623" y="439.236" style="fill:#009652;" width="34.872" height="15.648"/>
</g>
<rect x="305.623" y="232.688" style="fill:#CBE5C6;" width="34.872" height="206.548"/>
<g>
	<rect x="390.12" y="217.035" style="fill:#447BCC;" width="34.872" height="15.648"/>
	<rect x="390.12" y="439.236" style="fill:#447BCC;" width="34.872" height="15.648"/>
</g>
<rect x="390.12" y="232.688" style="fill:#BACAE0;" width="34.872" height="206.548"/>
<g>
	<circle style="fill:#58595B;" cx="128.756" cy="300.218" r="10.059"/>
	<circle style="fill:#58595B;" cx="128.756" cy="334.634" r="10.059"/>
	<circle style="fill:#58595B;" cx="128.756" cy="369.063" r="10.059"/>
	<circle style="fill:#58595B;" cx="213.253" cy="300.218" r="10.059"/>
	<circle style="fill:#58595B;" cx="213.253" cy="334.634" r="10.059"/>
	<circle style="fill:#58595B;" cx="213.253" cy="369.063" r="10.059"/>
	<circle style="fill:#58595B;" cx="297.75" cy="300.218" r="10.059"/>
	<circle style="fill:#58595B;" cx="297.75" cy="334.634" r="10.059"/>
	<circle style="fill:#58595B;" cx="297.75" cy="369.063" r="10.059"/>
	<circle style="fill:#58595B;" cx="383.589" cy="300.218" r="10.059"/>
	<circle style="fill:#58595B;" cx="383.589" cy="334.634" r="10.059"/>
	<circle style="fill:#58595B;" cx="383.589" cy="369.063" r="10.059"/>
</g>
<g>
</g>
<g>
</g>
<g>
</g>
<g>
</g>
<g>
</g>
<g>
</g>
<g>
</g>
<g>
</g>
<g>
</g>
<g>
</g>
<g>
</g>
<g>
</g>
<g>
</g>
<g>
</g>
<g>
</g>
</svg>
