<?xml version="1.0" encoding="iso-8859-1"?>
<!-- Generator: Adobe Illustrator 19.0.0, SVG Export Plug-In . SVG Version: 6.00 Build 0)  -->
<svg version="1.1" id="Capa_1" xmlns="http://www.w3.org/2000/svg" xmlns:xlink="http://www.w3.org/1999/xlink" x="0px" y="0px"
	 viewBox="0 0 512 512" style="enable-background:new 0 0 512 512;" xml:space="preserve">
<polygon style="fill:#994C00;" points="463.376,300.984 402.942,512 109.059,512 48.624,300.984 "/>
<g>
	<polygon style="fill:#FFB64F;" points="197.325,512 167.073,512 141.621,317.935 171.363,314.035 	"/>
	<rect x="240.999" y="315.985" style="fill:#FFB64F;" width="30.002" height="196.015"/>
	<polygon style="fill:#FFB64F;" points="370.379,317.935 344.927,512 314.675,512 340.637,314.035 	"/>
</g>
<polygon style="fill:#703700;" points="463.376,300.984 402.942,512 256,512 256,300.984 "/>
<g>
	<rect x="256" y="315.985" style="fill:#FF9900;" width="15.001" height="196.015"/>
	<polygon style="fill:#FF9900;" points="370.379,317.935 344.927,512 314.675,512 340.637,314.035 	"/>
</g>
<path style="fill:#FF738D;" d="M493.029,270.861c0,33.153-26.972,60.125-60.125,60.125H79.096
	c-33.153,0-60.125-26.972-60.125-60.125c0-30.062,22.182-55.034,51.034-59.435c10.351-38.343,32.613-72.976,63.505-98.458
	C167.873,84.627,211.377,69.015,256,69.015s88.127,15.611,122.49,43.953c30.892,25.482,53.154,60.115,63.505,98.458
	C470.847,215.827,493.029,240.799,493.029,270.861z"/>
<path style="fill:#FF0435;" d="M305.514,49.504c0,27.302-22.212,49.514-49.514,49.514c-27.302,0-49.514-22.212-49.514-49.514
	C206.486,22.212,228.698,0,256,0C283.302,0,305.514,22.212,305.514,49.504z"/>
<path style="fill:#FF3B62;" d="M493.029,270.861c0,33.153-26.972,60.125-60.125,60.125H256V69.015
	c44.623,0,88.127,15.611,122.49,43.953c30.892,25.482,53.154,60.115,63.505,98.458C470.847,215.827,493.029,240.799,493.029,270.861
	z"/>
<path style="fill:#C1001B;" d="M305.514,49.504c0,27.302-22.212,49.514-49.514,49.514V0C283.302,0,305.514,22.212,305.514,49.504z"
	/>
<g>
	<rect x="147.322" y="150.732" style="fill:#FFDAA8;" width="30.002" height="30.002"/>
	<rect x="256" y="125.3" style="fill:#FFDAA8;" width="30.002" height="30.002"/>
	<rect x="237.459" y="232.738" style="fill:#FFDAA8;" width="30.002" height="30.002"/>
	<rect x="105.318" y="246.629" style="fill:#FFDAA8;" width="30.002" height="30.002"/>
</g>
<g>
	<rect x="368.909" y="255.05" style="fill:#FFC373;" width="30.002" height="30.002"/>
	<rect x="338.906" y="145.461" style="fill:#FFC373;" width="30.002" height="30.002"/>
	<rect x="256" y="232.738" style="fill:#FFC373;" width="11.461" height="30.002"/>
</g>
<g>
</g>
<g>
</g>
<g>
</g>
<g>
</g>
<g>
</g>
<g>
</g>
<g>
</g>
<g>
</g>
<g>
</g>
<g>
</g>
<g>
</g>
<g>
</g>
<g>
</g>
<g>
</g>
<g>
</g>
</svg>
