<?xml version="1.0" encoding="iso-8859-1"?>
<!-- Generator: Adobe Illustrator 19.0.0, SVG Export Plug-In . SVG Version: 6.00 Build 0)  -->
<svg version="1.1" id="Capa_1" xmlns="http://www.w3.org/2000/svg" xmlns:xlink="http://www.w3.org/1999/xlink" x="0px" y="0px"
	 viewBox="0 0 512.001 512.001" style="enable-background:new 0 0 512.001 512.001;" xml:space="preserve">
<polygon style="fill:#FFB64F;" points="463.353,301.008 402.925,512 109.076,512 48.648,301.008 "/>
<polygon style="fill:#FF9900;" points="463.353,301.008 402.925,512 256,512 256,301.008 "/>
<g>
	<polygon style="fill:#FFDAA8;" points="167.084,512 141.635,317.957 171.374,314.057 197.333,512 	"/>
	<rect x="241.002" y="316.008" style="fill:#FFDAA8;" width="29.999" height="195.993"/>
	<polygon style="fill:#FFDAA8;" points="370.366,317.957 344.917,512 314.668,512 340.627,314.057 	"/>
</g>
<g>
	<rect x="256.001" y="316.008" style="fill:#FFC373;" width="14.999" height="195.993"/>
	<polygon style="fill:#FFC373;" points="370.366,317.957 344.917,512 314.668,512 340.627,314.057 	"/>
</g>
<g>
	<path style="fill:#994C00;" d="M270.999,54.95L271,54.775l-29.999,0.119c-0.009-2.313,0.373-23.043,16.364-38.766
		c11.289-11.098,26.929-16.519,46.456-16.106l-0.629,29.992c-13.73-0.292-22.852,3.434-27.919,11.379
		C271.193,47.791,271.001,54.879,270.999,54.95z"/>
	<path style="fill:#994C00;" d="M478.652,270.889c0,33.149-26.969,60.118-60.118,60.118H93.467
		c-33.149,0-60.118-26.969-60.118-60.118s26.969-60.118,60.118-60.118h325.068C451.683,210.771,478.652,237.74,478.652,270.889z"/>
</g>
<path style="fill:#703700;" d="M478.652,270.889c0,33.149-26.969,60.118-60.118,60.118H256.001V210.771h162.534
	C451.683,210.771,478.652,237.74,478.652,270.889z"/>
<path style="fill:#BF6100;" d="M411.905,180.662c0,33.149-26.969,60.108-60.118,60.108H160.214
	c-33.149,0-60.118-26.959-60.118-60.108s26.969-60.118,60.118-60.118h191.573C384.936,120.544,411.905,147.513,411.905,180.662z"/>
<path style="fill:#FF0435;" d="M311.358,95.185c0,30.529-24.839,55.358-55.358,55.358s-55.358-24.829-55.358-55.358
	c0-30.519,24.839-55.348,55.358-55.348S311.358,64.667,311.358,95.185z"/>
<path style="fill:#994C00;" d="M351.787,240.77H256V120.544h95.786c33.149,0,60.118,26.969,60.118,60.118
	S384.936,240.77,351.787,240.77z"/>
<path style="fill:#C1001B;" d="M256,150.543V39.837c30.519,0,55.358,24.829,55.358,55.348
	C311.358,125.714,286.519,150.543,256,150.543z"/>
<g>
</g>
<g>
</g>
<g>
</g>
<g>
</g>
<g>
</g>
<g>
</g>
<g>
</g>
<g>
</g>
<g>
</g>
<g>
</g>
<g>
</g>
<g>
</g>
<g>
</g>
<g>
</g>
<g>
</g>
</svg>
