<?xml version="1.0" encoding="iso-8859-1"?>
<!-- Generator: Adobe Illustrator 19.0.0, SVG Export Plug-In . SVG Version: 6.00 Build 0)  -->
<svg version="1.1" id="Layer_1" xmlns="http://www.w3.org/2000/svg" xmlns:xlink="http://www.w3.org/1999/xlink" x="0px" y="0px"
	 viewBox="0 0 353.019 353.019" style="enable-background:new 0 0 353.019 353.019;" xml:space="preserve">
<g>
	<g>
		<polygon style="fill:#D85C72;" points="279.646,203.303 73.373,203.303 98.507,353.019 254.509,353.019 		"/>
		<polygon style="fill:#B04C5C;" points="199.283,203.303 153.736,203.303 159.236,353.019 193.783,353.019 		"/>
		<polygon style="fill:#B04C5C;" points="279.492,203.303 256.873,203.303 237.469,353.019 254.626,353.019 		"/>
		<polygon style="fill:#B04C5C;" points="73.525,203.303 96.142,203.303 115.548,353.019 98.392,353.019 		"/>
	</g>
	<path style="fill:#4D3D2E;" d="M286.017,157.795c-15.469-45.627-58.653-78.464-109.508-78.464s-94.039,32.837-109.51,78.464
		c-19.245,4.103-33.686,21.195-33.686,41.667c0,23.532,19.076,42.609,42.609,42.609c13.615,0,25.729-6.393,33.527-16.332
		c7.803,9.939,19.916,16.332,33.529,16.332c13.615,0,25.729-6.393,33.529-16.332c7.801,9.939,19.914,16.332,33.527,16.332
		c13.615,0,25.73-6.393,33.529-16.332c7.801,9.939,19.915,16.332,33.529,16.332c23.533,0,42.609-19.077,42.609-42.609
		C319.705,178.99,305.264,161.897,286.017,157.795z"/>
	<g>
		<rect x="165.332" y="56.965" style="fill:#EED898;" width="22.352" height="38.839"/>
		<path style="fill:#FFB819;" d="M193.03,35.214C193.03,26.09,176.509,0,176.509,0s-16.52,26.09-16.52,35.214
			c0,9.124,7.396,16.521,16.52,16.521C185.633,51.735,193.03,44.338,193.03,35.214z"/>
	</g>
	<circle style="fill:#00BCB4;" cx="103.674" cy="144.978" r="11.874"/>
	<circle style="fill:#00BCB4;" cx="221.912" cy="209.989" r="11.875"/>
	<circle style="fill:#00BCB4;" cx="234.486" cy="113.965" r="11.875"/>
	<circle style="fill:#00BCB4;" cx="167.429" cy="177.525" r="11.874"/>
	<circle style="fill:#FFB819;" cx="59.856" cy="184.228" r="11.874"/>
	<circle style="fill:#FFB819;" cx="137.288" cy="111.869" r="11.874"/>
	<circle style="fill:#FFB819;" cx="243.232" cy="162.024" r="11.875"/>
	<circle style="fill:#D85C72;" cx="118.532" cy="199.462" r="11.875"/>
	<circle style="fill:#D85C72;" cx="292.115" cy="183.217" r="11.875"/>
	<circle style="fill:#D85C72;" cx="193.029" cy="137.134" r="11.874"/>
</g>
<g>
</g>
<g>
</g>
<g>
</g>
<g>
</g>
<g>
</g>
<g>
</g>
<g>
</g>
<g>
</g>
<g>
</g>
<g>
</g>
<g>
</g>
<g>
</g>
<g>
</g>
<g>
</g>
<g>
</g>
</svg>
