<?xml version="1.0" encoding="UTF-8" standalone="no"?>
<!-- Created with Inkscape (http://www.inkscape.org/) -->

<svg
   xmlns:dc="http://purl.org/dc/elements/1.1/"
   xmlns:cc="http://creativecommons.org/ns#"
   xmlns:rdf="http://www.w3.org/1999/02/22-rdf-syntax-ns#"
   xmlns:svg="http://www.w3.org/2000/svg"
   xmlns="http://www.w3.org/2000/svg"
   xmlns:sodipodi="http://sodipodi.sourceforge.net/DTD/sodipodi-0.dtd"
   xmlns:inkscape="http://www.inkscape.org/namespaces/inkscape"
   width="39.707523mm"
   height="25.56266mm"
   viewBox="0 0 39.707523 25.56266"
   version="1.1"
   id="svg8"
   inkscape:version="0.92.2 (5c3e80d, 2017-08-06)"
   sodipodi:docname="flute.svg">
  <defs
     id="defs2" />
  <sodipodi:namedview
     id="base"
     pagecolor="#ffffff"
     bordercolor="#666666"
     borderopacity="1.0"
     inkscape:pageopacity="0.0"
     inkscape:pageshadow="2"
     inkscape:zoom="3.959798"
     inkscape:cx="56.890415"
     inkscape:cy="93.164002"
     inkscape:document-units="mm"
     inkscape:current-layer="layer1"
     showgrid="false"
     showguides="false"
     inkscape:window-width="1920"
     inkscape:window-height="986"
     inkscape:window-x="-11"
     inkscape:window-y="-11"
     inkscape:window-maximized="1" />
  <metadata
     id="metadata5">
    <rdf:RDF>
      <cc:Work
         rdf:about="">
        <dc:format>image/svg+xml</dc:format>
        <dc:type
           rdf:resource="http://purl.org/dc/dcmitype/StillImage" />
        <dc:title></dc:title>
      </cc:Work>
    </rdf:RDF>
  </metadata>
  <g
     inkscape:label="Layer 1"
     inkscape:groupmode="layer"
     id="layer1"
     transform="translate(12.5243,-278.09252)">
    <g
       id="g4046"
       transform="translate(-8.1517206,-0.7349912)">
      <path
         style="fill:#8ea5b3;stroke-width:0.26458335"
         d="M 30.817005,303.48956 C 28.338497,302.09821 8.4857938,290.68989 4.8878374,288.5894 3.2143478,287.61241 0.44614462,286.00832 -1.2637252,285.02476 l -3.1088543,-1.78831 v -1.05729 c 0,-1.26227 0.5950577,-2.36267 1.5980392,-2.95515 0.958277,-0.56607 1.1365074,-0.5504 2.33339278,0.20516 0.55577477,0.35085 3.38114302,2.00228 6.27859652,3.66984 2.8974532,1.66757 10.14966,5.86168 16.116014,9.32025 5.966354,3.45857 11.321778,6.55667 11.900943,6.88465 1.645951,0.93212 1.678874,1.14293 0.499205,3.19645 -0.575138,1.00118 -1.219205,1.85054 -1.431261,1.88747 -0.212053,0.0369 -1.15946,-0.36729 -2.105345,-0.89827 z"
         id="path4060"
         inkscape:connector-curvature="0" />
      <path
         style="fill:#869ca9;stroke-width:0.26458335"
         d="M 31.83182,303.96138 C 31.346431,303.7081 28.508515,302.09126 25.525338,300.3684 9.5423997,291.13786 6.1319419,289.17315 0.32377482,285.85023 -4.3613712,283.16979 -4.3725771,283.16116 -4.3715905,282.2341 c 0.00116,-1.10073 0.7549016,-2.43871 1.7359099,-3.08149 0.6796643,-0.44533 0.7436842,-0.44002 1.86471486,0.15468 0.63848749,0.33872 1.16044137,0.6886 1.15989738,0.77752 -5.5562e-4,0.0889 -0.22589596,0.5305 -0.50078244,0.98129 l -0.49979343,0.81961 0.74715451,0.44136 c 0.47419949,0.28012 0.80784173,0.34316 0.91327242,0.17257 0.4244837,-0.68683 2.516138,0.40538 2.516138,1.31386 0,0.32703 0.6193174,0.84534 1.8753255,1.56948 1.0314289,0.59467 1.9759055,1.08121 2.098837,1.08121 0.1229315,0 0.2956771,-0.22737 0.3838792,-0.50527 0.3250816,-1.02424 0.8443201,-1.18058 1.8521961,-0.55768 1.0476675,0.64749 1.0899915,0.78663 0.5543615,1.82243 l -0.3791518,0.73319 2.7726728,1.62585 c 2.253905,1.32165 2.918764,1.59662 3.553495,1.46968 0.920427,-0.18409 1.575885,0.26019 1.575885,1.06815 0,0.67677 1.239015,1.30485 2.633337,1.33489 0.780622,0.0168 1.005316,0.1592 1.335413,0.84619 0.506262,1.05362 1.599891,1.71745 2.239621,1.35944 0.656723,-0.36752 1.676043,0.15679 1.879309,0.96666 0.234239,0.93329 1.284748,1.55369 2.265898,1.3382 0.884282,-0.19422 1.817256,0.41701 1.817256,1.19056 0,0.24169 0.49453,0.71738 1.098955,1.05708 1.179499,0.66292 1.145989,0.67453 1.962827,-0.68025 0.267721,-0.44403 0.338336,-0.43667 1.256771,0.13096 0.535212,0.33077 0.973114,0.69826 0.973114,0.81663 0,0.39759 -1.980915,3.699 -2.292477,3.82067 -0.169458,0.0662 -0.705239,-0.0869 -1.190625,-0.34019 z m -1.092031,-2.96456 c -0.610487,-0.38008 -1.325081,-0.63481 -1.58799,-0.56606 -0.361899,0.0946 -0.137377,0.33117 0.924325,0.97374 0.907989,0.54955 1.467784,0.74909 1.587989,0.56606 0.106934,-0.16282 -0.284996,-0.5757 -0.924324,-0.97374 z m -3.362368,-1.55003 c 0,-0.34747 -1.451432,-1.34093 -1.959073,-1.34093 -0.69035,0 -0.480417,0.35947 0.572601,0.98047 1.101606,0.64966 1.386472,0.72372 1.386472,0.36046 z m -4.15944,-2.40986 c -0.171741,-0.65674 -1.544302,-1.41387 -2.145139,-1.18331 -0.328432,0.12603 -0.110413,0.35219 0.883777,0.91678 0.725869,0.41221 1.338379,0.76226 1.361136,0.77788 0.02275,0.0156 -0.02214,-0.21448 -0.09977,-0.51135 z m -3.949589,-2.30798 c -0.158247,-0.60514 -1.568094,-1.41214 -2.106256,-1.20563 -0.312655,0.11998 -0.129091,0.34553 0.731783,0.89915 1.37052,0.88138 1.534366,0.91791 1.374473,0.30648 z m -4.061804,-2.44393 c 0,-0.29104 -0.112353,-0.52916 -0.249674,-0.52916 -0.13732,0 -1.395371,-0.67076 -2.795669,-1.49058 -1.632368,-0.95569 -2.6374423,-1.39914 -2.8008267,-1.23575 -0.1633845,0.16338 0.8161037,0.88603 2.7295237,2.0138 1.641395,0.96744 3.01412,1.76165 3.0505,1.76492 0.03638,0.003 0.06615,-0.23219 0.06615,-0.52323 z m -8.2020838,-4.74955 c 0,-0.1384 -0.7728464,-0.68383 -1.7174364,-1.21208 -0.9445901,-0.52824 -1.7886273,-1.07563 -1.8756385,-1.21642 -0.097861,-0.15834 -0.3012826,-0.13723 -0.5333288,0.0554 -0.3068463,0.25466 -0.025643,0.51946 1.5449095,1.45477 1.9333198,1.15134 2.5814942,1.38194 2.5814942,0.91838 z m -6.61458354,-3.67464 c 0,-0.56608 -1.27748272,-1.25207 -1.64578086,-0.88378 -0.1857635,0.18577 0.92037112,1.13009 1.57963502,1.34855 0.0363802,0.0121 0.0661458,-0.19709 0.0661458,-0.46477 z"
         id="path4058"
         inkscape:connector-curvature="0" />
      <path
         style="fill:#748998;stroke-width:0.26458335"
         d="M 31.875338,303.94848 C 30.960208,303.4899 10.5542,291.75274 5.6717598,288.87666 c -1.3878531,-0.81753 -4.2138488,-2.43893 -6.27999038,-3.6031 -3.71089992,-2.0909 -3.75665612,-2.12793 -3.75949592,-3.0427 -0.00366,-1.17994 0.7983242,-2.5003 1.8485544,-3.0434 0.7750799,-0.40081 0.8703892,-0.39204 1.79763794,0.1654 0.53853981,0.32375 1.01431198,0.61303 1.05727185,0.64285 0.0429599,0.0298 -0.33307153,0.75256 -0.83562509,1.60609 -0.5025538,0.85353 -0.8575747,1.64275 -0.7889351,1.75381 0.068639,0.11106 0.47443626,0.38273 0.90177089,0.60371 0.67773632,0.35048 0.77697227,0.35212 0.77697227,0.0129 0,-0.21391 0.28002733,-0.71447 0.62228304,-1.11237 l 0.6222834,-0.72344 0.8982062,0.52458 c 1.1046145,0.64513 1.2340363,1.18916 0.5210837,2.19041 l -0.5493555,0.7715 2.1412066,1.23504 c 1.1776633,0.67928 2.1707351,1.196 2.2068261,1.14826 0.036091,-0.0477 0.4509921,-0.77139 0.9220028,-1.60814 0.4710108,-0.83674 0.9228884,-1.52135 1.0041729,-1.52135 0.3164941,0 1.9300411,1.11429 1.9300411,1.33285 0,0.12725 -0.357188,0.83715 -0.7937501,1.57757 -0.4365625,0.74041 -0.7929536,1.43026 -0.7919799,1.53299 9.789e-4,0.10274 0.8046453,0.62987 1.785938,1.1714 0.981291,0.54154 2.419978,1.35375 3.197081,1.80492 1.317232,0.76475 1.400726,0.7819 1.232924,0.2532 -0.211405,-0.66608 0.492496,-1.58751 1.212729,-1.58751 1.286071,0 1.782645,1.90847 0.632882,2.43233 l -0.667926,0.30433 1.263239,0.74382 c 1.415255,0.83334 1.782123,0.92327 1.576089,0.38635 -0.37973,-0.98956 1.37304,-1.94282 2.147774,-1.16808 0.523571,0.52357 0.38394,1.74499 -0.237506,2.07757 -0.625001,0.33449 -0.656817,0.29928 1.377974,1.52495 l 0.95526,0.57541 -0.1265,-0.66174 c -0.15757,-0.82428 0.337106,-1.45244 1.143791,-1.45244 1.236755,0 1.753775,1.89675 0.615498,2.25802 -0.756402,0.24007 -0.615853,0.45233 0.826129,1.24763 l 1.319104,0.72753 v -0.64249 c 0,-0.71202 0.625274,-1.47403 1.209525,-1.47403 0.478136,0 1.436309,0.94343 1.436309,1.4142 0,0.38268 -0.713653,1.09783 -1.262515,1.26517 -0.185063,0.0564 0.381016,0.49703 1.257951,0.97913 1.466355,0.80613 1.608783,0.83786 1.773161,0.39496 0.0983,-0.26487 0.479771,-0.95783 0.847709,-1.53992 0.367937,-0.58208 0.688686,-1.09293 0.712779,-1.13523 0.06604,-0.11592 1.962582,1.0345 1.962582,1.19048 0,0.32853 -1.68778,3.26051 -2.079512,3.61248 -0.383532,0.34461 -0.541771,0.33599 -1.360072,-0.0741 z"
         id="path4056"
         inkscape:connector-curvature="0" />
      <path
         style="fill:#5d7486;stroke-width:0.26458335"
         d="m 20.642386,297.44116 c -6.682928,-3.85452 -12.2043177,-7.00822 -12.269755,-7.00822 -0.065437,0 -0.7274573,-0.37781 -1.4711558,-0.83958 -1.8052408,-1.12089 -8.9325038,-5.24584 -9.0639789,-5.24584 -0.057159,0 -0.5920769,-0.30815 -1.1887076,-0.68479 -1.0302145,-0.65035 -1.0777318,-0.73737 -0.9446088,-1.72987 0.1770388,-1.31992 0.7635909,-2.22152 1.7908402,-2.75274 0.7548568,-0.39035 0.8603907,-0.38123 1.7172999,0.14837 0.50215961,0.31035 0.91301732,0.69022 0.91301732,0.84416 0,0.15394 -0.35718751,0.86039 -0.79375003,1.5699 -0.43656249,0.7095 -0.79374999,1.38536 -0.79374999,1.50189 0,0.11654 0.47521282,0.47898 1.05602881,0.80541 0.77078128,0.43321 1.015487,0.48787 0.90593654,0.20239 -0.22335491,-0.58205 0.65599575,-1.75772 1.30961025,-1.75092 0.3106854,0.003 0.8467382,0.22264 1.1912283,0.48757 0.7119869,0.54755 0.6184532,1.30564 -0.2623336,2.12621 -0.5117518,0.47677 -0.4835551,0.50614 1.6427874,1.71084 1.1899117,0.67416 2.2371953,1.22563 2.3272968,1.22548 0.090101,-1.5e-4 0.4883084,-0.56569 0.8849042,-1.25677 1.2041312,-2.09822 1.0716025,-2.01321 2.1482636,-1.37797 0.5319114,0.31384 0.9650814,0.64815 0.9625994,0.74292 -0.0025,0.0948 -0.357639,0.76761 -0.7892381,1.49521 -0.4315994,0.72761 -0.7867568,1.45834 -0.7892383,1.62384 -0.00249,0.16551 1.0372854,0.89467 2.3105924,1.62036 1.273307,0.72568 2.737387,1.57001 3.25351,1.87629 l 0.938405,0.55686 -0.106623,-0.91331 c -0.09079,-0.77772 -0.0044,-0.95987 0.581874,-1.227 0.579402,-0.264 0.772516,-0.23767 1.218739,0.16616 0.74319,0.67258 0.660022,1.38501 -0.224498,1.92309 l -0.75474,0.45913 1.658751,0.95894 1.658753,0.95894 -0.143356,-0.88339 c -0.122505,-0.75491 -0.04721,-0.92719 0.517728,-1.18459 0.867495,-0.39526 1.786353,0.0678 1.786353,0.90024 0,0.78604 -0.474969,1.234 -1.309687,1.23523 l -0.674688,0.001 0.79375,0.47407 c 2.155881,1.28762 3.406839,1.94064 3.108854,1.62288 -0.419465,-0.4473 -0.426304,-1.36835 -0.01323,-1.78142 0.742157,-0.74216 2.06375,-0.18303 2.06375,0.87312 0,0.70034 -0.47939,1.19063 -1.164166,1.19063 -0.678106,0 -0.404427,0.23785 1.506474,1.30926 l 1.532929,0.85948 -0.173413,-0.69093 c -0.223948,-0.89235 0.265753,-1.47788 1.235948,-1.47788 1.391407,0 1.36715,2.13274 -0.0266,2.33853 -0.505111,0.0746 -0.345578,0.23932 0.953063,0.98418 0.857848,0.49203 1.64028,0.8982 1.738742,0.90261 0.09846,0.004 0.552243,-0.64432 1.008406,-1.44161 0.456163,-0.79729 0.917041,-1.50379 1.02417,-1.57 0.107133,-0.0662 0.580589,0.18156 1.052127,0.55059 l 0.857342,0.67097 -0.830543,1.49434 c -1.582843,2.84791 -0.115699,3.33416 -13.862016,-4.59431 z"
         id="path4054"
         inkscape:connector-curvature="0" />
      <path
         style="fill:#4f5e69;stroke-width:0.26458335"
         d="m 31.676901,303.86835 c -0.614278,-0.29626 -0.784755,-0.85168 -0.344856,-1.12356 0.137753,-0.0851 0.641485,-0.86606 1.119408,-1.7354 0.477919,-0.86934 0.993566,-1.58062 1.145878,-1.58062 0.472072,0 1.453007,0.80436 1.453007,1.19146 0,0.20223 -0.422423,1.08845 -0.938715,1.96937 -0.96502,1.64655 -1.303491,1.82432 -2.434722,1.27875 z m -3.903578,-3.91148 c -0.974347,-1.07665 0.640207,-2.56116 1.667848,-1.53351 0.486072,0.48607 0.377788,1.4837 -0.194273,1.78985 -0.717618,0.38406 -0.926975,0.34764 -1.473575,-0.25634 z m -4.157573,-2.53302 c -0.378328,-0.83034 -0.03036,-1.52628 0.826693,-1.65341 0.74794,-0.11094 1.347478,0.38928 1.347478,1.12427 0,1.30495 -1.638945,1.70383 -2.174171,0.52914 z m -3.858329,-2.01674 c -1.027642,-1.02765 0.456867,-2.6422 1.533509,-1.66785 0.908294,0.82199 0.52133,1.98535 -0.660384,1.98535 -0.305594,0 -0.6985,-0.14288 -0.873125,-0.3175 z m -4.125651,-2.48227 c -0.317246,-0.82673 -0.154799,-1.45281 0.434714,-1.67541 1.110172,-0.41921 2.227909,0.8457 1.510816,1.70975 -0.429436,0.51744 -1.742687,0.49426 -1.94553,-0.0343 z m -8.3626825,-3.07452 c -0.5093229,-0.31553 -0.9692878,-0.60482 -1.0221442,-0.64286 -0.052856,-0.038 0.3638627,-0.78082 0.9260417,-1.65064 0.5621793,-0.86981 1.1455565,-1.78524 1.2963938,-2.03427 0.2930951,-0.4839 0.9321017,-0.39289 1.7808942,0.25365 0.439079,0.33445 0.412156,0.45438 -0.4407565,1.96334 -0.4996204,0.88392 -0.9859743,1.85154 -1.0807862,2.15026 -0.2139363,0.67405 -0.3121835,0.6714 -1.4596428,-0.0395 z M 1.4433254,284.95981 C 0.47567476,284.29756 0.38846809,284.05947 0.81291031,283.23869 1.2865259,282.32282 1.9737626,282.28966 2.954854,283.13534 l 0.7423584,0.63989 -0.5452655,0.73249 c -0.7009498,0.94162 -0.9118293,0.99742 -1.7086215,0.45209 z m -4.6359097,-1.23205 c -0.5737675,-0.32185 -1.0852156,-0.80328 -1.1365514,-1.06984 -0.1706449,-0.88609 0.7682879,-2.82703 1.6173686,-3.34338 0.7876485,-0.479 0.8295389,-0.47836 1.82164599,0.0278 0.5585021,0.28493 1.01545843,0.57785 1.01545843,0.65093 0,0.0731 -0.51180922,1.07491 -1.13735412,2.22629 l -1.1373538,2.0934 z"
         id="path4052"
         inkscape:connector-curvature="0" />
      <path
         style="fill:#32475b;stroke-width:0.26458335"
         d="m 31.662423,303.71031 c -0.598935,-0.46085 -0.601139,-0.48076 -0.123714,-1.1186 0.26734,-0.35717 0.720341,-1.10459 1.006665,-1.66095 0.747025,-1.45153 1.024396,-1.61748 1.8258,-1.09238 0.373539,0.24475 0.679164,0.56079 0.679164,0.70231 0,0.14152 -0.426966,1.0208 -0.948814,1.95395 -1.01092,1.80769 -1.410714,2.00695 -2.439101,1.21567 z m -3.994177,-4.0831 c -0.299445,-0.80556 -0.09528,-1.22936 0.686795,-1.42565 0.891913,-0.22385 1.528199,0.43029 1.300602,1.33711 -0.233,0.92834 -1.651731,0.99155 -1.987397,0.0885 z M 23.846554,297.622 c -0.240837,-0.26612 -0.437883,-0.60485 -0.437883,-0.75274 0,-0.34541 0.878877,-1.14465 1.258705,-1.14465 0.406866,0 1.122545,0.75908 1.122545,1.19062 0,0.45331 -0.723627,1.19063 -1.168516,1.19063 -0.185333,0 -0.534017,-0.21774 -0.774851,-0.48386 z m -3.990859,-2.31317 c -0.762037,-0.76203 -0.310263,-1.70089 0.81846,-1.70089 0.498806,0 1.147016,0.65234 1.147016,1.15433 0,0.27642 -0.84863,0.96234 -1.190625,0.96234 -0.197493,0 -0.546177,-0.1871 -0.774851,-0.41578 z m -4.055653,-2.2716 c -0.766944,-0.76695 -0.08111,-1.92443 1.045628,-1.7647 0.504144,0.0715 0.609876,0.247 0.609876,1.01249 0,0.79147 -0.09639,0.93731 -0.663317,1.00356 -0.364824,0.0426 -0.811308,-0.0705 -0.992187,-0.25135 z m -8.5971003,-3.28479 c -0.7197273,-0.39046 -0.9515018,-1.00198 -0.488273,-1.28827 0.1316324,-0.0814 0.6225623,-0.83252 1.0909555,-1.66926 0.4683932,-0.83674 0.88524,-1.55972 0.9263263,-1.60662 0.041086,-0.0469 0.500914,0.13338 1.0218394,0.40063 l 0.9471371,0.48591 -0.8933735,1.48305 c -0.4913553,0.81567 -0.9738863,1.73671 -1.0722909,2.04676 -0.2089565,0.65836 -0.5335051,0.68966 -1.5323209,0.1478 z m -6.0223838,-5.08965 c -0.57308095,-0.46405 -0.59482917,-0.5688 -0.2772728,-1.33545 0.3931711,-0.9492 0.9210982,-1.03939 1.8601759,-0.31778 0.5667129,0.43547 0.6188414,0.60201 0.3915506,1.25089 -0.3223975,0.92039 -1.1311613,1.0852 -1.9744537,0.40234 z m -4.560477,-1.06706 c -0.6066918,-0.36615 -0.7272097,-0.62172 -0.7276042,-1.54301 -5.292e-4,-1.20587 0.8888878,-2.55902 1.8910777,-2.8771 0.517013,-0.16409 2.43039214,0.62156 2.27732671,0.93509 -0.7760867,1.58971 -2.24910441,3.96322 -2.44908551,3.94627 -0.1455209,-0.0123 -0.5917925,-0.21989 -0.9917147,-0.46125 z"
         id="path4050"
         inkscape:connector-curvature="0" />
      <path
         style="fill:#272727;stroke-width:0.26458335"
         d="m 27.818395,300.04613 c -0.314426,-0.31442 -0.18673,-1.33773 0.207787,-1.66515 0.865042,-0.71793 2.175291,0.59232 1.457368,1.45737 -0.327419,0.39451 -1.350733,0.52221 -1.665155,0.20778 z m -3.6981,-2.24556 c -0.614749,-0.34403 -0.567651,-1.46363 0.07606,-1.80813 0.736306,-0.39406 1.732153,0.56633 1.342395,1.2946 -0.341778,0.63862 -0.859811,0.82617 -1.418457,0.51353 z m -4.038214,-2.27845 c -0.926722,-0.63457 -0.40889,-2.02906 0.695581,-1.87316 0.438897,0.062 0.67441,0.2872 0.733089,0.70115 0.142087,1.00229 -0.685289,1.68103 -1.42867,1.17201 z m -4.337734,-2.69188 c -0.659651,-1.23256 0.941024,-2.19159 1.682825,-1.00824 0.210613,0.33598 0.210613,0.59007 0,0.92604 -0.428581,0.68369 -1.337166,0.72807 -1.682825,0.0822 z M 1.3821082,284.72535 c -0.84914082,-0.46066 -0.91125441,-0.88616 -0.2487896,-1.70426 0.4621734,-0.57076 0.5081511,-0.57614 1.3229167,-0.15481 0.8958953,0.46328 1.0510494,1.05416 0.4757899,1.81197 -0.4215289,0.5553 -0.603006,0.56081 -1.549917,0.0471 z"
         id="path4048"
         inkscape:connector-curvature="0" />
    </g>
  </g>
</svg>
