<?xml version="1.0" encoding="iso-8859-1"?>
<!-- Generator: Adobe Illustrator 19.0.0, SVG Export Plug-In . SVG Version: 6.00 Build 0)  -->
<svg version="1.1" id="Capa_1" xmlns="http://www.w3.org/2000/svg" xmlns:xlink="http://www.w3.org/1999/xlink" x="0px" y="0px"
	 viewBox="0 0 512 512" style="enable-background:new 0 0 512 512;" xml:space="preserve">
<path style="fill:#303C42;" d="M438.542,69.365C444.667,61.802,448,52.51,448,42.667C448,19.135,428.854,0,405.333,0
	c-8.813,0-17.354,2.76-24.542,7.875C349.667,2.854,304.625,0,256,0s-93.667,2.854-124.792,7.875C124.021,2.76,115.479,0,106.667,0
	C83.146,0,64,19.135,64,42.667c0,9.844,3.333,19.135,9.458,26.698C67.521,111.76,64,180.854,64,256s3.521,144.24,9.458,186.635
	C67.333,450.198,64,459.49,64,469.333C64,492.865,83.146,512,106.667,512c8.813,0,17.354-2.76,24.542-7.875
	C162.333,509.146,207.375,512,256,512s93.667-2.854,124.792-7.875c7.188,5.115,15.729,7.875,24.542,7.875
	C428.854,512,448,492.865,448,469.333c0-9.844-3.333-19.135-9.458-26.698C444.479,400.24,448,331.146,448,256
	S444.479,111.76,438.542,69.365z"/>
<path style="fill:#BF6B29;" d="M426.667,256c0,77.229-3.729,147.688-9.958,188.5c-0.521,3.458,0.667,6.958,3.208,9.365
	c4.354,4.115,6.75,9.604,6.75,15.469c0,11.76-9.563,21.333-21.333,21.333c-5.271,0-10.375-2.031-14.396-5.708
	c-1.979-1.823-4.563-2.813-7.208-2.813c-0.625,0-1.25,0.052-1.854,0.167c-29.563,5.229-76.625,8.354-125.875,8.354
	s-96.313-3.125-125.875-8.354c-3.188-0.594-6.625,0.396-9.063,2.646c-4.021,3.677-9.125,5.708-14.396,5.708
	c-11.771,0-21.333-9.573-21.333-21.333c0-5.865,2.396-11.354,6.75-15.469c2.542-2.406,3.729-5.906,3.208-9.365
	c-6.229-40.813-9.958-111.271-9.958-188.5s3.729-147.688,9.958-188.5c0.521-3.458-0.667-6.958-3.208-9.365
	c-4.354-4.115-6.75-9.604-6.75-15.469c0-11.76,9.563-21.333,21.333-21.333c5.271,0,10.375,2.031,14.396,5.708
	c2.438,2.26,5.875,3.25,9.063,2.646c29.563-5.229,76.625-8.354,125.875-8.354s96.313,3.125,125.875,8.354
	c3.125,0.604,6.604-0.385,9.063-2.646c4.021-3.677,9.125-5.708,14.396-5.708c11.771,0,21.333,9.573,21.333,21.333
	c0,5.865-2.396,11.354-6.75,15.469c-2.542,2.406-3.729,5.906-3.208,9.365C422.938,108.313,426.667,178.771,426.667,256z"/>
<path style="fill:#303C42;" d="M394.667,42.667H117.333c-5.896,0-10.667,4.771-10.667,10.667v405.333
	c0,5.896,4.771,10.667,10.667,10.667h277.333c5.896,0,10.667-4.771,10.667-10.667V53.333
	C405.333,47.438,400.563,42.667,394.667,42.667z"/>
<path style="fill:#BDDDF4;" d="M384,64v134.25l-13.792-13.792c-4.167-4.167-10.917-4.167-15.083,0L224,315.583l-45.792-45.792
	c-4.167-4.167-10.917-4.167-15.083,0L128,304.917V64H384z"/>
<path style="fill:#68B345;" d="M128,448V335.083l42.667-42.667l67.125,67.125c2.083,2.083,4.813,3.125,7.542,3.125
	c2.729,0,5.458-1.042,7.542-3.125c4.167-4.167,4.167-10.917,0-15.083l-13.792-13.792l123.583-123.583L384,228.417V448H128z"/>
<path style="opacity:0.1;fill:#010101;enable-background:new    ;" d="M362.667,207.083L352,217.75v163.992
	C352,400.661,336.663,416,317.742,416H128v32h256V228.417L362.667,207.083z"/>
<circle style="fill:#303C42;" cx="213.333" cy="170.667" r="64"/>
<circle style="fill:#F8BC3C;" cx="213.333" cy="170.667" r="42.667"/>
<linearGradient id="SVGID_1_" gradientUnits="userSpaceOnUse" x1="-46.0956" y1="639.7964" x2="-23.3106" y2="629.1724" gradientTransform="matrix(21.3333 0 0 -21.3333 996.3334 13791.667)">
	<stop  offset="0" style="stop-color:#FFFFFF;stop-opacity:0.2"/>
	<stop  offset="1" style="stop-color:#FFFFFF;stop-opacity:0"/>
</linearGradient>
<path style="fill:url(#SVGID_1_);" d="M438.542,69.365C444.667,61.802,448,52.51,448,42.667C448,19.135,428.854,0,405.333,0
	c-8.813,0-17.354,2.76-24.542,7.875C349.667,2.854,304.625,0,256,0s-93.667,2.854-124.792,7.875C124.021,2.76,115.479,0,106.667,0
	C83.146,0,64,19.135,64,42.667c0,9.844,3.333,19.135,9.458,26.698C67.521,111.76,64,180.854,64,256s3.521,144.24,9.458,186.635
	C67.333,450.198,64,459.49,64,469.333C64,492.865,83.146,512,106.667,512c8.813,0,17.354-2.76,24.542-7.875
	C162.333,509.146,207.375,512,256,512s93.667-2.854,124.792-7.875c7.188,5.115,15.729,7.875,24.542,7.875
	C428.854,512,448,492.865,448,469.333c0-9.844-3.333-19.135-9.458-26.698C444.479,400.24,448,331.146,448,256
	S444.479,111.76,438.542,69.365z"/>
<g>
</g>
<g>
</g>
<g>
</g>
<g>
</g>
<g>
</g>
<g>
</g>
<g>
</g>
<g>
</g>
<g>
</g>
<g>
</g>
<g>
</g>
<g>
</g>
<g>
</g>
<g>
</g>
<g>
</g>
</svg>
