<?xml version="1.0" encoding="UTF-8" standalone="no"?>
<!-- Created with Inkscape (http://www.inkscape.org/) -->

<svg
   xmlns:dc="http://purl.org/dc/elements/1.1/"
   xmlns:cc="http://creativecommons.org/ns#"
   xmlns:rdf="http://www.w3.org/1999/02/22-rdf-syntax-ns#"
   xmlns:svg="http://www.w3.org/2000/svg"
   xmlns="http://www.w3.org/2000/svg"
   xmlns:sodipodi="http://sodipodi.sourceforge.net/DTD/sodipodi-0.dtd"
   xmlns:inkscape="http://www.inkscape.org/namespaces/inkscape"
   width="34.614609mm"
   height="38.102993mm"
   viewBox="0 0 34.614609 38.102993"
   version="1.1"
   id="svg8"
   inkscape:version="0.92.2 (5c3e80d, 2017-08-06)"
   sodipodi:docname="piano.svg">
  <defs
     id="defs2" />
  <sodipodi:namedview
     id="base"
     pagecolor="#ffffff"
     bordercolor="#666666"
     borderopacity="1.0"
     inkscape:pageopacity="0.0"
     inkscape:pageshadow="2"
     inkscape:zoom="3.959798"
     inkscape:cx="16.786362"
     inkscape:cy="92.40974"
     inkscape:document-units="mm"
     inkscape:current-layer="layer1"
     showgrid="false"
     showguides="false"
     inkscape:window-width="1920"
     inkscape:window-height="986"
     inkscape:window-x="-11"
     inkscape:window-y="-11"
     inkscape:window-maximized="1" />
  <metadata
     id="metadata5">
    <rdf:RDF>
      <cc:Work
         rdf:about="">
        <dc:format>image/svg+xml</dc:format>
        <dc:type
           rdf:resource="http://purl.org/dc/dcmitype/StillImage" />
        <dc:title></dc:title>
      </cc:Work>
    </rdf:RDF>
  </metadata>
  <g
     inkscape:label="Layer 1"
     inkscape:groupmode="layer"
     id="layer1"
     transform="translate(1.913436,-265.35262)">
    <g
       id="g4009"
       transform="translate(-22.383823,-1.7372519)">
      <path
         style="fill:#e6ebec;stroke-width:0.16933334"
         d="m 20.490656,289.98843 c 0,-16.74114 -0.03374,-16.15909 1.05525,-18.20225 1.091662,-2.04817 3.082376,-3.71108 5.230876,-4.36953 1.033374,-0.3167 1.492241,-0.33959 5.842,-0.29141 l 4.72054,0.0523 1.461059,0.71453 c 3.217161,1.57335 5.217082,4.77471 5.225105,8.36402 0.0074,3.31531 1.348352,5.73244 3.803792,6.85658 0.501494,0.22959 1.660049,0.57856 2.574566,0.7755 2.103323,0.45293 2.60928,0.66779 3.374585,1.4331 1.289517,1.28952 1.24834,0.92989 1.252508,10.93927 l 0.0037,8.93233 h -17.272 -17.271999 z m 7.910843,7.12109 c -0.03892,-0.2574 -0.07181,-0.087 -0.07308,0.37867 -0.0013,0.46566 0.03057,0.67626 0.07077,0.46799 0.04019,-0.20827 0.04123,-0.58927 0.0023,-0.84666 z m 9.821333,0 c -0.03892,-0.2574 -0.07181,-0.087 -0.07308,0.37867 -0.0014,0.46566 0.03058,0.67626 0.07077,0.46799 0.04019,-0.20827 0.04123,-0.58927 0.0023,-0.84666 z m 8.974442,-0.17167 c -0.0388,-0.25611 -0.07054,-0.0466 -0.07054,0.46567 0,0.51223 0.03175,0.72178 0.07054,0.46567 0.0388,-0.25612 0.0388,-0.67522 0,-0.93134 z"
         id="path4033"
         inkscape:connector-curvature="0" />
      <path
         style="fill:#cdd3d8;stroke-width:0.16933334"
         d="m 20.575322,289.6564 v -15.53621 l 0.385872,-1.016 c 0.980117,-2.58065 2.995332,-4.58913 5.566465,-5.54787 0.898797,-0.33514 1.377254,-0.37483 5.176625,-0.42935 4.667901,-0.067 5.396751,0.0223 7.179309,0.87989 2.173913,1.04582 3.949087,3.08128 4.641019,5.32149 0.195591,0.63325 0.40222,1.99555 0.489847,3.22955 0.328497,4.62601 1.978497,6.53064 6.456497,7.45288 0.880202,0.18128 1.795162,0.40381 2.033245,0.49451 0.681983,0.25982 1.480666,1.0116 1.980102,1.86383 l 0.459007,0.78323 0.0033,9.02021 0.0033,9.02022 -17.187333,-9e-5 -17.187333,-8e-5 V 289.6564 Z m 9.736667,10.96445 v -2.032 h -0.931333 -0.931334 v -3.696 -3.69601 l -0.508,0.0746 -0.508,0.0746 v 3.62145 3.62144 h -1.016 -1.016 v 2.032 2.032 h 2.455334 2.455333 z m 9.990666,0 v -2.032 h -1.016 -1.016 v -3.683 -3.683 h -0.508 -0.507999 v 3.683 3.683 h -1.016 -1.016 v 1.91911 c 0,1.05552 0.0508,1.96992 0.112888,2.032 0.06209,0.0621 1.205089,0.11289 2.540001,0.11289 h 2.42711 z m 9.821334,0 v -2.032 h -1.016 -1.016 v -3.683 -3.683 h -0.508 -0.508 v 3.683 3.683 h -0.931334 -0.931333 v 2.032 2.032 h 2.455333 2.455334 z"
         id="path4031"
         inkscape:connector-curvature="0" />
      <path
         style="fill:#b1bcc5;stroke-width:0.16933334"
         d="m 20.52557,303.96519 0.04975,-1.22767 h 17.187333 17.187334 l 0.04975,1.22767 0.04975,1.22766 H 37.762655 20.475819 Z m 3.013441,-9.05379 3.55e-4,-3.68855 -1.114259,0.0574 c -0.612842,0.0316 -1.298802,0.0111 -1.524355,-0.0456 l -0.410096,-0.10292 0.0025,-7.99778 c 0.002,-6.45294 0.05078,-8.20253 0.25244,-9.05785 0.769766,-3.26485 3.463468,-5.95855 6.728318,-6.72831 1.292367,-0.30471 7.930608,-0.35406 9.306737,-0.0692 3.187026,0.65973 6.052263,3.36814 6.884211,6.50739 0.09808,0.37007 0.253927,1.69771 0.346339,2.95032 0.154893,2.09949 0.215342,2.3732 0.77352,3.5026 1.062594,2.15002 2.555982,3.13807 5.758752,3.8101 2.192479,0.46004 3.122773,0.99758 3.893578,2.24978 0.481598,0.78237 0.516597,0.95518 0.572877,2.82869 l 0.05994,1.9954 -0.427706,0.10735 c -0.235237,0.059 -0.929123,0.0815 -1.541964,0.05 l -1.114261,-0.0574 3.56e-4,3.68855 3.55e-4,3.68854 -1.905,-0.0479 -1.905,-0.0479 -0.04563,-3.683 -0.04563,-3.683 H 47.58069 47.075992 v 3.72533 3.72533 h -1.947334 -1.947333 v -3.683 -3.683 h -0.508 -0.508 v 3.683 3.683 h -1.947333 -1.947334 v -3.72533 -3.72533 h -0.508 -0.507999 v 3.72533 3.72533 h -1.947334 -1.947333 v -3.683 -3.683 h -0.508 -0.508 v 3.683 3.683 h -1.947333 -1.947334 v -3.72533 -3.72533 H 27.944628 27.43993 l -0.04564,3.683 -0.04564,3.683 -1.905,0.0479 -1.905,0.0479 3.55e-4,-3.68854 z"
         id="path4029"
         inkscape:connector-curvature="0" />
      <path
         style="fill:#9ba6b2;stroke-width:0.16933334"
         d="m 20.659989,304.00752 v -1.18533 h 2.370667 2.370666 v 1.18533 1.18533 h -2.370666 -2.370667 z m 9.686596,0.0423 0.05007,-1.143 2.413,-0.047 2.413,-0.047 v 1.18998 1.18998 h -2.463071 -2.46307 z m 9.95607,-0.0423 v -1.18533 h 2.455334 2.455333 v 1.18533 1.18533 h -2.455333 -2.455334 z m 9.821334,0 v -1.18533 h 2.370666 2.370667 v 1.18533 1.18533 h -2.370667 -2.370666 z m -26.585333,-9.13845 v -3.73088 h -1.524 -1.524 v -7.8429 c 0,-4.86098 0.06925,-8.22492 0.182152,-8.84767 0.479032,-2.64238 2.456346,-5.21991 4.897848,-6.38462 1.737974,-0.82909 2.723407,-0.97015 6.777346,-0.97015 2.944109,0 3.707533,0.0536 4.822642,0.33884 2.87402,0.73505 5.136353,2.76449 6.184607,5.54795 0.245845,0.65279 0.437707,1.77621 0.585198,3.42655 0.268019,2.99893 0.616786,4.02806 1.806087,5.32935 1.072449,1.17343 2.410174,1.8418 4.631453,2.31404 1.975898,0.42007 2.718596,0.75739 3.548131,1.61154 0.794764,0.81834 1.108535,1.92199 1.108535,3.89913 v 1.57794 h -1.524 -1.524 v 3.73088 3.73087 l -1.905,-0.0479 -1.905,-0.0479 0.06542,-3.683 0.06541,-3.683 h -0.612447 -0.612446 l -0.04564,3.683 -0.04564,3.683 h -1.862667 -1.862666 l -0.04564,-3.683 -0.04564,-3.683 H 42.67002 42.165322 v 3.73088 3.73087 l -1.905,-0.0479 -1.905,-0.0479 -0.04564,-3.683 -0.04564,-3.683 H 37.762655 37.26126 l -0.04564,3.683 -0.04563,3.683 -1.905,0.0479 -1.905,0.0479 v -3.73087 -3.73088 h -0.504698 -0.504697 l -0.04564,3.683 -0.04564,3.683 h -1.862666 -1.862667 l -0.04566,-3.69348 -0.04566,-3.69348 -0.547002,0.0528 -0.547001,0.0528 v 3.64067 3.64067 l -1.905,0.0479 -1.905,0.0479 z"
         id="path4027"
         inkscape:connector-curvature="0" />
      <path
         style="fill:#949aa3;stroke-width:0.16933334"
         d="m 23.651545,298.47596 c -0.06209,-0.0621 -0.112889,-1.73848 -0.112889,-3.72533 v -3.61244 h -1.534135 -1.534134 l 0.05813,-8.33967 c 0.05616,-8.05615 0.07076,-8.37709 0.42952,-9.44033 0.999343,-2.96174 3.364403,-5.1527 6.400318,-5.92915 1.104776,-0.28256 1.870677,-0.33572 4.80105,-0.33325 2.369467,0.002 3.853195,0.0806 4.630811,0.24542 2.543278,0.53894 5.017893,2.44655 6.148793,4.73992 0.622478,1.26234 0.808031,2.13393 1.064963,5.00239 0.204615,2.28438 0.642855,3.44876 1.756709,4.6675 1.110558,1.21513 2.411746,1.86736 4.688024,2.34992 2.031721,0.43071 2.585099,0.6755 3.339323,1.47713 0.939864,0.99895 1.130313,1.57268 1.213312,3.65512 l 0.07593,1.905 h -1.542005 -1.542007 l -0.04564,3.683 -0.04563,3.683 -1.820334,0.0481 -1.820333,0.0481 v -3.73106 -3.73106 h -0.589365 -0.589364 l -0.04564,3.683 -0.04564,3.683 h -1.862667 -1.862666 v -3.64067 -3.64067 l -0.547003,-0.0528 -0.547001,-0.0528 -0.04566,3.69348 -0.04566,3.69348 h -1.862666 -1.862667 v -3.64067 -3.64067 l -0.547002,-0.0528 -0.547001,-0.0528 -0.04567,3.69348 -0.04566,3.69348 h -1.862667 -1.862666 l -0.04564,-3.683 -0.04564,-3.683 h -0.501395 -0.501395 l -0.04564,3.683 -0.04564,3.683 H 30.39664 28.533973 l -0.04564,-3.683 -0.04564,-3.683 H 27.829354 27.21599 l 0.0825,3.51366 c 0.04538,1.93252 0.04983,3.60892 0.0099,3.72534 -0.07774,0.22659 -3.438252,0.31736 -3.656838,0.0988 z"
         id="path4025"
         inkscape:connector-curvature="0" />
      <path
         style="fill:#7d8494;stroke-width:0.16933334"
         d="m 23.665656,298.49484 c -0.06985,-0.0725 -0.127,-1.7544 -0.127,-3.73762 v -3.60585 l -1.481667,-0.0489 -1.481667,-0.0489 v -8.128 c 0,-8.78705 0.01214,-8.9269 0.936685,-10.79033 0.675582,-1.36164 1.560469,-2.39672 2.778553,-3.25015 2.153354,-1.50872 3.427773,-1.79219 8.057442,-1.79219 2.760408,0 3.551702,0.0571 4.636396,0.33451 1.864511,0.47686 3.144997,1.21865 4.399786,2.54879 1.643913,1.74263 2.467141,3.71341 2.473742,5.92204 0.01365,4.56813 1.933676,7.16709 5.957866,8.0646 2.527163,0.56363 2.951429,0.72452 3.739139,1.41789 1.083664,0.95388 1.394101,1.83969 1.394634,3.97951 l 3.39e-4,1.69333 -1.481667,0.0489 -1.481666,0.0489 v 3.62408 c 0,2.30529 -0.06351,3.66333 -0.174527,3.73195 -0.09599,0.0593 -0.934188,0.054 -1.862667,-0.0118 l -1.688055,-0.11969 v -3.61885 -3.61885 h -0.592667 -0.592666 v 3.61755 3.61756 l -1.802333,0.12073 c -1.299486,0.087 -1.836195,0.0659 -1.923703,-0.0756 -0.06676,-0.10801 -0.08311,-1.79024 -0.03634,-3.73829 l 0.08504,-3.5419 H 42.781986 42.16532 v 3.64598 c 0,3.03822 -0.04116,3.66177 -0.246923,3.74073 -0.135809,0.0521 -0.993059,0.0307 -1.905,-0.0476 l -1.658077,-0.1424 0.06393,-3.59833 0.06393,-3.59833 h -0.724716 -0.724716 l 0.0951,3.61858 0.0951,3.61859 -1.760707,0.11794 c -0.96839,0.0649 -1.837784,0.0703 -1.931987,0.0121 -0.106864,-0.066 -0.171277,-1.47126 -0.171277,-3.73653 v -3.63067 H 32.74154 32.12309 l 0.09566,3.63981 c 0.0567,2.1575 0.03193,3.6792 -0.06083,3.73653 -0.08607,0.0532 -0.955714,0.0432 -1.932544,-0.0223 l -1.776056,-0.11897 v -3.61756 -3.61755 h -0.592666 -0.592667 v 3.64066 3.64067 h -0.482451 c -0.265349,0 -1.046399,0.0466 -1.735667,0.10354 -0.689268,0.0569 -1.310365,0.0442 -1.380215,-0.0282 z"
         id="path4023"
         inkscape:connector-curvature="0" />
      <path
         style="fill:#6d7487;stroke-width:0.16933334"
         d="m 23.538656,294.78545 v -3.63408 l -1.481667,-0.0489 -1.481667,-0.0489 0.05228,-8.21267 c 0.05714,-8.97533 0.07308,-9.13787 1.083002,-11.0415 0.729731,-1.37549 2.324149,-2.90561 3.768329,-3.61637 1.943029,-0.95627 3.172534,-1.13063 7.373054,-1.04558 4.148838,0.084 5.080305,0.28137 6.870214,1.45568 2.709099,1.77738 3.889927,3.95517 4.144547,7.64377 0.16659,2.41336 0.424923,3.42084 1.214243,4.73547 0.997387,1.66116 2.661405,2.6239 5.550996,3.2116 1.777961,0.36161 2.553707,0.72097 3.237485,1.49976 0.836907,0.95318 1.030272,1.60982 1.05671,3.58841 l 0.02381,1.78143 -1.481667,0.0489 -1.481667,0.0489 v 3.63408 3.63407 h -1.862666 -1.862667 v -3.65089 -3.65089 l -0.635,0.0526 -0.635,0.0525 0.0244,3.59834 0.02441,3.59833 h -1.844738 -1.844738 v -3.64067 -3.64066 h -0.703116 -0.703116 l 0.09568,3.64066 0.09568,3.64067 h -1.847901 -1.847899 v -3.64067 -3.64066 H 37.762653 37.08532 v 3.64639 3.6464 l -1.820333,-0.0481 -1.820333,-0.0481 0.06483,-3.59833 0.06483,-3.59833 h -0.699833 -0.699832 v 3.64639 3.6464 l -1.820334,-0.0481 -1.820333,-0.0481 0.06483,-3.59833 0.06483,-3.59833 H 27.96381 27.263977 v 3.64066 3.64067 H 25.40131 23.538644 Z"
         id="path4021"
         inkscape:connector-curvature="0" />
      <path
         style="fill:#424b6c;stroke-width:0.16933334"
         d="m 23.668958,294.73652 -0.04564,-3.683 -1.52117,-0.0847 -1.521171,-0.0847 0.05664,-8.03121 c 0.04417,-6.26369 0.109827,-8.23541 0.298312,-8.95906 0.800027,-3.07151 3.209691,-5.50204 6.350233,-6.40521 1.387531,-0.39904 6.911462,-0.50645 8.839296,-0.17188 4.714091,0.81812 7.722449,4.38126 7.736134,9.16279 0.01243,4.34243 2.155478,6.81305 6.703262,7.7279 3.245542,0.65289 4.216779,1.76846 4.418209,5.07479 l 0.101934,1.67317 -1.591507,0.049 -1.591504,0.049 v 3.64067 3.64066 l -1.820334,0.0481 -1.820333,0.0481 v -3.74129 -3.74128 l -0.635,0.0525 -0.635,0.0526 -0.04563,3.683 -0.04564,3.683 h -1.771396 -1.771396 l -0.04563,-3.683 -0.04564,-3.683 H 42.67332 42.080653 l -0.04563,3.683 -0.04564,3.683 h -1.771396 -1.771396 l -0.04564,-3.683 -0.04563,-3.683 h -0.592666 -0.592667 l -0.04564,3.683 -0.04564,3.683 h -1.771396 -1.771395 l -0.04564,-3.683 -0.04563,-3.683 H 32.85198 32.259313 l -0.04563,3.683 -0.04564,3.683 H 30.396656 28.62526 l -0.04564,-3.683 -0.04564,-3.683 h -0.592667 -0.592666 l -0.04564,3.683 -0.04564,3.683 h -1.771395 -1.771395 z"
         id="path4019"
         inkscape:connector-curvature="0" />
      <path
         style="fill:#3a415c;stroke-width:0.16933334"
         d="m 23.668958,294.73652 -0.04564,-3.683 -1.48895,-0.049 -1.488949,-0.049 0.04962,-1.22097 0.04962,-1.22097 17.060333,-0.0431 17.060333,-0.0431 v 1.26422 1.26422 l -1.481667,0.0489 -1.481666,0.0489 -0.04564,3.683 -0.04563,3.683 H 50.03602 48.261322 v -3.73556 -3.73555 l -0.635,0.0525 -0.635,0.0526 -0.04563,3.683 -0.04564,3.683 h -1.774698 -1.774698 v -3.73556 -3.73555 l -0.635,0.0525 -0.635,0.0526 -0.04563,3.683 -0.04564,3.683 H 40.214688 38.43999 v -3.72533 -3.72534 h -0.677334 -0.677333 v 3.72534 3.72533 h -1.778 -1.778 v -3.72533 -3.72534 H 32.85199 32.174657 v 3.72534 3.72533 H 30.399958 28.62526 l -0.04564,-3.683 -0.04564,-3.683 -0.635,-0.0526 -0.635,-0.0525 v 3.73555 3.73556 h -1.774698 -1.774697 z"
         id="path4017"
         inkscape:connector-curvature="0" />
      <path
         style="fill:#343c48;stroke-width:0.16933334"
         d="m 23.707989,294.69419 v -3.72534 h -1.524 -1.524 v -1.18533 -1.18533 h 17.102666 17.102667 v 1.18533 1.18533 h -1.524 -1.524 v 3.72534 3.72533 h -1.778 -1.778 v -3.72533 -3.72534 h -0.677333 -0.677334 v 3.72534 3.72533 h -1.778 -1.778 v -3.72533 -3.72534 h -0.677333 -0.677333 v 3.72534 3.72533 h -1.778 -1.778 v -3.72533 -3.72534 h -0.677334 -0.677333 v 3.72534 3.72533 h -1.778 -1.778 v -3.72533 -3.72534 h -0.677333 -0.677333 v 3.72534 3.72533 h -1.778 -1.778 v -3.72533 -3.72534 h -0.677334 -0.677333 v 3.72534 3.72533 h -1.778 -1.778 z"
         id="path4015"
         inkscape:connector-curvature="0" />
      <path
         style="fill:#21232b;stroke-width:0.16933334"
         d="m 38.439989,297.44585 v -0.889 h 1.778 1.778 v 0.889 0.889 h -1.778 -1.778 z m 6.646333,0.84737 -1.735667,-0.0549 v -0.84074 -0.84075 h 1.778 1.778 v 0.93134 c 0,0.51223 -0.01905,0.91526 -0.04233,0.89562 -0.02328,-0.0196 -0.823383,-0.0604 -1.778,-0.0906 z m -21.378333,-0.8897 v -0.84667 h 1.778 1.778 v 0.84667 0.84667 h -1.778 -1.778 z m 4.910667,0 v -0.84667 h 1.778 1.778 v 0.84667 0.84667 h -1.778 -1.778 z m 4.910666,0 v -0.84667 h 1.778 1.778 v 0.84667 0.84667 h -1.778 -1.778 z m 14.732,0 v -0.84667 h 1.778 1.778 v 0.84667 0.84667 h -1.778 -1.778 z m -26.042589,-6.39879 -1.573923,-0.0488 0.04992,-1.13654 0.04992,-1.13655 h 17.017999 17.018 l 0.04962,1.12322 0.04962,1.12322 -3.012951,0.0973 c -2.917739,0.0942 -26.463945,0.0769 -29.648209,-0.0218 z"
         id="path4013"
         inkscape:connector-curvature="0" />
      <path
         style="fill:#1e2027;stroke-width:0.16933334"
         d="m 23.906906,297.44585 0.02958,-0.80433 0.06482,0.71967 0.06482,0.71966 h 1.429597 1.429597 v -0.67733 c 0,-0.37253 0.0762,-0.67733 0.169334,-0.67733 0.09313,0 0.169333,0.3429 0.169333,0.762 v 0.762 H 25.570654 23.87732 Z m 4.71175,0.0423 c 0,-0.4191 0.0762,-0.762 0.169333,-0.762 0.09313,0 0.169333,0.3048 0.169333,0.67733 v 0.67733 h 1.514264 1.514264 l 0.06482,-0.71966 0.06482,-0.71967 0.02958,0.80433 0.02958,0.80434 h -1.778 -1.778 z m 4.910666,0.0947 c 0,-0.36704 0.0762,-0.71444 0.169334,-0.772 0.102265,-0.0632 0.169333,0.16758 0.169333,0.58268 v 0.68732 h 1.514264 1.514263 l 0.06482,-0.71966 0.06482,-0.71967 0.02958,0.80433 0.02958,0.80434 h -1.778 -1.778 z m 4.940251,-0.137 0.02958,-0.80433 0.06482,0.71967 0.06482,0.71966 h 1.589194 1.589193 l 0.06482,-0.71966 0.06482,-0.71967 0.02958,0.80433 0.02958,0.80434 h -1.778 -1.778 z m 4.910667,0 0.02958,-0.80433 0.06482,0.71967 0.06482,0.71966 h 1.589193 1.589194 l 0.06482,-0.71966 0.06482,-0.71967 0.02958,0.80433 0.02958,0.80434 h -1.778 -1.778 z m 4.881082,0.0423 c 0,-0.4191 0.0762,-0.762 0.169333,-0.762 0.09313,0 0.169334,0.3048 0.169334,0.67733 v 0.67733 h 1.439333 1.439333 v -0.67733 c 0,-0.37253 0.0762,-0.67733 0.169334,-0.67733 0.09313,0 0.169333,0.3429 0.169333,0.762 v 0.762 h -1.778 -1.778 z m -19.007666,-8.6783 c 4.67995,-0.025 12.338049,-0.025 17.017999,0 4.67995,0.025 0.8509,0.0455 -8.509,0.0455 -9.359899,0 -13.188949,-0.0205 -8.508999,-0.0455 z"
         id="path4011"
         inkscape:connector-curvature="0" />
    </g>
  </g>
</svg>
