<?xml version="1.0" standalone="no"?>
<!DOCTYPE svg PUBLIC "-//W3C//DTD SVG 20010904//EN"
 "http://www.w3.org/TR/2001/REC-SVG-20010904/DTD/svg10.dtd">
<svg version="1.0" xmlns="http://www.w3.org/2000/svg"
 width="226.000000pt" height="227.000000pt" viewBox="0 0 226.000000 227.000000"
 preserveAspectRatio="xMidYMid meet">

<g transform="translate(0.000000,227.000000) scale(0.100000,-0.100000)"
fill="#000000" stroke="none">
<path d="M0 1135 l0 -1134 205 -1 206 0 -3 77 -3 78 -147 3 -148 3 0 339 0
340 90 0 90 0 0 -220 0 -221 113 3 112 3 3 218 2 217 30 0 30 0 2 -218 3 -217
113 -3 112 -3 0 221 0 220 30 0 30 0 0 -220 0 -221 113 3 112 3 3 218 2 217
30 0 30 0 2 -217 3 -218 112 -3 113 -3 0 221 0 220 30 0 30 0 0 -220 0 -220
115 0 115 0 0 221 0 220 33 -3 32 -3 0 -215 0 -215 113 -3 112 -3 0 221 0 220
90 0 90 0 0 -340 0 -339 -147 -3 -148 -3 -3 -78 -3 -77 206 0 205 1 0 1135 0
1134 -1130 0 -1130 -1 0 -1134z"/>
<path d="M695 151 c-6 -6 -9 -42 -7 -80 l4 -71 149 0 150 0 -3 78 -3 77 -140
3 c-82 1 -145 -2 -150 -7z"/>
<path d="M1274 146 c-3 -7 -4 -42 -2 -77 l3 -64 147 -3 146 -3 4 71 c2 39 -1
75 -7 81 -5 5 -71 9 -147 9 -107 0 -140 -3 -144 -14z"/>
</g>
</svg>
