<?xml version="1.0" encoding="iso-8859-1"?>
<!-- Generator: Adobe Illustrator 19.0.0, SVG Export Plug-In . SVG Version: 6.00 Build 0)  -->
<svg version="1.1" id="Capa_1" xmlns="http://www.w3.org/2000/svg" xmlns:xlink="http://www.w3.org/1999/xlink" x="0px" y="0px"
	 viewBox="0 0 512 512" style="enable-background:new 0 0 512 512;" xml:space="preserve">
<path style="fill:#73553A;" d="M377,60h-35.099c-12.001,0-23.401-4.801-31.8-13.2L285.2,21.899C271.099,7.8,251.201,0,231.099,0H76
	c-6,0-11.1,3.3-13.801,8.699c-2.399,5.4-1.5,11.7,2.401,16.199l131.4,150.3l79.6,89.7C278.599,268.2,282.8,270,287,270h90
	c57.9,0,105-47.1,105-105S434.9,60,377,60z"/>
<path style="fill:#59422D;" d="M482,165c0,57.9-47.1,105-105,105h-90c-4.2,0-8.401-1.8-11.4-5.101l-79.6-89.7V0h35.099
	c20.101,0,40,7.8,54.101,21.899L310.101,46.8C318.5,55.199,329.9,60,341.901,60H377C434.9,60,482,107.1,482,165z"/>
<path style="fill:#73553A;" d="M358.4,365.099c-2.999-3.3-7.2-5.099-11.4-5.099h-60c-4.2,0-8.401,1.8-11.4,5.099
	c-2.699,3.3-3.9,7.5-3.6,11.7l15,122c1.199,7.5,7.5,13.2,15,13.2h30c7.5,0,13.801-5.7,15-13.2l15-122
	C362.3,372.599,361.099,368.399,358.4,365.099z"/>
<path style="fill:#59422D;" d="M362,376.8l-15,122c-1.199,7.5-7.5,13.2-15,13.2h-15V360h30c4.2,0,8.401,1.8,11.4,5.099
	C361.099,368.399,362.3,372.599,362,376.8z"/>
<path style="fill:#73553A;" d="M478.4,365.099c-2.999-3.3-7.2-5.099-11.4-5.099h-60c-4.2,0-8.401,1.8-11.4,5.099
	c-2.699,3.3-3.9,7.5-3.6,11.7l15,122c1.199,7.5,7.5,13.2,15,13.2h30c7.5,0,13.801-5.7,15-13.2l15-122
	C482.3,372.599,481.099,368.399,478.4,365.099z"/>
<path style="fill:#59422D;" d="M482,376.8l-15,122c-1.199,7.5-7.5,13.2-15,13.2h-15V360h30c4.2,0,8.401,1.8,11.4,5.099
	C481.099,368.399,482.3,372.599,482,376.8z"/>
<path style="fill:#FEA832;" d="M211,75v180c0,8.399-6.599,15-15,15s-15-6.601-15-15V75c0-8.401,6.599-15,15-15S211,66.599,211,75z"
	/>
<path style="fill:#FF8700;" d="M211,75v180c0,8.399-6.599,15-15,15V60C204.401,60,211,66.599,211,75z"/>
<path style="fill:#73553A;" d="M116.4,365.099c-2.999-3.3-7.2-5.099-11.4-5.099H45c-4.2,0-8.401,1.8-11.4,5.099
	c-2.699,3.3-3.9,7.5-3.6,11.7l15,122c1.199,7.5,7.5,13.2,15,13.2h30c7.5,0,13.801-5.7,15-13.2l15-122
	C120.3,372.599,119.099,368.399,116.4,365.099z"/>
<path style="fill:#59422D;" d="M120,376.8l-15,122c-1.199,7.5-7.5,13.2-15,13.2H75V360h30c4.2,0,8.401,1.8,11.4,5.099
	C119.099,368.399,120.3,372.599,120,376.8z"/>
<path style="fill:#896748;" d="M497,240H105c-24.901,0-45,20.099-45,45v15H45c-24.901,0-45,20.099-45,45v30c0,8.399,6.599,15,15,15
	h452c24.901,0,45-20.101,45-45v-90C512,246.599,505.401,240,497,240z"/>
<path style="fill:#73553A;" d="M512,255v90c0,24.899-20.099,45-45,45H196V240h301C505.401,240,512,246.599,512,255z"/>
<g>
</g>
<g>
</g>
<g>
</g>
<g>
</g>
<g>
</g>
<g>
</g>
<g>
</g>
<g>
</g>
<g>
</g>
<g>
</g>
<g>
</g>
<g>
</g>
<g>
</g>
<g>
</g>
<g>
</g>
</svg>
