<?xml version="1.0" encoding="iso-8859-1"?>
<!-- Generator: Adobe Illustrator 19.0.0, SVG Export Plug-In . SVG Version: 6.00 Build 0)  -->
<svg version="1.1" id="Layer_1" xmlns="http://www.w3.org/2000/svg" xmlns:xlink="http://www.w3.org/1999/xlink" x="0px" y="0px"
	 viewBox="0 0 512 512" style="enable-background:new 0 0 512 512;" xml:space="preserve">
<g>
	<path style="fill:#B9E291;" d="M293.063,456.244c-1.181,8.432-3.866,16.384-7.785,23.562
		c-6.666,12.215-16.886,22.204-29.278,28.588c-12.392-6.384-22.622-16.374-29.288-28.588c-3.918-7.178-6.604-15.13-7.784-23.562
		H293.063z"/>
	<path style="fill:#B9E291;" d="M512,249.093v0.878h-49.654c-2.424,0-4.817-0.084-7.189-0.272
		c-7.962-0.575-15.663-2.132-22.967-4.535l-50.113-92.714h33.28C468.731,152.451,512,195.72,512,249.093z"/>
	<path style="fill:#B9E291;" d="M129.923,152.451l-50.113,92.714c-7.314,2.403-15.005,3.96-22.977,4.535
		c-2.372,0.188-4.765,0.272-7.178,0.272H0v-0.878c0-53.373,43.259-96.643,96.643-96.643H129.923z"/>
	<path style="fill:#B9E291;" d="M183.066,444.635c-4.42,6.249-9.571,11.954-15.318,16.98c-16.99,14.869-39.246,23.886-63.603,23.886
		H54.502v-0.888c0-33.384,16.927-62.819,42.684-80.165c6.123-4.138,12.758-7.586,19.78-10.24L183.066,444.635z"/>
	<path style="fill:#B9E291;" d="M457.488,484.613v0.888h-49.643c-24.357,0-46.613-9.007-63.603-23.886
		c-5.747-5.016-10.898-10.721-15.318-16.969l66.1-50.437c7.022,2.654,13.646,6.102,19.78,10.24
		C440.56,421.794,457.488,451.229,457.488,484.613z"/>
	<path style="fill:#B9E291;" d="M334.273,81.878v36.812H177.727V81.878c0-21.619,8.767-41.179,22.925-55.348
		C214.821,12.361,234.392,3.605,256,3.605C299.227,3.605,334.273,38.651,334.273,81.878z"/>
</g>
<g>
	<path style="fill:#9CCC5F;" d="M235.133,26.53c10.283-10.283,23.419-17.693,38.106-20.996C267.69,4.285,261.927,3.605,256,3.605
		c-21.608,0-41.179,8.756-55.348,22.925c-14.158,14.169-22.925,33.729-22.925,55.348v36.812h34.482V81.878
		C212.208,60.259,220.975,40.699,235.133,26.53z"/>
	<path style="fill:#9CCC5F;" d="M129.923,152.451l-50.113,92.714c-7.314,2.403-15.005,3.96-22.977,4.535
		c5.59-36.582,21.034-69.925,43.52-97.249H129.923z"/>
	<path style="fill:#9CCC5F;" d="M116.966,394.209l66.1,50.427c-4.42,6.249-9.571,11.954-15.318,16.98
		c-27.669-13.5-51.775-33.155-70.562-57.166C103.309,400.311,109.944,396.863,116.966,394.209z"/>
	<path style="fill:#9CCC5F;" d="M218.927,456.244h74.136c-1.181,8.432-3.866,16.384-7.785,23.562
		c-9.55,1.39-19.331,2.111-29.278,2.111c-9.947,0-19.728-0.721-29.288-2.111C222.793,472.628,220.108,464.677,218.927,456.244z"/>
	<path style="fill:#9CCC5F;" d="M334.273,118.69H177.727V94.71c24.064-10.167,50.51-15.778,78.273-15.778
		s54.209,5.622,78.273,15.778V118.69z"/>
	<path style="fill:#9CCC5F;" d="M395.024,394.209c7.022,2.654,13.646,6.102,19.78,10.24c-18.787,24.012-42.893,43.666-70.562,57.166
		c-5.747-5.015-10.898-10.721-15.318-16.969L395.024,394.209z"/>
	<path style="fill:#9CCC5F;" d="M455.158,249.699c-7.962-0.575-15.663-2.132-22.967-4.535l-50.113-92.714h29.55
		C434.124,179.775,449.557,213.117,455.158,249.699z"/>
</g>
<circle style="fill:#FFA91F;" cx="256" cy="280.43" r="179.649"/>
<circle style="fill:#FFD41D;" cx="256" cy="280.43" r="146.275"/>
<g>
	<path style="fill:#F94F79;" d="M310.146,144.499v0.01c-5.287,25.057-27.523,43.875-54.147,43.875s-48.88-18.798-54.147-43.865
		l-0.01-0.021c16.75-6.687,35.025-10.355,54.157-10.355S293.396,137.812,310.146,144.499z"/>
	<path style="fill:#F94F79;" d="M402.274,280.43c0,19.132-3.678,37.407-10.355,54.157c-25.067-5.287-43.875-27.523-43.875-54.147
		c0-26.634,18.798-48.88,43.854-54.157l0.021-0.01C398.596,243.022,402.274,261.298,402.274,280.43z"/>
	<path style="fill:#F94F79;" d="M255.999,225.081c30.563,0,55.338,24.775,55.338,55.348c0,30.563-24.775,55.338-55.338,55.338
		c-30.574,0-55.348-24.775-55.348-55.338C200.651,249.856,225.425,225.081,255.999,225.081z"/>
	<path style="fill:#F94F79;" d="M120.079,226.273c25.067,5.287,43.875,27.533,43.875,54.168c0,26.634-18.808,48.87-43.886,54.147
		c-6.677-16.75-10.355-35.025-10.355-54.157c0-19.132,3.678-37.407,10.355-54.157H120.079z"/>
	<path style="fill:#F94F79;" d="M255.999,372.464c26.634,0,48.88,18.819,54.147,43.886c-16.75,6.687-35.015,10.355-54.147,10.355
		s-37.418-3.668-54.167-10.355v-0.01C207.119,391.283,229.375,372.464,255.999,372.464z"/>
</g>
<g>
	<path style="fill:#4D4D4D;" d="M234.842,74.566c-4.328,0-7.837-3.509-7.837-7.837V51.057c0-4.328,3.509-7.837,7.837-7.837
		s7.837,3.509,7.837,7.837v15.672C242.679,71.057,239.17,74.566,234.842,74.566z"/>
	<path style="fill:#4D4D4D;" d="M277.158,74.566c-4.328,0-7.837-3.509-7.837-7.837V51.057c0-4.328,3.509-7.837,7.837-7.837
		s7.837,3.509,7.837,7.837v15.672C284.995,71.057,281.486,74.566,277.158,74.566z"/>
</g>
<g>
</g>
<g>
</g>
<g>
</g>
<g>
</g>
<g>
</g>
<g>
</g>
<g>
</g>
<g>
</g>
<g>
</g>
<g>
</g>
<g>
</g>
<g>
</g>
<g>
</g>
<g>
</g>
<g>
</g>
</svg>
