<?xml version="1.0" standalone="no"?>
<!DOCTYPE svg PUBLIC "-//W3C//DTD SVG 20010904//EN"
 "http://www.w3.org/TR/2001/REC-SVG-20010904/DTD/svg10.dtd">
<svg version="1.0" xmlns="http://www.w3.org/2000/svg"
 width="135.000000pt" height="135.000000pt" viewBox="0 0 135.000000 135.000000"
 preserveAspectRatio="xMidYMid meet">

<g transform="translate(0.000000,135.000000) scale(0.100000,-0.100000)"
fill="#000000" stroke="none">
<path d="M0 1175 l0 -174 63 -3 c41 -2 61 -7 60 -15 -2 -8 15 -11 52 -10 37 2
56 -2 59 -10 4 -8 25 -13 61 -13 42 0 55 -3 55 -15 0 -12 13 -15 55 -15 42 0
55 -3 55 -15 0 -12 13 -15 55 -15 42 0 55 -3 55 -15 0 -12 13 -15 55 -15 30 0
55 -4 55 -10 0 -5 25 -10 55 -10 42 0 55 -3 55 -15 0 -12 13 -15 55 -15 42 0
55 -3 55 -15 0 -12 13 -15 60 -15 47 0 60 -3 60 -15 0 -12 13 -15 55 -15 37 0
55 -4 55 -12 0 -9 17 -13 52 -13 l53 0 3 -172 2 -173 -55 0 c-42 0 -55 -3 -55
-15 0 -12 -13 -15 -55 -15 -42 0 -55 -3 -55 -15 0 -12 -13 -15 -61 -15 -36 0
-58 -4 -54 -10 8 -13 -37 -23 -80 -18 -27 3 -35 0 -35 -12 0 -12 -10 -14 -55
-12 -45 3 -55 1 -55 -12 0 -13 -11 -16 -55 -16 -42 0 -55 -3 -55 -15 0 -12
-13 -15 -55 -15 -42 0 -55 -3 -55 -15 0 -11 -13 -15 -54 -15 -39 0 -55 -4 -60
-15 -4 -11 -21 -15 -61 -15 -30 0 -55 -4 -55 -10 0 -5 -25 -10 -55 -10 -42 0
-55 -3 -55 -15 0 -12 -13 -15 -60 -15 l-60 0 0 -50 0 -50 675 0 675 0 0 675 0
675 -675 0 -675 0 0 -175z"/>
<path d="M34 955 c-4 -9 0 -23 9 -32 21 -21 49 -9 45 19 -4 28 -45 38 -54 13z"/>
<path d="M149 904 c-9 -11 -10 -20 -3 -32 15 -23 29 -25 48 -7 12 12 13 21 6
36 -13 23 -33 25 -51 3z"/>
<path d="M261 877 c-17 -21 -3 -47 26 -47 21 0 24 4 21 27 -3 31 -29 41 -47
20z"/>
<path d="M371 846 c-16 -20 -3 -46 24 -46 25 0 38 21 29 45 -8 19 -38 19 -53
1z"/>
<path d="M484 815 c-8 -21 2 -45 19 -45 20 0 40 27 33 45 -7 19 -45 20 -52 0z"/>
<path d="M602 798 c-15 -15 -16 -45 -2 -53 17 -10 50 5 50 24 0 16 -18 41 -30
41 -3 0 -11 -5 -18 -12z"/>
<path d="M712 768 c-16 -16 -15 -33 4 -48 22 -19 54 12 38 37 -14 22 -27 26
-42 11z"/>
<path d="M820 735 c-17 -21 -5 -45 24 -45 28 0 37 17 24 43 -11 21 -31 22 -48
2z"/>
<path d="M930 705 c-11 -13 -11 -19 3 -32 21 -21 49 -9 45 19 -4 28 -30 35
-48 13z"/>
<path d="M1036 674 c-10 -26 19 -52 42 -38 9 6 17 20 17 30 0 26 -50 32 -59 8z"/>
<path d="M1162 658 c-17 -17 -15 -45 4 -52 19 -7 44 10 44 30 0 20 -34 36 -48
22z"/>
<path d="M1154 485 c-9 -23 3 -45 26 -45 25 0 37 25 20 45 -16 19 -39 19 -46
0z"/>
<path d="M1040 455 c-10 -12 -10 -18 0 -30 26 -32 68 -8 54 30 -4 8 -14 15
-24 15 -10 0 -23 -7 -30 -15z"/>
<path d="M926 424 c-7 -19 10 -44 30 -44 20 0 36 34 22 48 -17 17 -45 15 -52
-4z"/>
<path d="M819 404 c-15 -18 -2 -47 24 -52 25 -5 40 33 21 52 -19 20 -28 20
-45 0z"/>
<path d="M712 378 c-16 -16 -15 -33 4 -48 22 -19 54 12 38 37 -14 22 -27 26
-42 11z"/>
<path d="M594 346 c-10 -26 4 -48 28 -44 17 2 23 10 23 28 0 18 -6 26 -23 28
-13 2 -25 -3 -28 -12z"/>
<path d="M484 315 c-8 -21 2 -45 19 -45 21 0 38 25 31 44 -8 20 -43 21 -50 1z"/>
<path d="M375 294 c-18 -19 -16 -33 7 -48 12 -7 21 -6 32 3 22 18 20 38 -3 51
-15 7 -24 6 -36 -6z"/>
<path d="M265 264 c-19 -19 -19 -19 0 -38 20 -20 45 -10 45 19 0 29 -25 39
-45 19z"/>
<path d="M152 238 c-18 -18 -15 -36 7 -48 28 -14 55 13 41 41 -12 22 -30 25
-48 7z"/>
<path d="M40 206 c-18 -22 -5 -48 22 -44 17 2 23 10 23 28 0 29 -26 38 -45 16z"/>
</g>
</svg>
