<?xml version="1.0" encoding="UTF-8" standalone="no"?>
<!-- Created with Inkscape (http://www.inkscape.org/) -->

<svg
   xmlns:dc="http://purl.org/dc/elements/1.1/"
   xmlns:cc="http://creativecommons.org/ns#"
   xmlns:rdf="http://www.w3.org/1999/02/22-rdf-syntax-ns#"
   xmlns:svg="http://www.w3.org/2000/svg"
   xmlns="http://www.w3.org/2000/svg"
   xmlns:sodipodi="http://sodipodi.sourceforge.net/DTD/sodipodi-0.dtd"
   xmlns:inkscape="http://www.inkscape.org/namespaces/inkscape"
   width="35.640747mm"
   height="30.451088mm"
   viewBox="0 0 35.640747 30.451088"
   version="1.1"
   id="svg8"
   inkscape:version="0.92.2 (5c3e80d, 2017-08-06)"
   sodipodi:docname="xylophone.svg">
  <defs
     id="defs2" />
  <sodipodi:namedview
     id="base"
     pagecolor="#ffffff"
     bordercolor="#666666"
     borderopacity="1.0"
     inkscape:pageopacity="0.0"
     inkscape:pageshadow="2"
     inkscape:zoom="3.959798"
     inkscape:cx="117.65136"
     inkscape:cy="45.692685"
     inkscape:document-units="mm"
     inkscape:current-layer="layer1"
     showgrid="false"
     showguides="false"
     inkscape:window-width="1920"
     inkscape:window-height="986"
     inkscape:window-x="-11"
     inkscape:window-y="-11"
     inkscape:window-maximized="1" />
  <metadata
     id="metadata5">
    <rdf:RDF>
      <cc:Work
         rdf:about="">
        <dc:format>image/svg+xml</dc:format>
        <dc:type
           rdf:resource="http://purl.org/dc/dcmitype/StillImage" />
        <dc:title></dc:title>
      </cc:Work>
    </rdf:RDF>
  </metadata>
  <g
     inkscape:label="Layer 1"
     inkscape:groupmode="layer"
     id="layer1"
     transform="translate(28.600632,-260.64398)">
    <g
       id="g4103"
       transform="translate(-28.0633,-14.499372)">
      <path
         style="fill:#fce1a1;stroke-width:0.26458332"
         d="m -0.46202516,305.24134 c -0.0697829,-0.1819 -0.0958118,-5.50995 -0.0578419,-11.84011 l 0.0690362,-11.50937 1.52135416,-0.0794 c 1.2318278,-0.0642 1.5213542,-10e-4 1.5213542,0.33073 0,0.32067 0.3172542,0.41008 1.4552083,0.41008 1.1171296,0 1.4552084,0.0922 1.4552084,0.39687 0,0.30467 0.3380787,0.39688 1.4552083,0.39688 0.8003646,0 1.4552083,0.11906 1.4552083,0.26458 0,0.14552 0.6548438,0.26458 1.4552084,0.26458 1.1171298,0 1.4552078,0.0922 1.4552078,0.39688 0,0.30494 0.339002,0.39687 1.463513,0.39687 1.056824,0 1.505832,0.11029 1.615807,0.39688 0.109323,0.28489 0.554916,0.39687 1.579196,0.39687 1.091968,0 1.426901,0.0932 1.426901,0.39688 0,0.30467 0.338079,0.39687 1.455208,0.39687 1.11713,0 1.455209,0.0922 1.455209,0.39688 0,0.30467 0.338078,0.39687 1.455208,0.39687 0.800365,0 1.455208,0.11907 1.455208,0.26459 0,0.14552 0.654844,0.26458 1.455209,0.26458 1.117129,0 1.455208,0.0922 1.455208,0.39687 0,0.30495 0.339,0.39688 1.463511,0.39688 1.056825,0 1.505834,0.11029 1.615808,0.39687 0.109439,0.2852 0.555627,0.39688 1.585595,0.39688 h 1.433298 l -0.07254,4.43177 -0.07254,4.43177 -1.322004,0.0833 c -0.800838,0.0505 -1.405773,0.233 -1.534501,0.46302 -0.143269,0.25601 -0.673079,0.37971 -1.626251,0.37971 -1.012595,0 -1.456968,0.11262 -1.56605,0.39688 -0.10745,0.28001 -0.544284,0.39687 -1.483515,0.39687 -0.732171,0 -1.331221,0.11907 -1.331221,0.26459 0,0.14552 -0.654843,0.26458 -1.455208,0.26458 -1.11713,0 -1.455208,0.0922 -1.455208,0.39687 0,0.30468 -0.338079,0.39688 -1.455209,0.39688 -1.117129,0 -1.455208,0.0922 -1.455208,0.39687 0,0.30372 -0.334933,0.39688 -1.426901,0.39688 -1.02428,0 -1.469873,0.11198 -1.579196,0.39687 -0.109975,0.28659 -0.558983,0.39688 -1.615807,0.39688 -0.804932,0 -1.463513,0.11906 -1.463513,0.26458 0,0.14552 -0.654843,0.26459 -1.4552078,0.26459 -1.1171296,0 -1.4552084,0.0922 -1.4552084,0.39687 0,0.30467 -0.3380787,0.39688 -1.4552083,0.39688 -1.1171296,0 -1.4552083,0.0922 -1.4552083,0.39687 0,0.30467 -0.3380788,0.39688 -1.4552084,0.39688 -1.1171295,0 -1.4552083,0.0922 -1.4552083,0.39687 0,0.51512 -2.85791487,0.57702 -3.05390258,0.0661 z M 19.922086,283.82125 c -0.827204,-0.4744 -1.173083,-1.06175 -1.182211,-2.00756 -0.01882,-1.95038 2.445486,-2.91594 3.852097,-1.50933 l 0.661458,0.66146 h 5.644119 c 4.672735,0 5.700323,0.0677 5.970698,0.3935 0.179621,0.21643 0.257466,0.57362 0.172993,0.79375 -0.130553,0.34022 -1.012682,0.40025 -5.881651,0.40025 h -5.728062 l -0.904031,0.79375 c -0.952167,0.83601 -1.728215,0.97725 -2.60541,0.47418 z m 11.35303,-4.83981 -0.661459,-0.66146 h -5.644118 c -4.826975,0 -5.694469,-0.0607 -5.991901,-0.41905 -0.252262,-0.30396 -0.271466,-0.54013 -0.06992,-0.8599 0.242945,-0.38544 0.996523,-0.4498 5.997042,-0.51213 5.692482,-0.071 5.722245,-0.0744 6.375499,-0.7276 0.917379,-0.91738 2.092142,-0.87275 3.081972,0.11708 0.959178,0.95918 0.986049,1.8437 0.08842,2.91047 -0.890066,1.05778 -2.207059,1.12107 -3.175534,0.15259 z"
         id="path4119"
         inkscape:connector-curvature="0" />
      <path
         style="fill:#fdcc53;stroke-width:0.26458332"
         d="M -0.31853928,293.66582 V 282.02415 H 1.0043774 c 0.7276042,0 1.3229167,0.11906 1.3229167,0.26458 0,0.14552 0.6585804,0.26459 1.4635122,0.26459 1.0568242,0 1.5058327,0.11028 1.6158075,0.39687 0.109323,0.28489 0.5549154,0.39688 1.5791961,0.39688 1.0919674,0 1.4269008,0.0932 1.4269008,0.39687 0,0.30467 0.3380788,0.39688 1.4552084,0.39688 1.1171299,0 1.4552079,0.0922 1.4552079,0.39687 0,0.30467 0.338079,0.39688 1.455209,0.39688 0.800364,0 1.455208,0.11906 1.455208,0.26458 0,0.14552 0.654844,0.26458 1.455208,0.26458 1.11713,0 1.455209,0.0922 1.455209,0.39688 0,0.30467 0.338078,0.39687 1.455208,0.39687 1.11713,0 1.455208,0.0922 1.455208,0.39688 0,0.30868 0.352778,0.39687 1.5875,0.39687 1.234723,0 1.5875,0.0882 1.5875,0.39688 0,0.30467 0.338079,0.39687 1.455209,0.39687 1.117129,0 1.455208,0.0922 1.455208,0.39688 0,0.30372 0.334933,0.39687 1.426901,0.39687 1.024281,0 1.469874,0.11199 1.579197,0.39688 0.10745,0.28001 0.544282,0.39687 1.483516,0.39687 h 1.331219 v 4.23334 4.23333 h -1.455208 c -1.117129,0 -1.455208,0.0922 -1.455208,0.39687 0,0.30468 -0.33808,0.39688 -1.455209,0.39688 -1.117129,0 -1.455208,0.0922 -1.455208,0.39687 0,0.30372 -0.334933,0.39688 -1.426901,0.39688 -1.02428,0 -1.469873,0.11198 -1.579196,0.39687 -0.109975,0.28659 -0.558983,0.39688 -1.615807,0.39688 -0.804932,0 -1.463513,0.11906 -1.463513,0.26458 0,0.14552 -0.599049,0.26459 -1.33122,0.26459 -0.939232,0 -1.376065,0.11686 -1.483516,0.39687 -0.109323,0.28489 -0.554915,0.39688 -1.579196,0.39688 -1.091968,0 -1.426901,0.0931 -1.426901,0.39687 0,0.30467 -0.338079,0.39688 -1.455208,0.39688 -1.11713,0 -1.455209,0.0922 -1.455209,0.39687 0,0.30372 -0.334933,0.39688 -1.4269004,0.39688 -1.0242807,0 -1.4698732,0.11198 -1.5791961,0.39687 -0.1074507,0.28001 -0.5442844,0.39688 -1.4835158,0.39688 -0.7321714,0 -1.3312206,0.11906 -1.3312206,0.26458 0,0.14552 -0.6585805,0.26458 -1.4635123,0.26458 -1.0568242,0 -1.5058327,0.11029 -1.6158075,0.39688 -0.106661,0.27795 -0.5402163,0.39687 -1.44690436,0.39687 H -0.31853928 Z M 19.555319,283.41321 c -0.306725,-0.25466 -0.6315,-0.8452 -0.721722,-1.31231 -0.137287,-0.71078 -0.03286,-0.98049 0.640308,-1.65365 0.983891,-0.98389 1.862773,-1.027 2.913471,-0.14289 0.783128,0.65896 0.806946,0.66147 6.304155,0.66551 3.03493,0.002 5.678599,0.10579 5.874816,0.23014 0.196221,0.12435 0.313725,0.44995 0.26112,0.72355 -0.0896,0.46603 -0.458687,0.50197 -5.839981,0.56875 -5.719285,0.071 -5.7472,0.0742 -6.400655,0.72761 -0.788842,0.78884 -2.205421,0.87916 -3.031512,0.19329 z m 11.81924,-4.53336 -0.927007,-0.81392 -5.7919,-0.0714 c -5.591708,-0.0689 -5.7919,-0.0897 -5.7919,-0.60058 0,-0.51087 0.200192,-0.53163 5.7919,-0.60057 l 5.7919,-0.0714 0.898036,-0.78849 c 1.01505,-0.89123 1.383998,-0.95172 2.4482,-0.4014 1.783604,0.92234 1.332301,3.6168 -0.670505,4.00318 -0.66847,0.12896 -0.994598,0.007 -1.748724,-0.6554 z"
         id="path4117"
         inkscape:connector-curvature="0" />
      <path
         style="fill:#f3b942;stroke-width:0.26458332"
         d="M 2.5918774,293.66582 V 282.8179 h 1.2946092 c 0.9364387,0 1.3390411,0.11579 1.4552083,0.41851 0.2087462,0.54399 0.2029769,19.9016 -0.00616,20.68201 -0.1378299,0.51431 -0.335343,0.59531 -1.4515955,0.59531 h -1.292062 z m -2.2784487,9.94043 c -0.26343731,-0.68651 0.10580233,-1.25391 0.7559116,-1.1616 0.8478838,0.12041 0.8478838,1.37193 0,1.49233 -0.35779051,0.0508 -0.66029036,-0.0815 -0.7559116,-0.33073 z m 8.2878686,-0.57963 C 8.4975748,302.9229 8.4127107,298.63116 8.4127107,293.48943 v -9.34861 h 1.4585503 1.458551 l -0.06949,9.45885 -0.06949,9.45885 -1.2004762,0.0784 c -0.6602617,0.0431 -1.2853398,-0.007 -1.3890625,-0.11025 z m -2.3024569,-0.75848 c -0.3912539,-0.47143 -0.1836203,-1.14121 0.4263382,-1.37527 0.6265254,-0.24042 1.2212479,0.62774 0.8742215,1.27616 -0.3177138,0.59366 -0.8560771,0.63468 -1.3005597,0.0991 z m 8.1992866,-8.60232 v -7.9375 h 1.197174 c 1.041636,0 1.230698,0.0882 1.455208,0.67868 0.142548,0.37493 0.258035,3.62372 0.258035,7.25882 0,3.63509 -0.115487,6.88389 -0.258035,7.25881 -0.22451,0.59051 -0.413572,0.67869 -1.455208,0.67869 h -1.197174 z m -2.278448,7.03001 c -0.263438,-0.6865 0.105802,-1.25391 0.755911,-1.16159 0.437286,0.0621 0.596496,0.26125 0.596496,0.74616 0,0.48491 -0.15921,0.68407 -0.596496,0.74616 -0.35779,0.0508 -0.66029,-0.0815 -0.755911,-0.33073 z m 8.099282,-7.16231 v -6.48229 h 1.181316 c 0.897143,0 1.247202,0.12311 1.455208,0.51178 0.292902,0.54729 0.394153,11.30238 0.113293,12.03429 -0.116167,0.30273 -0.518769,0.41852 -1.455208,0.41852 h -1.294609 z m -2.135073,5.79866 c -0.438181,-0.52798 -0.01714,-1.30074 0.7087,-1.30074 0.918602,0 0.726278,1.69327 -0.194876,1.71574 -0.09132,0.002 -0.322543,-0.18452 -0.513824,-0.415 z m 7.955906,-5.66636 v -5.02709 h 1.455208 1.455209 v 5.02709 5.02708 h -1.455209 -1.455208 z m -2.11387,4.10441 c -0.463884,-0.55895 -0.133035,-1.194 0.62205,-1.194 0.736837,0 1.114194,0.68923 0.670238,1.22416 -0.392419,0.47284 -0.884364,0.46136 -1.292288,-0.0302 z m 6.111362,-1.17623 c -0.186793,-0.11545 -0.29944,-0.49409 -0.250328,-0.84144 0.122291,-0.86489 1.372542,-0.91017 1.494412,-0.0541 0.09305,0.65361 -0.705475,1.22844 -1.244084,0.89556 z m -0.107789,-4.41834 c -0.353639,-0.35364 -0.183422,-1.36446 0.258313,-1.53397 0.660228,-0.25335 1.346787,0.52607 0.978516,1.11086 -0.315436,0.5009 -0.944012,0.71593 -1.236829,0.42311 z m -6.10205,-1.81714 c -0.22598,-0.58889 0.08774,-1.19062 0.620758,-1.19062 0.732716,0 1.203232,0.70216 0.797839,1.19062 -0.181157,0.21829 -0.540185,0.39688 -0.797839,0.39688 -0.257655,0 -0.536996,-0.17859 -0.620758,-0.39688 z m -5.672236,-1.24354 c -0.651476,-0.65147 -0.01008,-1.7046 0.839589,-1.37855 0.551802,0.21175 0.560427,1.32496 0.0119,1.53545 -0.532858,0.20448 -0.48045,0.21414 -0.851485,-0.1569 z m -6.035532,-1.64831 c -0.263438,-0.68651 0.105802,-1.25391 0.755911,-1.1616 0.847884,0.1204 0.847884,1.37192 0,1.49232 -0.35779,0.0508 -0.66029,-0.0815 -0.755911,-0.33072 z m -5.8086155,-1.32139 c -0.5270016,-0.38535 -0.3675936,-1.1304 0.2963706,-1.38519 0.5476793,-0.21016 1.2432472,0.48541 1.0330828,1.03309 -0.2308561,0.6016 -0.7868592,0.74885 -1.3294534,0.3521 z M 0.3134287,283.7625 c -0.26343731,-0.68651 0.10580233,-1.25391 0.7559116,-1.16159 0.8478838,0.1204 0.8478838,1.37192 0,1.49232 -0.35779051,0.0508 -0.66029036,-0.0815 -0.7559116,-0.33073 z m 19.2418903,-0.34929 c -0.306725,-0.25466 -0.6315,-0.8452 -0.721722,-1.31231 -0.137287,-0.71078 -0.03286,-0.98049 0.640308,-1.65365 0.983891,-0.98389 1.862773,-1.027 2.913471,-0.14289 0.783128,0.65896 0.806946,0.66147 6.304155,0.66551 3.03493,0.002 5.678599,0.10579 5.874816,0.23014 0.196221,0.12435 0.313725,0.44995 0.26112,0.72355 -0.0896,0.46603 -0.458687,0.50197 -5.839981,0.56875 -5.719285,0.071 -5.7472,0.0742 -6.400655,0.72761 -0.788842,0.78884 -2.205421,0.87916 -3.031512,0.19329 z m 11.81924,-4.53336 -0.927007,-0.81392 -5.7919,-0.0714 c -5.591708,-0.0689 -5.7919,-0.0897 -5.7919,-0.60058 0,-0.51087 0.200192,-0.53163 5.7919,-0.60057 l 5.7919,-0.0714 0.898036,-0.78849 c 1.01505,-0.89123 1.383998,-0.95172 2.4482,-0.4014 1.783604,0.92234 1.332301,3.6168 -0.670505,4.00318 -0.66847,0.12896 -0.994598,0.007 -1.748724,-0.6554 z"
         id="path4115"
         inkscape:connector-curvature="0" />
      <path
         style="fill:#eb5564;stroke-width:0.26458332"
         d="m 0.36687269,303.55471 c -0.22442083,-0.58484 0.45507232,-1.28426 1.03242061,-1.06272 0.2685787,0.10307 0.403429,0.3963 0.3512453,0.76379 -0.1055028,0.74297 -1.12846373,0.96397 -1.38366591,0.29893 z m 2.84909991,-0.76273 c -0.093364,-0.2433 0.01501,-0.61825 0.24525,-0.84849 0.562012,-0.56201 1.3074224,-0.23984 1.1997327,0.51854 -0.1043477,0.73484 -1.1941233,0.98368 -1.4449827,0.32995 z m 2.9873292,-0.78413 c -0.1933869,-0.50396 0.5224819,-1.21983 1.0264407,-1.02644 0.2140699,0.0821 0.3892182,0.43427 0.3892182,0.78251 0,0.49142 -0.1417275,0.63315 -0.6331508,0.63315 -0.3482329,0 -0.7003616,-0.17515 -0.7825081,-0.38922 z m 3.1795479,-0.31634 c -0.097014,-0.097 -0.176389,-0.4542 -0.176389,-0.79375 0,-0.47477 0.1462389,-0.61736 0.6331509,-0.61736 0.3482324,0 0.7074744,0.19369 0.7983144,0.43041 0.280546,0.73109 -0.7216128,1.51416 -1.2550763,0.9807 z m 2.8297083,-1.01424 c -0.209601,-0.54621 0.07459,-1.19062 0.525077,-1.19062 0.20503,0 0.521002,0.17859 0.702159,0.39687 0.262781,0.31664 0.262781,0.47712 0,0.79375 -0.181157,0.21829 -0.497129,0.39688 -0.702159,0.39688 -0.20503,0 -0.441315,-0.17859 -0.525077,-0.39688 z m 2.991125,-0.57326 c -0.335171,-0.33517 -0.174868,-1.0905 0.26746,-1.26023 0.562035,-0.21568 1.268153,0.46596 1.055844,1.01923 -0.160811,0.41906 -0.993575,0.57073 -1.323304,0.241 z m 2.821835,-1.03475 c -0.08809,-0.22957 0.03471,-0.61227 0.272888,-0.85045 0.401018,-0.40102 0.465092,-0.40102 0.86611,0 0.540936,0.54094 0.292648,1.26784 -0.433055,1.26784 -0.300176,0 -0.61785,-0.18783 -0.705943,-0.41739 z m 3.089989,-0.50528 c -0.471434,-0.56805 -0.122392,-1.24783 0.588631,-1.14641 0.678106,0.0967 0.962346,0.96633 0.426793,1.30572 -0.496017,0.31434 -0.641236,0.29156 -1.015424,-0.15931 z m 2.931032,-0.88567 c -0.209032,-0.39058 -0.181817,-0.59624 0.11107,-0.83931 0.563344,-0.46753 1.241835,-0.11472 1.140846,0.59324 -0.108842,0.76302 -0.892788,0.91711 -1.251916,0.24607 z m 2.982686,-0.7052 c -0.209603,-0.54621 0.07459,-1.19063 0.525077,-1.19063 0.20503,0 0.521001,0.1786 0.702159,0.39688 0.262781,0.31663 0.262781,0.47712 0,0.79375 -0.181158,0.21828 -0.497129,0.39687 -0.702159,0.39687 -0.205031,0 -0.441315,-0.17859 -0.525077,-0.39687 z m 2.991125,-0.57327 c -0.335171,-0.33517 -0.174868,-1.09049 0.26746,-1.26023 0.244118,-0.0937 0.605679,-0.008 0.803473,0.1893 0.197792,0.19779 0.282977,0.55936 0.189302,0.80347 -0.169738,0.44233 -0.925063,0.60264 -1.260235,0.26746 z m 0.08638,-4.45601 c -0.467534,-0.56334 -0.114715,-1.24183 0.593244,-1.14084 0.763018,0.10884 0.917107,0.89279 0.24607,1.25192 -0.39058,0.20903 -0.596238,0.18181 -0.839314,-0.11108 z m -3.077501,-0.79156 c -0.232198,-0.60509 0.09309,-1.19062 0.661459,-1.19062 0.6258,0 0.9471,0.73116 0.537945,1.22416 -0.398071,0.47965 -1.009033,0.46256 -1.199404,-0.0335 z m -3.0077,-0.79568 c -0.292764,-0.35276 -0.281354,-0.48996 0.06996,-0.84127 0.567398,-0.5674 1.31549,-0.25217 1.20697,0.50859 -0.103374,0.72468 -0.800799,0.90639 -1.27693,0.33268 z m -3.017152,-0.8248 c -0.224421,-0.58483 0.455072,-1.28426 1.03242,-1.06271 0.268579,0.10306 0.403429,0.39629 0.351246,0.76378 -0.105503,0.74298 -1.128464,0.96398 -1.383666,0.29893 z m -2.985664,-0.79903 c -0.102438,-0.26695 0.02395,-0.57474 0.326996,-0.79633 0.419158,-0.3065 0.551366,-0.30381 0.87292,0.0177 0.20842,0.20842 0.306871,0.56677 0.218778,0.79634 -0.210799,0.54933 -1.205862,0.53689 -1.418694,-0.0178 z m -2.724035,-0.48753 c -0.43963,-0.52972 -0.146787,-1.194 0.52637,-1.194 0.300176,0 0.614889,0.18011 0.699363,0.40025 0.152035,0.3962 -0.313944,1.18725 -0.699363,1.18725 -0.109884,0 -0.346751,-0.17707 -0.52637,-0.3935 z m -3.082116,-0.79712 c -0.232199,-0.6051 0.09309,-1.19063 0.661458,-1.19063 0.625801,0 0.947102,0.73116 0.537946,1.22416 -0.398069,0.47965 -1.009034,0.46257 -1.199404,-0.0335 z m -2.9104171,-0.79375 c -0.2096008,-0.54621 0.074592,-1.19063 0.5250773,-1.19063 0.2050308,0 0.5210018,0.1786 0.7021588,0.39688 0.262781,0.31663 0.262781,0.47712 0,0.79375 -0.181157,0.21828 -0.497128,0.39687 -0.7021588,0.39687 -0.2050301,0 -0.4413147,-0.17859 -0.5250773,-0.39687 z m -2.9597987,-0.73797 c -0.2282354,-0.275 -0.2154926,-0.48197 0.052216,-0.84808 0.478541,-0.65445 1.2904144,-0.33869 1.1768135,0.45768 -0.098916,0.69344 -0.7942329,0.9143 -1.2290295,0.3904 z m -2.7610755,-0.48598 c -0.5913419,-0.33093 -0.5899733,-0.93966 0.0028,-1.24453 0.6211821,-0.31949 1.1244792,-0.10744 1.1244792,0.47376 0,0.69289 -0.5700126,1.08263 -1.1272774,0.77077 z m -3.06880632,-1.64159 c -0.44957908,-0.5417 -0.0807439,-1.2793 0.59173842,-1.18335 0.4003785,0.0571 0.5616369,0.26902 0.5616369,0.73797 0,0.75479 -0.67898635,1.01699 -1.15337532,0.44538 z M 19.555319,283.41321 c -0.306725,-0.25466 -0.6315,-0.8452 -0.721722,-1.31231 -0.137287,-0.71078 -0.03286,-0.98049 0.640308,-1.65365 0.983891,-0.98389 1.862773,-1.027 2.913471,-0.14289 0.783128,0.65896 0.806946,0.66147 6.304155,0.66551 3.03493,0.002 5.678599,0.10579 5.874816,0.23014 0.196221,0.12435 0.313725,0.44995 0.26112,0.72355 -0.0896,0.46603 -0.458687,0.50197 -5.839981,0.56875 -5.719285,0.071 -5.7472,0.0742 -6.400655,0.72761 -0.788842,0.78884 -2.205421,0.87916 -3.031512,0.19329 z m 11.81924,-4.53336 -0.927007,-0.81392 -5.7919,-0.0714 c -5.591708,-0.0689 -5.7919,-0.0897 -5.7919,-0.60058 0,-0.51087 0.200192,-0.53163 5.7919,-0.60057 l 5.7919,-0.0714 0.898036,-0.78849 c 1.01505,-0.89123 1.383998,-0.95172 2.4482,-0.4014 1.783604,0.92234 1.332301,3.6168 -0.670505,4.00318 -0.66847,0.12896 -0.994598,0.007 -1.748724,-0.6554 z"
         id="path4113"
         inkscape:connector-curvature="0" />
      <path
         style="fill:#aa8e4e;stroke-width:0.26458332"
         d="m 0.36687269,303.55471 c -0.22442083,-0.58484 0.45507232,-1.28426 1.03242061,-1.06272 0.2685787,0.10307 0.403429,0.3963 0.3512453,0.76379 -0.1055028,0.74297 -1.12846373,0.96397 -1.38366591,0.29893 z m 2.84909991,-0.76273 c -0.093364,-0.2433 0.01501,-0.61825 0.24525,-0.84849 0.562012,-0.56201 1.3074224,-0.23984 1.1997327,0.51854 -0.1043477,0.73484 -1.1941233,0.98368 -1.4449827,0.32995 z m 2.9873292,-0.78413 c -0.1933869,-0.50396 0.5224819,-1.21983 1.0264407,-1.02644 0.2140699,0.0821 0.3892182,0.43427 0.3892182,0.78251 0,0.49142 -0.1417275,0.63315 -0.6331508,0.63315 -0.3482329,0 -0.7003616,-0.17515 -0.7825081,-0.38922 z m 3.1795479,-0.31634 c -0.097014,-0.097 -0.176389,-0.4542 -0.176389,-0.79375 0,-0.47477 0.1462389,-0.61736 0.6331509,-0.61736 0.3482324,0 0.7074744,0.19369 0.7983144,0.43041 0.280546,0.73109 -0.7216128,1.51416 -1.2550763,0.9807 z m 2.8297083,-1.01424 c -0.209601,-0.54621 0.07459,-1.19062 0.525077,-1.19062 0.20503,0 0.521002,0.17859 0.702159,0.39687 0.262781,0.31664 0.262781,0.47712 0,0.79375 -0.181157,0.21829 -0.497129,0.39688 -0.702159,0.39688 -0.20503,0 -0.441315,-0.17859 -0.525077,-0.39688 z m 2.991125,-0.57326 c -0.335171,-0.33517 -0.174868,-1.0905 0.26746,-1.26023 0.562035,-0.21568 1.268153,0.46596 1.055844,1.01923 -0.160811,0.41906 -0.993575,0.57073 -1.323304,0.241 z m 2.821835,-1.03475 c -0.08809,-0.22957 0.03471,-0.61227 0.272888,-0.85045 0.401018,-0.40102 0.465092,-0.40102 0.86611,0 0.540936,0.54094 0.292648,1.26784 -0.433055,1.26784 -0.300176,0 -0.61785,-0.18783 -0.705943,-0.41739 z m 3.089989,-0.50528 c -0.471434,-0.56805 -0.122392,-1.24783 0.588631,-1.14641 0.678106,0.0967 0.962346,0.96633 0.426793,1.30572 -0.496017,0.31434 -0.641236,0.29156 -1.015424,-0.15931 z m 2.931032,-0.88567 c -0.209032,-0.39058 -0.181817,-0.59624 0.11107,-0.83931 0.563344,-0.46753 1.241835,-0.11472 1.140846,0.59324 -0.108842,0.76302 -0.892788,0.91711 -1.251916,0.24607 z m 2.982686,-0.7052 c -0.209603,-0.54621 0.07459,-1.19063 0.525077,-1.19063 0.20503,0 0.521001,0.1786 0.702159,0.39688 0.262781,0.31663 0.262781,0.47712 0,0.79375 -0.181158,0.21828 -0.497129,0.39687 -0.702159,0.39687 -0.205031,0 -0.441315,-0.17859 -0.525077,-0.39687 z m 2.991125,-0.57327 c -0.335171,-0.33517 -0.174868,-1.09049 0.26746,-1.26023 0.244118,-0.0937 0.605679,-0.008 0.803473,0.1893 0.197792,0.19779 0.282977,0.55936 0.189302,0.80347 -0.169738,0.44233 -0.925063,0.60264 -1.260235,0.26746 z m 0.08638,-4.45601 c -0.467534,-0.56334 -0.114715,-1.24183 0.593244,-1.14084 0.763018,0.10884 0.917107,0.89279 0.24607,1.25192 -0.39058,0.20903 -0.596238,0.18181 -0.839314,-0.11108 z m -3.077501,-0.79156 c -0.232198,-0.60509 0.09309,-1.19062 0.661459,-1.19062 0.6258,0 0.9471,0.73116 0.537945,1.22416 -0.398071,0.47965 -1.009033,0.46256 -1.199404,-0.0335 z m -3.0077,-0.79568 c -0.292764,-0.35276 -0.281354,-0.48996 0.06996,-0.84127 0.567398,-0.5674 1.31549,-0.25217 1.20697,0.50859 -0.103374,0.72468 -0.800799,0.90639 -1.27693,0.33268 z m -3.017152,-0.8248 c -0.224421,-0.58483 0.455072,-1.28426 1.03242,-1.06271 0.268579,0.10306 0.403429,0.39629 0.351246,0.76378 -0.105503,0.74298 -1.128464,0.96398 -1.383666,0.29893 z m -2.985664,-0.79903 c -0.102438,-0.26695 0.02395,-0.57474 0.326996,-0.79633 0.419158,-0.3065 0.551366,-0.30381 0.87292,0.0177 0.20842,0.20842 0.306871,0.56677 0.218778,0.79634 -0.210799,0.54933 -1.205862,0.53689 -1.418694,-0.0178 z m -2.724035,-0.48753 c -0.43963,-0.52972 -0.146787,-1.194 0.52637,-1.194 0.300176,0 0.614889,0.18011 0.699363,0.40025 0.152035,0.3962 -0.313944,1.18725 -0.699363,1.18725 -0.109884,0 -0.346751,-0.17707 -0.52637,-0.3935 z m -3.082116,-0.79712 c -0.232199,-0.6051 0.09309,-1.19063 0.661458,-1.19063 0.625801,0 0.947102,0.73116 0.537946,1.22416 -0.398069,0.47965 -1.009034,0.46257 -1.199404,-0.0335 z m -2.9104171,-0.79375 c -0.2096008,-0.54621 0.074592,-1.19063 0.5250773,-1.19063 0.2050308,0 0.5210018,0.1786 0.7021588,0.39688 0.262781,0.31663 0.262781,0.47712 0,0.79375 -0.181157,0.21828 -0.497128,0.39687 -0.7021588,0.39687 -0.2050301,0 -0.4413147,-0.17859 -0.5250773,-0.39687 z m -2.9597987,-0.73797 c -0.2282354,-0.275 -0.2154926,-0.48197 0.052216,-0.84808 0.478541,-0.65445 1.2904144,-0.33869 1.1768135,0.45768 -0.098916,0.69344 -0.7942329,0.9143 -1.2290295,0.3904 z m -2.7610755,-0.48598 c -0.5913419,-0.33093 -0.5899733,-0.93966 0.0028,-1.24453 0.6211821,-0.31949 1.1244792,-0.10744 1.1244792,0.47376 0,0.69289 -0.5700126,1.08263 -1.1272774,0.77077 z m -3.06880632,-1.64159 c -0.44957908,-0.5417 -0.0807439,-1.2793 0.59173842,-1.18335 0.4003785,0.0571 0.5616369,0.26902 0.5616369,0.73797 0,0.75479 -0.67898635,1.01699 -1.15337532,0.44538 z M 23.097086,281.76445 v -0.79863 l 5.55625,0.004 c 3.055937,0.002 5.716794,0.10579 5.913011,0.23014 0.196221,0.12435 0.313722,0.44995 0.261115,0.72355 -0.08966,0.4663 -0.460132,0.50191 -5.913012,0.5685 l -5.817364,0.071 z m -4.265083,-4.09325 c -0.329581,-0.85888 0.18076,-0.93872 6.000489,-0.93872 h 5.805219 v 0.66146 0.66146 h -5.829138 c -4.851944,0 -5.853852,-0.0644 -5.97657,-0.3842 z"
         id="path4111"
         inkscape:connector-curvature="0" />
      <path
         style="fill:#8a774e;stroke-width:0.26458332"
         d="m 0.65159962,303.80818 c -0.31320997,-0.31321 -0.18737482,-1.0857 0.2011416,-1.23479 0.58713888,-0.2253 1.08902088,0.52243 0.68080288,1.0143 -0.3584106,0.43186 -0.60813994,0.49429 -0.88194448,0.22049 z m 2.91956308,-0.78461 c -0.1020445,-0.10204 -0.1855353,-0.41209 -0.1855353,-0.689 0,-0.37078 0.1568955,-0.48119 0.5953125,-0.41893 0.3891785,0.0553 0.5953125,0.26653 0.5953125,0.61009 0,0.52483 -0.654109,0.84882 -1.0050897,0.49784 z m 2.8212408,-1.02161 c -0.091643,-0.23882 -0.039755,-0.56108 0.1153072,-0.71614 0.4031216,-0.40313 1.166921,-0.0347 1.0616203,0.5121 -0.1172903,0.60903 -0.9651122,0.75602 -1.1769275,0.20404 z m 2.902913,-0.8133 c -0.087516,-0.22807 -0.032251,-0.54153 0.1228109,-0.69659 0.4115469,-0.41155 1.1112496,-0.0503 1.1112496,0.57378 0,0.65252 -0.9928758,0.75132 -1.2340605,0.12281 z m 3.0620715,-0.54039 c -0.263531,-0.31754 -0.246462,-0.47531 0.08756,-0.80933 0.48504,-0.48504 0.994849,-0.26532 0.994849,0.42877 0,0.64197 -0.669966,0.87752 -1.082406,0.38056 z m 2.944108,-0.75316 c -0.396649,-0.47793 -0.141927,-0.93763 0.519548,-0.93763 0.273865,0 0.574745,0.12428 0.668621,0.27618 0.17544,0.28386 -0.311857,1.04674 -0.668621,1.04674 -0.109884,0 -0.343681,-0.17338 -0.519548,-0.38529 z m 2.826661,-0.74919 c -0.209787,-0.5467 0.199867,-1.04773 0.7673,-0.93845 0.702959,0.13538 0.651203,1.12495 -0.06417,1.22702 -0.3089,0.0441 -0.625306,-0.0858 -0.703125,-0.28857 z m 3.029522,-1.02716 c 0.11283,-0.79656 1.145657,-0.87528 1.145657,-0.0873 0,0.35278 -0.205497,0.55828 -0.61649,0.61649 -0.512978,0.0727 -0.601828,-0.0162 -0.529167,-0.52917 z m 3.146151,-0.20965 c -0.505385,-0.31234 -0.221006,-1.20059 0.384379,-1.20059 0.334115,0 0.554732,0.20458 0.605678,0.56164 0.0874,0.61256 -0.460563,0.9662 -0.990057,0.63895 z m 2.960443,-0.71552 c -0.481197,-0.19247 -0.405021,-1.0614 0.11039,-1.25918 0.551555,-0.21165 0.960204,0.17257 0.840465,0.79023 -0.09905,0.51092 -0.433531,0.67588 -0.950855,0.46895 z m 2.687733,-0.98201 c -0.214146,-0.55805 0.08644,-0.95826 0.719722,-0.95826 0.399714,0 0.510934,0.14732 0.447405,0.59261 -0.09867,0.69161 -0.940802,0.95545 -1.167127,0.36565 z m -0.01918,-4.54792 c -0.08752,-0.22807 -0.03226,-0.54153 0.122803,-0.69659 0.411547,-0.41155 1.11125,-0.0503 1.11125,0.57378 0,0.65252 -0.992875,0.75132 -1.234061,0.12281 z m -2.744944,-0.52374 c -0.417801,-0.50342 -0.109577,-1.23991 0.472477,-1.12898 0.581687,0.11087 0.760516,1.15392 0.232572,1.35652 -0.215337,0.0826 -0.532609,-0.0198 -0.705049,-0.22754 z m -2.834023,-0.57784 c -0.181901,-0.0634 -0.33073,-0.33083 -0.33073,-0.59417 0,-0.51447 0.456443,-0.79357 0.992188,-0.60669 0.181901,0.0634 0.330729,0.33083 0.330729,0.59417 0,0.51447 -0.456443,0.79357 -0.992187,0.60669 z m -3.055611,-0.76767 c -0.102044,-0.10205 -0.185535,-0.4121 -0.185535,-0.68901 0,-0.37078 0.156895,-0.48119 0.595312,-0.41892 0.389179,0.0553 0.595313,0.26652 0.595313,0.61009 0,0.52483 -0.654109,0.84882 -1.00509,0.49784 z m -3.170089,-0.96724 c -0.209787,-0.5467 0.199867,-1.04773 0.7673,-0.93845 0.702959,0.13538 0.651203,1.12495 -0.06417,1.22702 -0.3089,0.0441 -0.625306,-0.0858 -0.703125,-0.28857 z m -3.000321,-0.83722 c -0.201897,-0.52614 0.0972,-0.93872 0.680515,-0.93872 0.507778,0 0.91509,0.66849 0.659395,1.08221 -0.235365,0.38083 -1.177421,0.27994 -1.33991,-0.14349 z m -2.714134,-0.48314 c -0.421833,-0.42184 -0.367325,-0.90107 0.123927,-1.08959 0.556753,-0.21364 0.902165,0.0242 0.902165,0.62132 0,0.59197 -0.619623,0.87474 -1.026092,0.46827 z m -3.0217059,-0.62282 c -0.3127351,-0.31273 -0.2061107,-1.09116 0.1691873,-1.23518 0.5332996,-0.20464 1.0326606,0.21082 0.9250426,0.76963 -0.09815,0.50963 -0.7660066,0.79377 -1.0942299,0.46555 z m -2.9104167,-0.79375 c -0.1020445,-0.10204 -0.1855353,-0.4121 -0.1855353,-0.68901 0,-0.37078 0.1568955,-0.48118 0.5953125,-0.41892 0.3891785,0.0553 0.5953125,0.26652 0.5953125,0.61009 0,0.52483 -0.654109,0.84882 -1.0050897,0.49784 z m -3.095952,-1.28797 c 0,-0.57278 0.1069763,-0.68306 0.5953125,-0.61371 0.3907409,0.0555 0.5953125,0.26639 0.5953125,0.61371 0,0.34733 -0.2045716,0.55823 -0.5953125,0.61372 -0.4883362,0.0693 -0.5953125,-0.0409 -0.5953125,-0.61372 z m -2.57968751,-0.84752 c -0.40782229,-0.1512 -0.43603296,-1.04054 -0.0407561,-1.28483 0.15948522,-0.0986 0.48265491,0.0135 0.71815481,0.24897 0.3754152,0.37541 0.3804377,0.47318 0.040756,0.79333 -0.213084,0.20083 -0.5362537,0.30997 -0.71815471,0.24253 z m 22.35773111,-2.05793 0.127395,-0.66642 h 5.808392 5.80839 l -0.08455,0.59531 c -0.08441,0.59438 -0.09373,0.59543 -5.935787,0.66643 l -5.851237,0.0711 z m -4.331668,-4.22562 c -0.329581,-0.85888 0.18076,-0.93872 6.000489,-0.93872 h 5.805219 v 0.66146 0.66146 h -5.829138 c -4.851944,0 -5.853852,-0.0644 -5.97657,-0.3842 z"
         id="path4109"
         inkscape:connector-curvature="0" />
      <path
         style="fill:#484d53;stroke-width:0.26458332"
         d="m 0.47521072,303.19082 c 0,-0.61634 0.91949038,-0.74345 1.14408748,-0.15816 0.1784122,0.46493 -0.034819,0.68732 -0.65901804,0.68732 -0.30868054,0 -0.48506944,-0.19242 -0.48506944,-0.52916 z m 3.01095888,-0.38421 c -0.1861913,-0.48521 0.084795,-0.93871 0.5609161,-0.93871 0.544534,0 0.7508476,0.49953 0.3872561,0.93763 -0.4070414,0.49046 -0.760227,0.49086 -0.9481722,0.001 z m 2.9062339,-0.80465 c -0.091643,-0.23882 -0.039755,-0.56108 0.1153072,-0.71614 0.4031216,-0.40313 1.166921,-0.0347 1.0616203,0.5121 -0.1172903,0.60903 -0.9651122,0.75602 -1.1769275,0.20404 z m 2.9069945,-0.80267 c -0.097532,-0.25416 -0.01257,-0.54274 0.1992376,-0.67671 0.5242874,-0.33162 0.8984504,-0.14934 0.8984504,0.4377 0,0.63911 -0.8713499,0.82884 -1.097688,0.23901 z m 2.949771,-0.65431 c -0.244291,-0.39527 0.09561,-0.79375 0.677073,-0.79375 0.337163,0 0.513552,0.18176 0.513552,0.52917 0,0.5612 -0.885669,0.75801 -1.190625,0.26458 z m 3.042708,-1.05833 c 0,-0.35278 0.176389,-0.52917 0.529167,-0.52917 0.352778,0 0.529167,0.17639 0.529167,0.52917 0,0.35278 -0.176389,0.52917 -0.529167,0.52917 -0.352778,0 -0.529167,-0.17639 -0.529167,-0.52917 z m 2.999273,-0.41466 c -0.22052,-0.57466 0.339311,-1.11509 0.740026,-0.71437 0.338676,0.33867 0.128866,1.12903 -0.299715,1.12903 -0.154655,0 -0.352795,-0.1866 -0.440311,-0.41466 z m 2.910417,-0.79375 c -0.08752,-0.22806 -0.0234,-0.55038 0.142485,-0.71626 0.372384,-0.37239 1.25458,0.38854 0.974975,0.84095 -0.264079,0.42729 -0.934346,0.3525 -1.11746,-0.12469 z m 2.906994,-0.80267 c -0.225563,-0.58781 0.479071,-0.97712 0.93806,-0.51828 0.19912,0.19905 0.28139,0.4924 0.182823,0.65189 -0.266179,0.43068 -0.934933,0.35097 -1.120883,-0.13361 z m 2.943027,-0.65781 c -0.250039,-0.40457 0.292603,-0.87279 0.790212,-0.68184 0.228063,0.0875 0.414661,0.34145 0.414661,0.5643 0,0.46241 -0.935339,0.55366 -1.204873,0.11754 z m 3.111802,-0.57232 c -0.392208,-0.47258 0.03628,-1.1153 0.599463,-0.89919 0.475269,0.18238 0.461722,0.99059 -0.01929,1.15072 -0.160062,0.0533 -0.421142,-0.0599 -0.580178,-0.25153 z m -0.143103,-4.54465 c -0.201755,-0.52577 0.546335,-1.12231 0.928351,-0.74029 0.36535,0.36534 0.09164,1.11782 -0.406609,1.11782 -0.207277,0 -0.442063,-0.16989 -0.521742,-0.37753 z m -2.970144,-0.7062 c -0.09857,-0.15948 -0.0163,-0.45283 0.182825,-0.65189 0.458988,-0.45884 1.163621,-0.0695 0.938059,0.51829 -0.185949,0.48458 -0.854705,0.56429 -1.120884,0.1336 z m -2.899918,-0.77676 c -0.102753,-0.16626 -0.06233,-0.42679 0.08984,-0.57895 0.355574,-0.35557 1.184576,-0.0454 1.039912,0.38906 -0.147268,0.4423 -0.895977,0.56814 -1.12975,0.18989 z m -2.745339,-0.50363 c -0.450499,-0.27852 -0.194576,-1.07547 0.345364,-1.07547 0.58092,0 0.798059,0.5299 0.385955,0.94187 -0.227368,0.22729 -0.4994,0.27699 -0.731319,0.1336 z m -3.093607,-0.9085 c -0.198585,-0.51751 0.07198,-0.96072 0.58649,-0.96072 0.25976,0 0.370066,0.20114 0.315115,0.57459 -0.102665,0.69771 -0.686148,0.9476 -0.901605,0.38613 z m -2.974742,-1.00332 c 0.0482,-0.34037 0.266226,-0.61886 0.484507,-0.61886 0.573809,0 0.494765,1.03224 -0.08763,1.1444 -0.375726,0.0724 -0.464832,-0.0456 -0.396875,-0.52554 z m -3.10306,-0.51195 c -0.09857,-0.15949 -0.0163,-0.45284 0.182823,-0.65189 0.458989,-0.45884 1.163624,-0.0695 0.938061,0.51828 -0.185951,0.48458 -0.854704,0.56429 -1.120884,0.13361 z m -2.9089727,-0.79142 c -0.2500386,-0.40457 0.2926019,-0.87279 0.7902137,-0.68184 0.228063,0.0875 0.414659,0.34145 0.414659,0.5643 0,0.46241 -0.9353395,0.55366 -1.2048727,0.11754 z m -2.7362854,-0.48898 c -0.4504981,-0.27852 -0.1945756,-1.07546 0.3453646,-1.07546 0.5809197,0 0.7980588,0.52989 0.3859546,0.94186 -0.2273676,0.22729 -0.4993997,0.27699 -0.7313192,0.1336 z m -3.1020493,-0.9305 c -0.184313,-0.48031 0.0834,-0.93871 0.5482235,-0.93871 0.4047197,0 0.6502228,0.50658 0.4808355,0.99218 -0.1580938,0.45323 -0.8483851,0.41736 -1.029059,-0.0535 z m -3.01095888,-1.73246 c 0,-0.33675 0.1763889,-0.52917 0.48506944,-0.52917 0.62419874,0 0.83743024,0.22239 0.65901804,0.68733 -0.2245971,0.58529 -1.14408748,0.45818 -1.14408748,-0.15816 z M 23.229377,281.89186 v -0.67178 l 5.754688,0.0713 c 5.55453,0.0688 5.754687,0.0897 5.754687,0.60047 0,0.51076 -0.200157,0.53165 -5.754687,0.60047 l -5.754688,0.0713 z m -4.316641,-4.20109 c -0.3231,-0.84199 0.415904,-0.95829 6.08935,-0.95829 h 5.635625 v 0.66146 0.66146 h -5.792526 c -4.677204,0 -5.819468,-0.0702 -5.932449,-0.36463 z"
         id="path4107"
         inkscape:connector-curvature="0" />
      <path
         style="fill:#3a4453;stroke-width:0.26458332"
         d="m 0.59325439,303.43235 c -0.23089589,-0.3736 0.27905517,-0.88355 0.65265261,-0.65266 0.1582004,0.0978 0.2876371,0.34934 0.2876371,0.55903 0,0.44546 -0.68094113,0.51326 -0.94028971,0.0936 z m 0.67570631,-0.24153 c 0,-0.14552 -0.052504,-0.26459 -0.1166767,-0.26459 -0.064172,0 -0.19026145,0.11907 -0.28019828,0.26459 -0.0899368,0.14552 -0.0374323,0.26458 0.11667676,0.26458 0.15410902,0 0.28019822,-0.11906 0.28019822,-0.26458 z M 3.503671,302.6386 c -0.2308958,-0.3736 0.2790552,-0.88355 0.6526527,-0.65266 0.4196347,0.25935 0.3518347,0.94029 -0.093623,0.94029 -0.2096931,0 -0.4612563,-0.12943 -0.5590297,-0.28763 z m 0.6757064,-0.24153 c 0,-0.14552 -0.052504,-0.26459 -0.1166768,-0.26459 -0.064172,0 -0.1902613,0.11907 -0.2801982,0.26459 -0.089937,0.14552 -0.037432,0.26458 0.1166767,0.26458 0.154109,0 0.2801983,-0.11906 0.2801983,-0.26458 z m 2.38125,-0.66146 c 0,-0.21828 0.1785937,-0.39688 0.396875,-0.39688 0.2182812,0 0.396875,0.1786 0.396875,0.39688 0,0.21828 -0.1785938,0.39687 -0.396875,0.39687 -0.2182813,0 -0.396875,-0.17859 -0.396875,-0.39687 z m 3.0017183,-0.54058 c -0.1996374,-0.52024 0.036599,-0.75911 0.5542853,-0.56046 0.232539,0.0892 0.337598,0.32755 0.247687,0.56186 -0.200575,0.52269 -0.6011292,0.52199 -0.8019723,-0.001 z m 0.5701563,-0.12088 c 0.08994,-0.14552 0.03743,-0.26458 -0.116676,-0.26458 -0.1541093,0 -0.2801986,0.11906 -0.2801986,0.26458 0,0.14552 0.052504,0.26458 0.1166767,0.26458 0.064172,0 0.1902609,-0.11906 0.2801979,-0.26458 z m 2.248959,-0.79375 c 0,-0.3985 0.138152,-0.54136 0.463021,-0.4788 0.254661,0.049 0.46302,0.2645 0.46302,0.4788 0,0.2143 -0.208359,0.42975 -0.46302,0.4788 -0.324869,0.0626 -0.463021,-0.0803 -0.463021,-0.4788 z m 0.79375,0 c 0,-0.14552 -0.119063,-0.26458 -0.264584,-0.26458 -0.14552,0 -0.264583,0.11906 -0.264583,0.26458 0,0.14552 0.119063,0.26458 0.264583,0.26458 0.145521,0 0.264584,-0.11906 0.264584,-0.26458 z m 2.167035,-0.7276 c 0.04904,-0.25467 0.264503,-0.46303 0.478798,-0.46303 0.214295,0 0.429755,0.20836 0.478798,0.46303 0.06256,0.32486 -0.0803,0.46302 -0.478798,0.46302 -0.398502,0 -0.541362,-0.13816 -0.478798,-0.46302 z m 0.743381,-0.0661 c 0,-0.14552 -0.119062,-0.26458 -0.264583,-0.26458 -0.145521,0 -0.264583,0.11906 -0.264583,0.26458 0,0.14552 0.119062,0.26458 0.264583,0.26458 0.145521,0 0.264583,-0.11906 0.264583,-0.26458 z m 2.116667,-0.66146 c 0,-0.22048 0.235185,-0.39687 0.529167,-0.39687 0.293981,0 0.529166,0.17639 0.529166,0.39687 0,0.22049 -0.235185,0.39688 -0.529166,0.39688 -0.293982,0 -0.529167,-0.17639 -0.529167,-0.39688 z m 3.194616,-0.38475 c -0.417646,-0.25812 -0.150608,-0.80587 0.392874,-0.80587 0.40217,0 0.529979,0.6706 0.17019,0.89297 -0.116089,0.0717 -0.369468,0.0326 -0.563064,-0.0871 z m 0.509551,-0.27671 c 0,-0.14552 -0.12609,-0.26458 -0.280199,-0.26458 -0.154108,0 -0.206613,0.11906 -0.116676,0.26458 0.08994,0.14552 0.216026,0.26459 0.280198,0.26459 0.06417,0 0.116677,-0.11907 0.116677,-0.26459 z m 2.295496,-0.63559 c -0.166046,-0.43271 0.02908,-0.68732 0.526726,-0.68732 0.194028,0 0.352778,0.23812 0.352778,0.52916 0,0.60162 -0.663544,0.72095 -0.879504,0.15816 z m 0.61492,-0.15816 c 0,-0.14552 -0.126089,-0.26458 -0.280198,-0.26458 -0.154109,0 -0.206614,0.11906 -0.116677,0.26458 0.08994,0.14552 0.216026,0.26459 0.280199,0.26459 0.06417,0 0.116676,-0.11907 0.116676,-0.26459 z m 2.38125,-0.79375 c 0,-0.3985 0.138153,-0.54136 0.463021,-0.47879 0.254662,0.049 0.463021,0.2645 0.463021,0.47879 0,0.2143 -0.208359,0.42976 -0.463021,0.4788 -0.324868,0.0626 -0.463021,-0.0803 -0.463021,-0.4788 z m 2.956158,-0.70357 c 0.111509,-0.57902 0.880301,-0.66094 0.880301,-0.0938 0,0.21629 -0.219173,0.43546 -0.487048,0.48705 -0.353589,0.0681 -0.461346,-0.0397 -0.393253,-0.39325 z m 0.748009,0.0577 c 0,-0.0642 -0.119062,-0.19026 -0.264583,-0.2802 -0.145521,-0.0899 -0.264584,-0.0374 -0.264584,0.11668 0,0.15411 0.119063,0.2802 0.264584,0.2802 0.145521,0 0.264583,-0.0525 0.264583,-0.11668 z m -0.63559,-4.04669 c -0.348432,-0.34843 -0.127093,-0.86372 0.371007,-0.86372 0.291041,0 0.529166,0.16586 0.529166,0.36857 0,0.39911 -0.642696,0.75263 -0.900173,0.49515 z m -2.886676,-0.77001 c -0.363495,-0.3635 -0.174953,-0.92492 0.28112,-0.83709 0.254662,0.0491 0.463021,0.25621 0.463021,0.46037 0,0.41774 -0.466802,0.65406 -0.744141,0.37672 z m 0.479558,-0.35829 c 0.08994,-0.14552 0.03743,-0.26458 -0.116676,-0.26458 -0.154109,0 -0.280199,0.11906 -0.280199,0.26458 0,0.14552 0.0525,0.26458 0.116676,0.26458 0.06417,0 0.190262,-0.11906 0.280199,-0.26458 z m -3.704167,-0.52917 c -0.221467,-0.35834 0.07737,-0.79375 0.544782,-0.79375 0.209693,0 0.38126,0.23813 0.38126,0.52917 0,0.54777 -0.63831,0.73014 -0.926042,0.26458 z m -2.924665,-0.8168 c -0.09777,-0.1582 -0.05564,-0.40976 0.09362,-0.55903 0.333807,-0.33381 0.846667,-0.0519 0.846667,0.46541 0,0.44545 -0.680941,0.51325 -0.94029,0.0936 z m 0.675707,-0.24153 c 0,-0.14552 -0.119063,-0.26458 -0.264584,-0.26458 -0.14552,0 -0.264583,0.11906 -0.264583,0.26458 0,0.14552 0.119063,0.26458 0.264583,0.26458 0.145521,0 0.264584,-0.11906 0.264584,-0.26458 z m -3.653798,-0.7276 c 0.04904,-0.25467 0.264502,-0.46303 0.478798,-0.46303 0.214295,0 0.429754,0.20836 0.478797,0.46303 0.06256,0.32486 -0.08029,0.46302 -0.478797,0.46302 -0.398502,0 -0.541362,-0.13816 -0.478798,-0.46302 z m 0.743381,-0.0661 c 0,-0.14552 -0.0525,-0.26458 -0.116677,-0.26458 -0.06417,0 -0.190261,0.11906 -0.280198,0.26458 -0.08994,0.14552 -0.03743,0.26458 0.116677,0.26458 0.154109,0 0.280198,-0.11906 0.280198,-0.26458 z m -3.522266,-0.17088 c -0.374521,-0.37452 -0.162594,-0.88745 0.366666,-0.88745 0.369878,0 0.520702,0.14368 0.463021,0.44109 -0.09444,0.48696 -0.5461,0.72995 -0.829687,0.44636 z m 0.479558,-0.35829 c 0.08994,-0.14552 0.03743,-0.26458 -0.116677,-0.26458 -0.154109,0 -0.280198,0.11906 -0.280198,0.26458 0,0.14552 0.0525,0.26459 0.116676,0.26459 0.06417,0 0.190262,-0.11907 0.280199,-0.26459 z m -3.389974,-0.43546 c -0.363496,-0.36349 -0.174953,-0.92492 0.28112,-0.83708 0.254661,0.049 0.46302,0.25621 0.46302,0.46037 0,0.41774 -0.466802,0.65405 -0.74414,0.37671 z m 0.611849,-0.35829 c 0,-0.14552 -0.119063,-0.26458 -0.264584,-0.26458 -0.14552,0 -0.264583,0.11906 -0.264583,0.26458 0,0.14552 0.119063,0.26459 0.264583,0.26459 0.145521,0 0.264584,-0.11907 0.264584,-0.26459 z m -3.7041669,-0.79375 c 0,-0.3985 0.1381524,-0.54136 0.4630208,-0.47879 0.2546611,0.049 0.4630211,0.2645 0.4630211,0.47879 0,0.2143 -0.20836,0.42976 -0.4630211,0.4788 -0.3248684,0.0626 -0.4630208,-0.0803 -0.4630208,-0.4788 z m 0.7937499,0.14791 c 0,-0.0642 -0.119062,-0.19026 -0.264583,-0.2802 -0.1455211,-0.0899 -0.2645836,-0.0374 -0.2645836,0.11668 0,0.15411 0.1190625,0.2802 0.2645836,0.2802 0.145521,0 0.264583,-0.0525 0.264583,-0.11668 z M 6.5606274,285.4638 c 0,-0.29398 0.176389,-0.52916 0.396875,-0.52916 0.220486,0 0.396875,0.23518 0.396875,0.52916 0,0.29398 -0.176389,0.52917 -0.396875,0.52917 -0.220486,0 -0.396875,-0.23519 -0.396875,-0.52917 z m -3.0609905,-0.55874 c -0.1994551,-0.32273 0.3947739,-0.808 0.7332535,-0.59881 0.1160886,0.0718 0.2110703,0.30202 0.2110703,0.51171 0,0.44898 -0.681805,0.51186 -0.9443238,0.0871 z m 0.6797405,-0.23501 c 0,-0.14552 -0.052504,-0.26458 -0.1166768,-0.26458 -0.064172,0 -0.1902613,0.11906 -0.2801982,0.26458 -0.089937,0.14552 -0.037432,0.26459 0.1166767,0.26459 0.154109,0 0.2801983,-0.11907 0.2801983,-0.26459 z m -3.57187501,-1.05833 c -0.22146691,-0.35834 0.0773713,-0.79375 0.54478161,-0.79375 0.209693,0 0.3812601,0.23812 0.3812601,0.52917 0,0.54777 -0.63831011,0.73014 -0.92604171,0.26458 z m 0.66145831,-0.26458 c 0,-0.14552 -0.1190625,-0.26459 -0.2645833,-0.26459 -0.14552084,0 -0.26458334,0.11907 -0.26458334,0.26459 0,0.14552 0.1190625,0.26458 0.26458334,0.26458 0.1455208,0 0.2645833,-0.11906 0.2645833,-0.26458 z m 22.0738093,-1.5875 c 0,-0.3427 0.08945,-0.43216 0.260804,-0.26081 0.171349,0.17135 0.171349,0.35026 0,0.52161 -0.171349,0.17135 -0.260804,0.0819 -0.260804,-0.2608 z m 6.807549,-4.49792 c 0,-0.3638 0.06006,-0.51263 0.133453,-0.33073 0.0734,0.1819 0.0734,0.47956 0,0.66146 -0.0734,0.1819 -0.133453,0.0331 -0.133453,-0.33073 z"
         id="path4105"
         inkscape:connector-curvature="0" />
    </g>
  </g>
</svg>
